<svg width="82" height="78" viewBox="0 0 82 78" fill="none" xmlns="http://www.w3.org/2000/svg">
<path d="M48 0H81.5L0 78V46.4963L48 0Z" fill="#E88DB1"/>
<path d="M23.9453 46.7689C24.1955 46.5289 24.4808 46.4122 24.8013 46.4188C25.1221 46.4066 25.4026 46.5255 25.6426 46.7756C25.8734 47.0162 25.9807 47.3013 25.9644 47.631C25.9486 47.9419 25.8156 48.2173 25.5655 48.4573L20.8754 52.9577C20.6253 53.1977 20.3352 53.319 20.005 53.3217C19.6753 53.3054 19.3905 53.1722 19.1504 52.9221L11.1467 44.581C10.9067 44.3309 10.7948 44.041 10.811 43.7112C10.818 43.3719 10.9562 43.073 11.2256 42.8145C11.4565 42.593 11.7416 42.4857 12.0809 42.4927C12.4207 42.4808 12.7105 42.6 12.9506 42.8501L20.4143 50.6284L19.8614 50.6877L23.9453 46.7689ZM32.4045 32.1935C33.0968 32.9151 33.6228 33.7039 33.9823 34.56C34.3418 35.4162 34.5311 36.2971 34.5502 37.2028C34.5696 38.0896 34.4055 38.9585 34.0579 39.8095C33.7199 40.6512 33.1949 41.4136 32.483 42.0968C31.7711 42.7799 30.9876 43.2729 30.1326 43.5759C29.2777 43.8789 28.4028 44.007 27.5079 43.9602C26.6134 43.8946 25.7458 43.6646 24.9053 43.27C24.0647 42.8755 23.2982 42.3174 22.6059 41.5959C21.9135 40.8743 21.3875 40.0855 21.028 39.2293C20.6685 38.3732 20.479 37.5017 20.4596 36.6149C20.4406 35.7092 20.6 34.8355 20.938 33.9938C21.276 33.152 21.801 32.3896 22.5129 31.7065C23.2248 31.0233 24.0083 30.5303 24.8632 30.2273C25.7278 29.9151 26.6074 29.7918 27.5019 29.8574C28.3968 29.9042 29.2645 30.1248 30.1051 30.5194C30.9456 30.9139 31.7121 31.472 32.4045 32.1935ZM30.5284 33.9937C29.9099 33.3491 29.2215 32.8917 28.4633 32.6214C27.6958 32.3415 26.9383 32.2646 26.1907 32.3906C25.4431 32.5166 24.7711 32.8658 24.1746 33.4382C23.5781 34.0105 23.2015 34.6676 23.0447 35.4093C22.888 36.1511 22.929 36.9063 23.1677 37.6751C23.4161 38.4346 23.8541 39.1415 24.4819 39.7957C25.1004 40.4403 25.7886 40.9071 26.5465 41.1962C27.3047 41.4665 28.0576 41.5386 28.8052 41.4126C29.5528 41.2866 30.2248 40.9374 30.8213 40.365C31.4178 39.7927 31.7944 39.1356 31.9512 38.3939C32.1079 37.6522 32.0669 36.8969 31.8282 36.1281C31.5802 35.3497 31.147 34.6383 30.5284 33.9937ZM36.3727 18.6566C36.6229 18.4166 36.908 18.3093 37.2281 18.3348C37.539 18.3506 37.8144 18.4836 38.0544 18.7338L43.0672 23.9578C43.8334 24.7563 44.3387 25.6296 44.5832 26.5776C44.8373 27.5164 44.8323 28.4452 44.5681 29.3639C44.304 30.2826 43.7775 31.1204 42.9886 31.8774C42.1997 32.6344 41.336 33.1305 40.3976 33.3658C39.4688 33.5918 38.5358 33.5631 37.5986 33.2797C36.6711 32.9871 35.8242 32.4415 35.058 31.643L30.0453 26.419C29.8052 26.1689 29.6933 25.879 29.7096 25.5493C29.7166 25.2099 29.8548 24.911 30.1241 24.6525C30.3454 24.4402 30.6257 24.3375 30.9651 24.3445C31.3048 24.3327 31.5947 24.4518 31.8347 24.702L36.8474 29.926C37.309 30.407 37.8116 30.7286 38.3552 30.8907C38.8992 31.0339 39.4318 31.0402 39.9532 30.9095C40.4842 30.7696 40.9421 30.515 41.3269 30.1457C41.7406 29.7488 42.0331 29.2833 42.2044 28.7493C42.3758 28.2153 42.4059 27.669 42.2948 27.1103C42.1745 26.5421 41.8836 26.0174 41.422 25.5364L36.4093 20.3124C36.1693 20.0622 36.043 19.7862 36.0303 19.4841C36.0085 19.1725 36.1226 18.8967 36.3727 18.6566ZM40.2696 14.9451L45.104 10.3062C45.3541 10.0662 45.6394 9.94948 45.9599 9.9561C46.2808 9.94386 46.5613 10.0628 46.8013 10.3129C47.0321 10.5535 47.1347 10.8338 47.1093 11.1539C47.0842 11.4551 46.9466 11.7257 46.6964 11.9658L42.6558 15.843L42.5503 15.4731L45.2505 18.2871L45.0243 18.2824L48.4011 15.0421C48.6512 14.8021 48.9365 14.6854 49.257 14.692C49.5779 14.6798 49.8584 14.7988 50.0984 15.0489C50.3292 15.2894 50.4318 15.5697 50.4064 15.8898C50.3813 16.1911 50.2437 16.4617 49.9935 16.7017L46.66 19.9004L46.6214 19.7158L49.4185 22.6308L49.1785 22.6117L53.2047 18.7483C53.4548 18.5083 53.7447 18.3964 54.0745 18.4126C54.4046 18.41 54.6758 18.5193 54.8881 18.7406C55.1189 18.9811 55.2216 19.2614 55.1961 19.5815C55.1802 19.8924 55.0473 20.1678 54.7971 20.4079L49.9628 25.0467C49.7126 25.2867 49.4225 25.408 49.0924 25.4107C48.7627 25.3944 48.4778 25.2612 48.2378 25.0111L40.234 16.67C39.994 16.4199 39.8773 16.1346 39.8839 15.8141C39.8909 15.4748 40.0195 15.1851 40.2696 14.9451ZM42.2111 12.0288C42.0283 12.2042 41.8331 12.2992 41.6253 12.3137C41.4272 12.3191 41.2542 12.2448 41.1065 12.0909C41.0419 12.0235 40.9963 11.9471 40.9698 11.8617C40.9437 11.7574 40.932 11.6393 40.9347 11.5074L41.1233 9.21974C41.1461 9.03161 41.1875 8.85329 41.2475 8.68479C41.308 8.49744 41.4008 8.34376 41.5258 8.22374C41.6894 8.06681 41.9177 7.96779 42.2109 7.92669C42.5041 7.88559 42.7569 7.97568 42.9692 8.19695C43.1077 8.34126 43.198 8.53173 43.2403 8.76835C43.2829 8.98613 43.2592 9.22139 43.1691 9.47414L42.46 11.6237C42.4392 11.7176 42.4045 11.797 42.356 11.862C42.3075 11.927 42.2592 11.9826 42.2111 12.0288Z" fill="white"/>
</svg>
