<svg width="20" height="20" viewBox="0 0 20 20" fill="none" xmlns="http://www.w3.org/2000/svg">
<path d="M19.9999 8.66479C19.9999 8.13447 19.7892 7.62587 19.4142 7.25088C19.0391 6.87589 18.5304 6.66522 17.9999 6.66522H3.99999V2.66609C3.99999 2.31254 4.14046 1.97348 4.39051 1.72348C4.64056 1.47349 4.9797 1.33304 5.33332 1.33304C5.68694 1.33304 6.02608 1.47349 6.27612 1.72348C6.52617 1.97348 6.66665 2.31254 6.66665 2.66609H5.99998C5.82317 2.66609 5.6536 2.73631 5.52858 2.86131C5.40356 2.98631 5.33332 3.15584 5.33332 3.33261C5.33332 3.50938 5.40356 3.67892 5.52858 3.80391C5.6536 3.92891 5.82317 3.99913 5.99998 3.99913H8.66664C8.84345 3.99913 9.01302 3.92891 9.13804 3.80391C9.26307 3.67892 9.33331 3.50938 9.33331 3.33261C9.33331 3.15584 9.26307 2.98631 9.13804 2.86131C9.01302 2.73631 8.84345 2.66609 8.66664 2.66609H7.99998C7.99998 1.959 7.71903 1.28087 7.21893 0.780879C6.71883 0.280891 6.04056 0 5.33332 0C4.62608 0 3.9478 0.280891 3.44771 0.780879C2.94761 1.28087 2.66666 1.959 2.66666 2.66609V6.66522H1.99999C1.46956 6.66522 0.960856 6.87589 0.585785 7.25088C0.210713 7.62587 0 8.13447 0 8.66479C0.00244574 9.0943 0.143159 9.51161 0.401309 9.85493C0.659459 10.1983 1.02132 10.4494 1.43333 10.571L2.46666 15.7233C2.54236 16.1279 2.74114 16.4993 3.03585 16.7868C3.33056 17.0743 3.70684 17.2639 4.11332 17.3296L3.37999 19.1025C3.31403 19.2661 3.31558 19.4491 3.38431 19.6115C3.45303 19.7739 3.58332 19.9024 3.74666 19.969C3.82793 19.9972 3.91462 20.0063 3.99999 19.9957C4.13274 19.9963 4.26267 19.9574 4.37313 19.8837C4.48358 19.8101 4.56954 19.7052 4.61999 19.5824L5.53998 17.3296H14.46L15.38 19.5824C15.4304 19.7052 15.5164 19.8101 15.6268 19.8837C15.7373 19.9574 15.8672 19.9963 16 19.9957C16.0874 19.9979 16.1742 19.9797 16.2533 19.9423C16.4166 19.8758 16.5469 19.7472 16.6156 19.5848C16.6844 19.4224 16.6859 19.2394 16.62 19.0759L15.8866 17.3296C16.2895 17.2656 16.6631 17.0799 16.9574 16.7976C17.2517 16.5153 17.4527 16.1497 17.5333 15.7499L18.5666 10.5977C18.983 10.4747 19.348 10.2196 19.6066 9.87092C19.8652 9.52221 20.0033 9.09885 19.9999 8.66479V8.66479ZM16.2266 15.4633C16.1955 15.6161 16.1117 15.7532 15.9899 15.8506C15.868 15.948 15.7159 15.9997 15.56 15.9965H4.42665C4.27069 15.9997 4.11856 15.948 3.99675 15.8506C3.87494 15.7532 3.79116 15.6161 3.75999 15.4633L2.81332 10.6644H17.1866L16.2266 15.4633ZM17.9999 9.33131H1.99999C1.82318 9.33131 1.65361 9.26109 1.52859 9.13609C1.40357 9.01109 1.33333 8.84156 1.33333 8.66479C1.33333 8.48801 1.40357 8.31848 1.52859 8.19348C1.65361 8.06849 1.82318 7.99826 1.99999 7.99826H17.9999C18.1768 7.99826 18.3463 8.06849 18.4714 8.19348C18.5964 8.31848 18.6666 8.48801 18.6666 8.66479C18.6666 8.84156 18.5964 9.01109 18.4714 9.13609C18.3463 9.26109 18.1768 9.33131 17.9999 9.33131Z" fill="#4C4955"/>
</svg>
