<svg width="20" height="19" viewBox="0 0 20 19" fill="none" xmlns="http://www.w3.org/2000/svg">
<path d="M15.9485 10.1961C15.9155 10.1616 15.8708 10.1422 15.8242 10.1422C15.7776 10.1422 15.7329 10.1616 15.6999 10.1961L14.6837 11.2605L11.9613 8.34893L12.9488 7.3146C12.9652 7.29751 12.9782 7.27721 12.9871 7.25485C12.996 7.2325 13.0005 7.20853 13.0006 7.18432C13.0006 7.16011 12.9961 7.13613 12.9872 7.11375C12.9784 7.09138 12.9654 7.07105 12.9491 7.05393C12.9327 7.03681 12.9133 7.02323 12.892 7.01398C12.8706 7.00473 12.8477 6.99998 12.8246 7C12.8015 7.00002 12.7786 7.00482 12.7573 7.01412C12.7359 7.02342 12.7165 7.03704 12.7002 7.0542L11.3578 8.46024C11.2697 8.55253 11.2014 8.66342 11.1574 8.78555C11.1134 8.90767 11.0947 9.03821 11.1027 9.16847H10.8674C10.6921 9.16854 10.5187 9.20731 10.3586 9.28225C10.1986 9.35718 10.0554 9.46661 9.93838 9.60339L9.90422 9.64337C9.58091 9.47373 9.22663 9.37866 8.86527 9.36458C8.90841 9.20669 8.91047 9.03959 8.87124 8.88059C8.832 8.72159 8.7529 8.57646 8.64212 8.46024L7.29972 7.0542C7.26674 7.0197 7.22204 7.00033 7.17543 7.00034C7.12883 7.00036 7.08414 7.01976 7.05118 7.05427C7.01823 7.08879 6.99971 7.1356 6.99969 7.18442C6.99968 7.23323 7.01817 7.28006 7.05111 7.3146L8.05329 8.36429L5.33092 11.2759L4.30003 10.1961C4.26705 10.1616 4.22235 10.1422 4.17574 10.1423C4.12914 10.1423 4.08444 10.1617 4.05149 10.1962C4.01853 10.2307 4.00001 10.2775 4 10.3263C3.99999 10.3752 4.01848 10.422 4.05141 10.4565L5.17715 11.6356C5.19201 11.6624 5.21324 11.6846 5.23877 11.7002L5.39381 11.8626C5.50481 11.9785 5.64336 12.0613 5.79514 12.1024C5.94692 12.1435 6.10643 12.1414 6.25717 12.0963C6.26159 12.2215 6.27452 12.3463 6.29585 12.4696C6.214 12.509 6.13951 12.5633 6.07586 12.6301L5.68996 13.0343C5.58344 13.1458 5.51089 13.288 5.4815 13.4428C5.45211 13.5975 5.4672 13.758 5.52485 13.9037C5.5825 14.0495 5.68014 14.1741 5.8054 14.2618C5.93067 14.3495 6.07794 14.3963 6.22859 14.3963C6.25231 14.3963 6.27583 14.395 6.29916 14.3928C6.2893 14.5033 6.30157 14.6147 6.33519 14.7199C6.36881 14.8252 6.42303 14.9219 6.49439 15.0039C6.56575 15.086 6.65267 15.1515 6.74959 15.1963C6.84651 15.2411 6.9513 15.2642 7.05724 15.2642C7.08095 15.2642 7.10448 15.263 7.12781 15.2607C7.11795 15.3712 7.13023 15.4826 7.16385 15.5879C7.19747 15.6931 7.25169 15.7898 7.32305 15.8719C7.39441 15.9539 7.48132 16.0194 7.57824 16.0642C7.67516 16.109 7.77994 16.1322 7.88589 16.1321C7.9096 16.1321 7.93313 16.1309 7.95645 16.1287C7.94209 16.292 7.97612 16.4559 8.05391 16.5983C8.1317 16.7406 8.24948 16.8543 8.3912 16.924C8.53293 16.9937 8.69172 17.016 8.84595 16.9878C9.00019 16.9596 9.14238 16.8823 9.25317 16.7664L9.50698 16.5005L9.76081 16.7664C9.86735 16.878 10.0031 16.9539 10.1508 16.9847C10.2986 17.0155 10.4517 16.9996 10.5909 16.9393C10.73 16.8789 10.849 16.7767 10.9327 16.6455C11.0164 16.5143 11.0611 16.3601 11.0612 16.2023C11.0612 16.1776 11.06 16.153 11.0579 16.1287C11.0811 16.1309 11.1045 16.1321 11.1281 16.1321C11.3301 16.1321 11.5238 16.0481 11.6667 15.8984C11.8095 15.7488 11.8898 15.5459 11.8898 15.3343C11.8898 15.3096 11.8886 15.2851 11.8865 15.2607C11.9097 15.2629 11.9331 15.2642 11.9567 15.2642C12.1587 15.2642 12.3525 15.1801 12.4953 15.0305C12.6382 14.8809 12.7184 14.6779 12.7184 14.4663C12.7184 14.4416 12.7173 14.4171 12.7151 14.3928C12.7384 14.395 12.7617 14.3963 12.7853 14.3963C12.936 14.3963 13.0833 14.3495 13.2085 14.2618C13.3338 14.1741 13.4314 14.0495 13.4891 13.9038C13.5467 13.758 13.5618 13.5975 13.5324 13.4428C13.503 13.288 13.4305 13.1458 13.324 13.0343L13.1109 12.8111C13.3587 12.6137 13.5703 12.3708 13.7353 12.0942C13.887 12.141 14.0478 12.1441 14.201 12.1034C14.3542 12.0626 14.4942 11.9794 14.6061 11.8626L15.9485 10.4565C15.9815 10.422 16 10.3751 16 10.3263C16 10.2775 15.9815 10.2306 15.9485 10.1961ZM5.64242 11.6022L5.57954 11.5363L8.30191 8.6247L8.39351 8.72064C8.49226 8.8243 8.54773 8.96476 8.54773 9.11121C8.54773 9.25765 8.49226 9.39811 8.39351 9.50177L6.38819 11.6022C6.28923 11.7056 6.15512 11.7637 6.01531 11.7637C5.8755 11.7637 5.74139 11.7056 5.64242 11.6022ZM6.22859 14.028C6.14748 14.028 6.06818 14.0028 6.00074 13.9556C5.9333 13.9084 5.88073 13.8413 5.84969 13.7628C5.81865 13.6843 5.81053 13.598 5.82635 13.5146C5.84217 13.4313 5.88122 13.3547 5.93858 13.2947L6.32447 12.8905C6.36254 12.8505 6.40776 12.8188 6.45754 12.7971C6.50732 12.7755 6.56069 12.7643 6.61459 12.7643C6.66848 12.7643 6.72186 12.7754 6.77166 12.797C6.82147 12.8186 6.86672 12.8502 6.90483 12.8901C6.94295 12.9301 6.97317 12.9774 6.99379 13.0296C7.0144 13.0818 7.025 13.1377 7.02497 13.1941C7.02494 13.2506 7.01429 13.3065 6.99362 13.3586C6.97296 13.4108 6.94268 13.4581 6.90453 13.498L6.51861 13.9022C6.48061 13.9422 6.43542 13.9739 6.38564 13.9955C6.33585 14.0171 6.28248 14.0282 6.22859 14.028ZM7.05724 14.896C6.97612 14.896 6.89683 14.8708 6.82938 14.8236C6.76194 14.7763 6.70937 14.7092 6.67833 14.6308C6.64728 14.5523 6.63916 14.4659 6.65498 14.3825C6.6708 14.2992 6.70985 14.2227 6.7672 14.1626L7.15312 13.7584C7.23009 13.6781 7.33434 13.633 7.44299 13.6331C7.55164 13.6332 7.65582 13.6785 7.73265 13.7589C7.80948 13.8394 7.85269 13.9485 7.85279 14.0623C7.85289 14.1761 7.80987 14.2853 7.73318 14.3659L7.34726 14.7701C7.30926 14.8102 7.26407 14.8419 7.21428 14.8635C7.1645 14.8851 7.11113 14.8961 7.05724 14.896ZM7.88589 15.7639C7.83201 15.7641 7.77863 15.753 7.72885 15.7314C7.67907 15.7098 7.63387 15.6781 7.59587 15.6381V15.638C7.51907 15.5574 7.47593 15.4482 7.47593 15.3343C7.47592 15.2204 7.51905 15.1111 7.59585 15.0305L7.98177 14.6263C8.01984 14.5863 8.06506 14.5546 8.11484 14.533C8.16462 14.5113 8.21799 14.5002 8.27189 14.5001C8.3258 14.5001 8.37918 14.5112 8.42898 14.5328C8.47879 14.5544 8.52404 14.586 8.56216 14.626C8.60027 14.6659 8.6305 14.7133 8.65111 14.7655C8.67172 14.8176 8.68231 14.8735 8.68228 14.93C8.68224 14.9865 8.67158 15.0424 8.65091 15.0945C8.63023 15.1466 8.59994 15.194 8.56178 15.2339L8.17591 15.6381C8.13791 15.6781 8.09271 15.7098 8.04293 15.7314C7.99315 15.753 7.93977 15.7641 7.88589 15.7639ZM9.39043 16.1018L9.00458 16.506C8.92762 16.5864 8.82336 16.6315 8.71468 16.6314C8.606 16.6313 8.50179 16.5861 8.42495 16.5056C8.3481 16.4251 8.30489 16.3159 8.30481 16.2021C8.30473 16.0883 8.34778 15.9791 8.42452 15.8984L8.81039 15.4943C8.84845 15.4543 8.89367 15.4225 8.94346 15.4008C8.99326 15.3791 9.04664 15.3679 9.10057 15.3679C9.1545 15.3678 9.2079 15.3789 9.25774 15.4005C9.30757 15.4221 9.35284 15.4538 9.39098 15.4937C9.42911 15.5336 9.45935 15.5811 9.47996 15.6333C9.50057 15.6855 9.51116 15.7414 9.51111 15.7979C9.51105 15.8544 9.50037 15.9103 9.47966 15.9624C9.45895 16.0146 9.42863 16.062 9.39043 16.1018L9.39043 16.1018ZM13.1955 13.5984C13.1955 13.6834 13.1715 13.7665 13.1264 13.8371C13.0813 13.9078 13.0173 13.9628 12.9423 13.9953C12.8674 14.0279 12.7849 14.0364 12.7053 14.0198C12.6258 14.0032 12.5527 13.9623 12.4953 13.9022L11.2358 12.5829C11.2195 12.5658 11.2001 12.5522 11.1787 12.543C11.1574 12.5337 11.1345 12.5289 11.1114 12.5289C11.0884 12.5289 11.0655 12.5337 11.0441 12.5429C11.0228 12.5522 11.0034 12.5658 10.9871 12.5829C10.9708 12.6 10.9578 12.6203 10.949 12.6426C10.9401 12.665 10.9356 12.6889 10.9356 12.7131C10.9356 12.7373 10.9402 12.7613 10.949 12.7836C10.9579 12.8059 10.9708 12.8262 10.9872 12.8433L12.2467 14.1626C12.2849 14.2024 12.3152 14.2498 12.3359 14.302C12.3566 14.3541 12.3673 14.41 12.3674 14.4665C12.3674 14.523 12.3568 14.5789 12.3362 14.6311C12.3156 14.6833 12.2854 14.7307 12.2473 14.7707C12.2091 14.8106 12.1638 14.8423 12.114 14.8639C12.0642 14.8855 12.0108 14.8966 11.9568 14.8965C11.9029 14.8965 11.8495 14.8853 11.7997 14.8636C11.7499 14.8419 11.7047 14.8101 11.6667 14.7701L10.4072 13.4508C10.3742 13.4163 10.3295 13.3969 10.2828 13.3969C10.2362 13.3969 10.1915 13.4163 10.1585 13.4508C10.1256 13.4854 10.107 13.5322 10.107 13.581C10.107 13.6299 10.1256 13.6767 10.1585 13.7112L11.4181 15.0305C11.4562 15.0704 11.4865 15.1177 11.5072 15.1699C11.5278 15.222 11.5385 15.2779 11.5385 15.3344C11.5385 15.3908 11.5279 15.4467 11.5073 15.4989C11.4867 15.551 11.4565 15.5984 11.4184 15.6384C11.3803 15.6783 11.335 15.7099 11.2852 15.7315C11.2354 15.7531 11.182 15.7642 11.1281 15.7642C11.0743 15.7642 11.0209 15.753 10.9711 15.7314C10.9213 15.7097 10.8761 15.678 10.838 15.638L9.5785 14.3188C9.56219 14.3016 9.54281 14.288 9.52148 14.2788C9.50014 14.2695 9.47727 14.2647 9.45417 14.2647C9.43106 14.2646 9.40818 14.2694 9.38683 14.2786C9.36548 14.2879 9.34608 14.3015 9.32974 14.3186C9.3134 14.3357 9.30044 14.356 9.2916 14.3783C9.28275 14.4007 9.2782 14.4246 9.27821 14.4488C9.27822 14.473 9.28277 14.497 9.29163 14.5194C9.30048 14.5417 9.31345 14.562 9.3298 14.5791L10.5893 15.8984C10.6274 15.9383 10.6576 15.9856 10.6783 16.0377C10.6989 16.0898 10.7095 16.1457 10.7095 16.2021C10.7095 16.2585 10.6989 16.3144 10.6783 16.3665C10.6577 16.4186 10.6275 16.466 10.5894 16.5059C10.5514 16.5458 10.5062 16.5775 10.4564 16.5991C10.4066 16.6206 10.3533 16.6318 10.2995 16.6318C10.2456 16.6318 10.1923 16.6207 10.1425 16.5991C10.0927 16.5775 10.0475 16.5459 10.0094 16.506L9.74286 16.2268C9.81622 16.1062 9.85728 15.9672 9.86175 15.8242C9.86622 15.6813 9.83393 15.5397 9.76826 15.4143C9.70259 15.289 9.60595 15.1844 9.48846 15.1115C9.37097 15.0386 9.23695 15.0002 9.10041 15.0002C9.07682 15.0002 9.05343 15.0014 9.03022 15.0036C9.03233 14.9793 9.03351 14.9548 9.03351 14.9301C9.03349 14.7185 8.95324 14.5156 8.81039 14.366C8.66754 14.2163 8.4738 14.1323 8.27179 14.1323C8.24807 14.1323 8.22454 14.1335 8.20122 14.1357C8.21167 14.019 8.1974 13.9014 8.15944 13.7911C8.12149 13.6809 8.06077 13.5807 7.98163 13.4979C7.90248 13.415 7.80686 13.3515 7.70158 13.3118C7.5963 13.2721 7.48395 13.2572 7.37255 13.2682C7.38231 13.16 7.37082 13.0508 7.33879 12.9475C7.30675 12.8441 7.25486 12.7487 7.18629 12.6671C7.11772 12.5855 7.03393 12.5195 6.94009 12.4731C6.84624 12.4268 6.74433 12.401 6.64062 12.3974C6.61218 12.2299 6.60179 12.0595 6.60966 11.8896C6.61882 11.8808 6.62793 11.8719 6.63681 11.8626L8.64212 9.76217C8.651 9.75286 8.65952 9.74332 8.66794 9.73371C8.70232 9.73202 8.73713 9.73086 8.77254 9.73086C9.07835 9.73102 9.3807 9.79868 9.65988 9.92942L8.54825 11.2308C8.45522 11.3398 8.40554 11.4819 8.4094 11.6281C8.41327 11.7742 8.47038 11.9133 8.56904 12.0167C8.75625 12.2123 9.00991 12.3222 9.27436 12.3222C9.53881 12.3222 9.79246 12.2123 9.97966 12.0167L10.9173 11.0343L11.4525 11.5949C11.8732 12.0355 12.2938 12.476 12.7144 12.9167L12.7149 12.9171L13.0754 13.2947C13.1136 13.3345 13.1439 13.3818 13.1645 13.4339C13.1851 13.4861 13.1957 13.542 13.1955 13.5984ZM13.2521 12.1652C13.1364 12.3088 13.0048 12.4374 12.8599 12.5483C12.4737 12.1436 12.0874 11.739 11.7011 11.3345L11.0416 10.6437C11.0086 10.6092 10.9639 10.5898 10.9173 10.5898C10.8707 10.5898 10.826 10.6092 10.793 10.6438L9.73107 11.7563C9.60984 11.883 9.44559 11.9541 9.27435 11.9541C9.10311 11.9541 8.93886 11.883 8.81763 11.7563C8.78248 11.7195 8.76214 11.6699 8.76077 11.6178C8.7594 11.5658 8.77712 11.5151 8.81028 11.4763L10.2004 9.84898C10.2844 9.75077 10.3872 9.6722 10.5021 9.61839C10.617 9.56458 10.7415 9.53675 10.8674 9.5367H11.1999C11.2412 9.61987 11.2945 9.69591 11.3578 9.76217L13.3631 11.8626C13.3826 11.883 13.4029 11.9021 13.4238 11.9202C13.3717 12.0057 13.3144 12.0875 13.2521 12.1652H13.2521ZM14.3575 11.6022C14.2585 11.7056 14.1244 11.7637 13.9846 11.7637C13.8448 11.7637 13.7107 11.7056 13.6117 11.6022L11.6064 9.50177C11.5077 9.39811 11.4522 9.25765 11.4522 9.11121C11.4522 8.96476 11.5077 8.8243 11.6064 8.72064L11.7127 8.60934L14.4351 11.5209L14.3575 11.6022Z" fill="#646464"/>
<path d="M16.0014 19H3.99862C3.46807 19 2.95924 18.7948 2.58409 18.4296C2.20893 18.0644 1.99816 17.5691 1.99816 17.0526V9.26319H0.664525C0.530966 9.26274 0.400623 9.22326 0.290381 9.14987C0.180139 9.07647 0.0950788 8.97254 0.0462201 8.85153C-0.00263857 8.73053 -0.0130442 8.59803 0.0163512 8.47121C0.0457467 8.34438 0.113589 8.22907 0.211088 8.14021L8.66636 0.519533C9.03628 0.185569 9.52216 0 10.0267 0C10.5312 0 11.0171 0.185569 11.387 0.519533L19.7889 8.14021C19.8864 8.22907 19.9543 8.34438 19.9836 8.47121C20.013 8.59803 20.0026 8.73053 19.9538 8.85153C19.9049 8.97254 19.8199 9.07647 19.7096 9.14987C19.5994 9.22326 19.469 9.26274 19.3355 9.26319H18.0018V17.0526C18.0018 17.5691 17.7911 18.0644 17.4159 18.4296C17.0408 18.7948 16.5319 19 16.0014 19V19ZM2.36492 7.96495H2.66498C2.84184 7.96495 3.01144 8.03334 3.1365 8.15507C3.26155 8.2768 3.3318 8.44191 3.3318 8.61407V17.0526C3.3318 17.2248 3.40206 17.3899 3.52711 17.5116C3.65216 17.6334 3.82177 17.7018 3.99862 17.7018H16.0014C16.1782 17.7018 16.3478 17.6334 16.4729 17.5116C16.5979 17.3899 16.6682 17.2248 16.6682 17.0526V8.61407C16.6682 8.44191 16.7384 8.2768 16.8635 8.15507C16.9886 8.03334 17.1582 7.96495 17.335 7.96495H17.6351L10.4534 1.47374C10.3301 1.36242 10.1682 1.30056 10 1.30056C9.83183 1.30056 9.66987 1.36242 9.54656 1.47374L2.36492 7.96495Z" fill="#646464"/>
</svg>
