<svg width="1600" height="1309" viewBox="0 0 1600 1309" fill="none" xmlns="http://www.w3.org/2000/svg">
<g filter="url(#filter0_d_570_31)">
<path fill-rule="evenodd" clip-rule="evenodd" d="M964 69.2376C965.452 65.4362 966.259 64.7259 972.375 61.8655C979.878 58.357 981.537 57.9722 981.536 59.7393C981.535 60.9915 976.748 80.8648 976.349 81.2755C976.223 81.4047 973.455 80.2205 970.199 78.6429C966.942 77.0643 963.854 75.7739 963.336 75.7739C961.989 75.7739 962.166 74.0431 964 69.2376Z" fill="#F7F9F9"/>
<path fill-rule="evenodd" clip-rule="evenodd" d="M904.145 30.1591C899.934 31.8487 897.337 34.0572 889.65 42.4823C881.769 51.1228 880.103 53.5093 879.132 57.5615L877.977 62.3747L871.134 64.4233C867.37 65.5501 864.187 66.5504 864.06 66.6471C863.933 66.7429 864.482 69.3285 865.28 72.3918C866.078 75.4551 866.563 78.1288 866.358 78.3327C866.153 78.5376 863.879 78.955 861.304 79.2594C857.558 79.7036 854.409 79.1235 845.553 76.3579C839.464 74.4576 833.585 72.9021 832.487 72.9021C831.39 72.9021 827.705 74.1523 824.299 75.6811L818.106 78.4601L817.51 74.1121C816.656 67.8801 816.775 61.6271 817.755 61.2547C818.218 61.0795 820.394 59.3009 822.591 57.303L826.586 53.6711L823.19 49.0445L819.795 44.4179L804.716 44.9014C796.422 45.1665 789.206 45.717 788.679 46.1248C788.153 46.5316 785.531 48.092 782.854 49.593C764.224 60.0313 752.793 66.7725 752.791 67.322C752.79 67.6743 754.05 68.241 755.593 68.5799C760.554 69.6693 760.907 71.1885 757.64 77.386C756.027 80.4484 754.705 83.2542 754.704 83.6218C754.703 83.9894 759.186 90.2357 764.666 97.5024L774.631 110.715L772.328 113.156C771.061 114.498 767.546 117.298 764.517 119.378C759.511 122.815 758.528 123.134 753.745 122.879L748.481 122.598L743.695 115.827L738.91 109.055L728.382 109.641C722.591 109.963 711.5 110.23 703.736 110.232C693.9 110.235 689.619 110.564 689.619 111.316C689.619 111.91 691.772 115.3 694.404 118.852C697.036 122.403 699.19 125.657 699.19 126.082C699.19 126.508 696.894 129.902 694.087 133.624C691.281 137.346 685.605 145.048 681.471 150.74C674.026 160.993 673.758 161.235 652.648 176.826L631.34 192.563H622.271H613.201L605.23 197.47C600.845 200.169 594.687 204.04 591.546 206.071L585.834 209.765L582.707 206.734C580.987 205.067 579.429 203.889 579.243 204.116C579.058 204.343 577.541 206.957 575.871 209.924C572.97 215.081 571.095 216.449 566.882 216.482C565.389 216.494 565.462 215.946 567.6 211.112C568.909 208.15 569.98 205.35 569.98 204.889C569.98 204.428 568.167 204.051 565.949 204.051C562.527 204.051 561.321 204.635 557.979 207.916L554.041 211.782L542.46 211.127C536.09 210.767 530.425 210.193 529.872 209.85C529.174 209.419 529.146 205.287 529.781 196.407C530.284 189.355 530.525 183.414 530.315 183.205C530.105 182.995 528.499 182.451 526.747 181.997C524.994 181.543 520.546 180.239 516.861 179.101C513.176 177.963 507.792 176.388 504.897 175.602C502.002 174.816 499.202 173.85 498.676 173.456C498.149 173.061 494.704 171.112 491.019 169.124C487.334 167.137 482.433 164.415 480.126 163.077C476.455 160.947 475.479 160.765 472.283 161.618C468.496 162.63 466.666 161.847 452.507 153.159L449.409 151.258L448.235 153.961C445.79 159.599 444.548 160.957 442.827 159.881C440.875 158.663 418.173 162.061 418.461 163.53C419.415 168.398 421.664 187.103 421.336 187.431C421.101 187.666 415.796 188.267 409.545 188.768C403.294 189.27 395.745 189.949 392.771 190.277L387.362 190.874L385.447 186.544C384.093 183.482 381.282 180.309 375.853 175.715L368.174 169.216L369.657 166.349C371.122 163.513 371.099 163.449 367.579 160.625L364.019 157.769L366.264 156.071L368.509 154.373L364.858 150.629L361.206 146.884L367.49 141.366C370.946 138.332 373.773 135.532 373.773 135.144C373.773 134.755 371.987 132.409 369.805 129.929C366.074 125.69 365.896 125.225 366.834 122.166C367.751 119.178 367.556 118.557 364.454 114.575C362.595 112.188 360.674 110.236 360.184 110.236C359.694 110.236 357.275 111.068 354.808 112.085C352.342 113.101 343.002 116.605 334.053 119.871C311.56 128.081 308.516 129.238 307.977 129.776C307.718 130.035 304.122 128.544 299.984 126.464C295.846 124.383 292.295 122.681 292.09 122.681C291.886 122.681 290.794 125.218 289.664 128.318C287.319 134.752 286.828 135.257 280.934 137.318C278.565 138.146 273.612 139.94 269.927 141.304C266.242 142.668 259.997 144.891 256.049 146.244C249.701 148.419 248.151 149.464 242.649 155.276C236.693 161.568 229.714 166.173 205.322 179.903C202.953 181.236 199.515 183.338 197.683 184.574C195.637 185.951 192.944 186.819 190.711 186.819C187.493 186.819 186.156 187.677 179.142 194.238C173.595 199.427 166.339 204.633 155.007 211.555C146.095 216.998 132.343 225.5 124.447 230.448C116.551 235.396 109.229 239.884 108.176 240.422C107.123 240.959 102.17 243.99 97.1691 247.157C88.1981 252.839 85.411 254.309 71.3109 260.802C67.3715 262.616 60.7033 265.711 56.492 267.682C52.2808 269.652 45.4977 272.824 41.4176 274.732C37.3374 276.639 34 278.64 34 279.176C34 279.713 35.6989 284.029 37.7758 288.769C40.8988 295.897 41.8263 299.537 43.1394 309.831C44.0123 316.676 45.4585 325.937 46.3543 330.413L47.9814 338.55L52.9546 340.345C57.7631 342.08 57.9277 342.261 57.9277 345.787C57.9277 347.792 58.4005 350.647 58.9786 352.129C61.1283 357.643 66.4593 372.931 66.2651 373.022C64.5078 373.853 47.8781 388.475 47.8781 389.19C47.8781 389.736 49.6573 390.534 51.8328 390.965C56.5629 391.9 56.5734 391.932 57.5276 409.116L58.1947 421.12L54.2658 426.263L50.3378 431.407L54.952 431.691C59.4734 431.97 59.5892 432.056 60.7378 435.999C61.3819 438.212 62.9468 443.477 64.2159 447.7L66.5235 455.377L72.7284 456.555C80.7164 458.07 80.8983 458.057 80.8983 455.977C80.8983 453.219 81.952 452.853 83.6949 455.006C85.1947 456.858 85.7192 456.919 91.8945 455.957C99.8634 454.717 100.998 455.366 100.998 461.163C100.998 464.954 101.581 465.968 107.675 472.773C113.257 479.004 114.357 480.785 114.375 483.624C114.392 486.339 115.189 487.778 118.347 490.803C121.89 494.198 125.526 500.769 131.683 514.906C132.956 517.828 133.233 517.961 136.873 517.394C138.987 517.065 142.44 516.195 144.546 515.46L148.374 514.125L151.246 517.705C152.825 519.674 154.864 522.171 155.779 523.253L157.441 525.221L159.244 522.92L161.048 520.617L169.452 524.083C174.074 525.989 178.122 527.383 178.448 527.182C178.774 526.98 182.212 521.7 186.087 515.447C194.673 501.596 195.354 501.212 213.043 500.26L225.071 499.613L227.353 493.867L229.636 488.119L227.024 485.872L224.413 483.626L228.028 482.083C236.51 478.463 235.821 478.438 241.869 482.589C244.964 484.713 247.691 486.451 247.93 486.451C248.169 486.451 249.628 483.973 251.172 480.946C252.716 477.918 254.622 474.586 255.407 473.54C256.803 471.679 256.876 471.677 258.815 473.432C260.117 474.61 262.361 475.263 265.362 475.334C269.818 475.439 269.935 475.518 270.234 478.655C270.415 480.546 272.34 484.441 274.913 488.122C277.317 491.563 281.819 499.809 284.919 506.448C288.018 513.087 290.905 519.153 291.333 519.926C291.761 520.7 294.873 521.933 298.247 522.665C303.768 523.865 304.766 524.465 308.211 528.659C310.317 531.223 311.9 534.033 311.73 534.902C311.558 535.772 309.992 539.472 308.248 543.123C305.177 549.553 305.115 549.918 306.283 554.723C306.945 557.451 308.238 563.345 309.155 567.82C310.072 572.296 311.442 578.542 312.198 581.701C312.955 584.86 313.95 590.245 314.411 593.667C314.872 597.089 316.175 605.274 317.309 611.855C319.327 623.589 319.499 624.042 326.177 635.144C332.822 646.194 333.173 646.584 340.698 651.259C344.939 653.895 351.046 657.699 354.267 659.712L360.124 663.374L369.415 657.957C374.526 654.977 380.289 651.562 382.223 650.366C384.155 649.171 386.383 647.904 387.173 647.553C387.962 647.2 390.938 645.429 393.784 643.617L398.96 640.321L405.748 641.519C409.482 642.177 412.838 642.893 413.208 643.109C413.577 643.324 410.9 647.884 407.259 653.24C403.619 658.596 400.789 663.128 400.972 663.312C401.283 663.622 410.498 661.857 427.233 658.284L434.275 656.78L445.418 663.305L456.563 669.831L465.722 684.639C474.248 698.427 474.827 699.678 474.109 702.798C472.512 709.731 470 729.34 470.001 734.867C470.001 738.026 470.504 744.559 471.121 749.384L472.24 758.159L481.482 769.248C486.565 775.348 491.005 780.331 491.35 780.321C492.154 780.299 497.583 773.748 498.873 771.244C499.859 769.329 501.407 762.878 502.479 756.22C503.144 752.092 502.929 752.184 516.709 750.164C525.026 748.945 528.539 748.847 534.415 749.673C546.878 751.424 547.579 751.595 549.474 753.334C550.488 754.265 554.365 757.478 558.091 760.476L564.865 765.928L571.491 763.483C575.134 762.138 581.131 760.021 584.815 758.778C588.5 757.535 596.362 754.797 602.285 752.693L613.055 748.866L629.458 763.406C656.62 787.481 653.835 784.159 656.092 795.176C657.171 800.441 658.411 806.041 658.849 807.621L659.643 810.493L667.214 810.172C671.377 809.996 674.926 809.71 675.1 809.536C675.275 809.362 674.917 805.916 674.305 801.877C673.692 797.838 673.349 794.377 673.541 794.185C673.916 793.809 675.165 794.463 683.076 799.176L688.183 802.218L687.704 809.843L687.226 817.468L677.176 825.345C671.649 829.678 666.525 833.456 665.789 833.742C664.678 834.171 664.561 837.086 665.096 850.816L665.742 867.37L659.256 875.139C655.689 879.411 652.646 883.25 652.493 883.668C652.341 884.086 653.849 885.161 655.843 886.056C657.838 886.951 660.418 888.147 661.577 888.714C663.561 889.683 672.11 889.286 679.022 887.903L681.768 887.353L682.469 896.788C683.159 906.059 683.267 906.386 688.764 915.793L694.357 925.364L688.399 931.434L682.44 937.504L673.782 936.897L665.125 936.289L662.495 943.274C661.049 947.114 659.238 951.672 658.471 953.401C657.705 955.13 657.077 957.081 657.077 957.738C657.077 958.395 659.599 961.429 662.683 964.48L668.288 970.029L666.954 973.899C666.221 976.028 665.002 978.967 664.246 980.431C662.537 983.734 662.373 983.593 675.044 989.72C686.025 995.03 683.983 994.906 703.975 991.485C724.361 987.997 725.229 987.952 730.841 990.075C733.699 991.157 737.115 992.402 738.431 992.841C741.477 993.858 750.407 997.248 763.795 1002.47C772.021 1005.68 775.912 1006.66 781.597 1006.96C788.178 1007.32 789.217 1007.12 792.498 1004.89C795.662 1002.74 797.123 1002.43 803.957 1002.43H811.789L817.284 996.207C822.595 990.193 822.933 989.984 827.326 989.984C831.785 989.984 831.945 989.878 835.65 984.48L839.429 978.976L849.467 978.443C857.354 978.025 861.797 977.176 870.198 974.477C876.079 972.589 881.413 970.721 882.051 970.327C882.91 969.796 883.04 966.924 882.552 959.222C882.052 951.315 882.234 947.632 883.314 943.802C887.172 930.119 887.189 929.675 883.855 929.675C881.589 929.675 881.531 928.256 883.495 920.644C884.318 917.451 885.288 913.62 885.649 912.132C886.196 909.872 887.993 908.553 896.559 904.115C905.828 899.313 906.916 898.47 907.885 895.332C911.086 884.978 911.898 883.807 918.939 879.404C922.863 876.95 926.859 873.529 928.401 871.304C929.869 869.185 931.334 867.452 931.658 867.453C931.981 867.454 933.459 869.377 934.943 871.726L937.641 875.997L945.179 875.415L952.718 874.834L953.329 877.604C954.403 882.473 954.599 882.76 956.376 882.084C957.404 881.692 956.499 883.335 954.108 886.196L950.127 890.962L950.955 898.112C952.14 908.355 952.132 908.383 949.222 904.896C946.69 901.863 946.38 901.758 941.925 902.426L937.271 903.124L937.895 909.459C938.239 912.944 938.771 917.194 939.078 918.906C939.622 921.936 939.548 922.017 936.245 922.017C932.489 922.017 932.287 922.35 931.297 930.183L930.688 934.998L934.476 937.128C938.334 939.296 939.424 940.835 939.424 944.113C939.424 945.566 938.739 945.949 936.138 945.949C933.828 945.949 932.713 946.446 932.381 947.624C931.541 950.608 930.808 954.901 929.945 961.891C929.22 967.751 928.533 969.487 925.171 973.939C920.943 979.541 919.51 985.094 920.682 991.34C921.278 994.518 921.892 995.024 929.526 998.617C935.992 1001.66 938.017 1002.24 939.079 1001.36C940.703 1000.01 940.526 999.835 943.541 1005.84C946.414 1011.56 947.419 1012.51 951.866 1013.65C954.495 1014.32 955.462 1015.21 956.359 1017.8C957.934 1022.35 957.873 1026.51 956.197 1028.91C954.606 1031.18 949.983 1045.09 949.964 1047.66C949.955 1048.98 949.122 1049.34 946.02 1049.34C942.22 1049.34 942.108 1049.43 942.697 1051.97C944.226 1058.57 947.397 1065.58 949.1 1066.12C950.578 1066.59 950.909 1067.64 950.909 1071.83C950.909 1075.22 951.42 1077.47 952.413 1078.47C953.705 1079.76 953.716 1079.97 952.497 1079.97C951.566 1079.97 950.856 1081.37 950.434 1084.04C950.081 1086.28 948.737 1090.17 947.448 1092.69C946.159 1095.22 945.36 1097.7 945.671 1098.2C945.982 1098.7 947.921 1099.12 949.98 1099.12C952.038 1099.12 958.228 1099.78 963.734 1100.6L973.747 1102.09L980.274 1097.77C987.368 1093.07 992.25 1091.79 999.175 1092.83C1003.28 1093.45 1003.66 1093.78 1006.64 1099.27C1009.46 1104.5 1010.48 1105.45 1016.95 1108.92C1020.9 1111.04 1026.21 1113.96 1028.75 1115.41L1033.38 1118.04L1038.14 1116.3L1042.91 1114.55L1049.58 1124.78L1056.25 1135.01L1055.64 1140.92L1055.03 1146.83L1059.68 1147.42C1062.23 1147.75 1065.35 1148.16 1066.6 1148.35C1068.19 1148.58 1069.01 1148.13 1069.34 1146.87C1070.43 1142.71 1071.48 1145.06 1073.95 1157.2C1074.43 1159.56 1076.07 1159.87 1095.91 1161.3C1106.97 1162.1 1107.5 1162.05 1110.27 1159.99C1111.85 1158.82 1113.62 1157.57 1114.21 1157.22C1115.27 1156.6 1138.5 1179.4 1138.5 1181.06C1138.5 1181.62 1129.76 1193.85 1129.03 1194.3C1128.63 1194.55 1129.19 1198.22 1130.28 1202.45C1132.5 1211.11 1131.69 1210.78 1141.61 1207.02C1146.35 1205.22 1147.27 1204.46 1148.2 1201.56C1149.77 1196.66 1149.77 1196.67 1153.27 1198.64C1155.04 1199.63 1159.07 1201.79 1162.21 1203.42C1168.58 1206.74 1179.66 1217.54 1179.66 1220.44C1179.66 1221.44 1180.27 1224.17 1181.01 1226.5C1181.76 1228.83 1182.63 1231.93 1182.95 1233.37C1183.39 1235.38 1184.08 1236.01 1185.9 1236.01C1187.2 1236.01 1188.27 1236.14 1188.27 1236.31C1188.27 1236.47 1187.37 1238.47 1186.27 1240.75L1184.27 1244.89L1186.99 1247.13C1188.48 1248.36 1191.1 1250.35 1192.81 1251.54C1197.28 1254.67 1196.87 1257.1 1191.14 1261.47C1188.51 1263.48 1186.36 1265.17 1186.36 1265.22C1186.36 1265.28 1188.32 1266.8 1190.72 1268.6C1195.08 1271.86 1195.09 1271.88 1194.46 1276.44C1194.12 1278.95 1194.15 1281 1194.53 1281C1194.91 1281 1197.3 1279.51 1199.83 1277.69C1204.09 1274.63 1206.82 1273.65 1224.44 1268.82C1228.97 1267.58 1229.67 1267.04 1231.03 1263.64C1232.72 1259.41 1232.64 1259.41 1243.53 1262.48C1248.02 1263.75 1248.85 1264.42 1251.61 1269.04C1253.3 1271.87 1255.01 1273.98 1255.4 1273.74C1255.79 1273.5 1257.43 1271 1259.03 1268.19C1261.66 1263.6 1261.85 1262.75 1260.87 1259.95C1259.8 1256.87 1259.88 1256.73 1266.51 1250.21L1273.24 1243.6L1276.46 1244.98C1292.74 1251.97 1290.91 1251.56 1301.89 1250.69L1312.02 1249.89L1313.9 1244.62C1314.93 1241.73 1316.72 1238.64 1317.88 1237.77C1319.91 1236.25 1320.15 1236.33 1324.16 1239.93C1328.29 1243.62 1328.42 1243.67 1336.09 1243.67H1343.84L1352.2 1235.27L1360.55 1226.87V1220.8V1214.73L1356.24 1215.38C1352.45 1215.94 1351.94 1215.81 1351.94 1214.24C1351.94 1213.11 1354.03 1211.13 1357.68 1208.8C1360.84 1206.79 1363.42 1204.6 1363.42 1203.94C1363.42 1203.28 1364.1 1199.72 1364.94 1196.03L1366.45 1189.32L1370.2 1188.72L1373.95 1188.12L1373.95 1178.8L1373.95 1169.48L1366.69 1166.21C1356.12 1161.46 1355.07 1157.6 1361.99 1148.8C1364.36 1145.78 1366.29 1142.82 1366.29 1142.22C1366.29 1140.85 1355.6 1128.01 1354.38 1127.91C1353.87 1127.87 1352.05 1129.2 1350.33 1130.87C1347.51 1133.61 1346.96 1133.8 1344.7 1132.77C1342.24 1131.65 1342.22 1131.53 1342.87 1124.55L1343.53 1117.47L1335.53 1104.47C1331.13 1097.32 1326.97 1090.39 1326.28 1089.07C1324.81 1086.25 1324.88 1086.26 1318.83 1088.1C1316.25 1088.88 1313.69 1089.53 1313.15 1089.53C1312.61 1089.54 1311.39 1085.77 1310.43 1081.17C1309.47 1076.56 1308.11 1070.68 1307.4 1068.1L1306.12 1063.41L1309.5 1059.01C1312.67 1054.87 1312.85 1054.29 1312.29 1049.49L1311.7 1044.38L1315.63 1044.7C1319.39 1045.01 1319.67 1044.84 1321.87 1040.93C1323.14 1038.68 1324.18 1036.67 1324.18 1036.47C1324.18 1036.06 1310.88 1028.28 1310.19 1028.28C1309.95 1028.28 1308.69 1027.58 1307.39 1026.73L1305.02 1025.17L1308.47 1021.36C1310.37 1019.26 1313.6 1013.88 1315.66 1009.41C1318.92 1002.32 1319.4 1000.39 1319.4 994.316V987.352L1322.39 986.754C1324.03 986.424 1326.58 986.155 1328.05 986.155C1330.09 986.155 1331.02 985.485 1331.97 983.338C1332.93 981.156 1334.41 980.121 1338.51 978.751L1343.8 976.98L1344.09 972.1C1344.38 967.067 1343.98 966.427 1338.22 962.702C1337.41 962.175 1336.61 960.286 1336.44 958.504C1336.16 955.463 1336.55 954.985 1342.75 950.733C1349.87 945.851 1350.72 944.684 1353.94 935.395C1356 929.438 1356 929.27 1354.23 928.092C1349.2 924.753 1348.92 924.366 1349.58 921.753C1350.03 919.96 1351.76 918.291 1355.25 916.294L1360.28 913.418L1361.48 905.99C1363.64 892.593 1363.28 893.234 1370.65 889.688C1374.31 887.929 1380.1 885.09 1383.52 883.379L1389.74 880.269L1390.43 867.955C1390.81 861.183 1391.45 855.346 1391.87 854.984C1392.68 854.266 1408.6 849.263 1410.07 849.263C1410.57 849.263 1411.51 851.653 1412.16 854.575L1413.35 859.887L1420.21 863.262L1427.07 866.637L1431.51 864.653C1435.27 862.974 1436.04 862.156 1436.58 859.317C1436.92 857.473 1437.48 855.964 1437.82 855.964C1438.15 855.964 1440.93 856.666 1443.99 857.523L1449.54 859.084L1448.95 862.789C1448.56 865.244 1448.72 866.494 1449.44 866.494C1450.13 866.494 1449.84 868.267 1448.62 871.463C1447.59 874.196 1446.83 876.492 1446.95 876.566C1447.07 876.64 1449.59 877.222 1452.55 877.861C1457.58 878.947 1458.29 878.864 1463.42 876.594C1468.19 874.485 1468.85 873.881 1468.4 872.004C1468.11 870.816 1467.59 868.254 1467.24 866.308C1466.76 863.684 1466.07 862.692 1464.54 862.457C1463.25 862.258 1462.64 861.616 1462.91 860.727C1463.14 859.95 1463.29 857.951 1463.22 856.285C1463.12 853.453 1463.46 853.118 1468.54 851.172C1480 846.774 1481.19 846.13 1480.76 844.564C1480.52 843.726 1479.79 839.866 1479.13 835.985C1478.33 831.317 1477.02 827.593 1475.25 824.977C1473.77 822.803 1472.57 820.592 1472.57 820.066C1472.57 819.539 1474.9 817.439 1477.75 815.399C1481.73 812.549 1483.44 810.499 1485.15 806.56C1486.37 803.739 1487.65 801.423 1488 801.415C1488.35 801.406 1493.31 799.208 1499.01 796.531C1517.93 787.651 1519.31 787.039 1520.33 787.039C1522.11 787.039 1521.43 784.836 1518.8 782.091L1516.25 779.431L1520.95 769.439C1525.43 759.922 1525.81 759.431 1528.91 759.06C1531.73 758.723 1533 759.367 1538.17 763.76C1541.47 766.56 1544.42 768.851 1544.73 768.851C1545.03 768.851 1549.83 765.731 1555.4 761.918C1566.73 754.157 1566.4 754.938 1562.69 744.919C1561 740.35 1559.95 739.123 1554.79 735.65C1548.65 731.515 1546.79 729.365 1542.89 721.854L1540.61 717.455L1545.78 710.154L1550.95 702.852L1549.58 698.958C1548.33 695.421 1548.37 694.638 1550.03 690.429C1551.79 685.969 1551.79 685.531 1550.22 678.77L1548.59 671.744L1543.34 670.165L1538.09 668.585L1537.82 660.561L1537.55 652.538L1529.43 647.916L1521.3 643.296L1518.21 645.114L1515.12 646.933L1510.79 644.282L1506.46 641.63L1498.39 644.452C1493.96 646.005 1489.85 647.275 1489.27 647.275C1488.69 647.275 1486.95 644.292 1485.42 640.646C1483.18 635.343 1481.98 633.712 1479.42 632.493L1476.23 630.968L1478.21 627.76C1479.3 625.997 1480.19 624.376 1480.19 624.159C1480.19 623.942 1478.04 622.928 1475.4 621.907C1470.86 620.144 1470.62 619.871 1470.62 616.514C1470.62 613.307 1471.06 612.706 1475.34 610.072C1478.66 608.031 1481.36 605.175 1484.43 600.472C1488.6 594.084 1488.98 593.764 1492.87 593.483L1496.94 593.188L1497.22 587.904C1497.48 583.007 1497.88 582.2 1502.7 576.895C1505.56 573.747 1507.91 570.711 1507.92 570.15C1507.94 569.589 1506.24 568.172 1504.16 567L1500.37 564.87L1496.62 566.782C1494.56 567.835 1492.71 568.541 1492.51 568.351C1491.96 567.826 1472.39 563.808 1472.1 564.16C1471.95 564.331 1471.34 565.762 1470.74 567.342C1469.66 570.165 1469.65 570.148 1470.1 566.418C1470.45 563.535 1470.12 562.144 1468.7 560.639C1466.85 558.662 1466.85 558.65 1470.19 556.852C1472.03 555.859 1473.42 554.787 1473.28 554.468C1473.13 554.15 1470.69 550.406 1467.85 546.149C1464.34 540.897 1461.21 537.444 1458.1 535.41C1455.58 533.761 1453.26 531.44 1452.93 530.252C1452.6 529.064 1451.53 526.154 1450.54 523.785C1449.56 521.416 1447.99 517.511 1447.06 515.107C1445.69 511.534 1444.67 510.444 1441.48 509.124C1436.68 507.14 1432.14 507.065 1428.57 508.914C1426.04 510.224 1425.49 510.129 1420.31 507.478C1413.91 504.209 1412.26 503.973 1412.16 506.314C1412.11 507.427 1411.91 507.564 1411.58 506.723C1411.3 506.026 1411.83 503.465 1412.76 501.03L1414.45 496.605L1410.23 492.893C1402.74 486.298 1403.05 486.398 1395.05 488.058L1387.92 489.538L1385.16 486.455L1382.41 483.373L1372.24 487.853C1358.28 494.002 1354.87 493.305 1354.82 484.297C1354.81 481.303 1354.42 481.229 1346.86 482.748C1342.98 483.527 1341.05 484.47 1339.98 486.098C1338.07 489.013 1336.81 488.972 1336.06 485.972C1335.25 482.752 1333.23 482.948 1327.36 486.815L1322.45 490.052L1318.87 485.855C1316.03 482.521 1315.02 481.883 1313.97 482.755C1313.24 483.358 1312.53 483.682 1312.38 483.476C1312.14 483.131 1309.98 477.856 1307.75 472.167C1306.87 469.909 1306.65 470.042 1299.24 477.41C1294.11 482.512 1291.64 485.69 1291.64 487.185V489.4L1289.02 486.968C1285.9 484.076 1286.79 484.133 1279.47 486.359L1273.53 488.167L1276.77 481.728L1280.01 475.29L1277.79 471.371C1275.9 468.041 1275.75 467.186 1276.81 465.679C1277.49 464.705 1278.2 462.89 1278.38 461.647C1278.69 459.601 1277.9 459.078 1270.05 456.108L1261.37 452.83L1257.81 445.621L1254.24 438.412L1255.95 430.808L1257.66 423.205L1263.99 419.442L1270.32 415.68L1273.4 407.15L1276.47 398.62L1281.33 400.465C1284 401.479 1286.5 401.963 1286.89 401.541C1287.29 401.119 1287.78 397.896 1287.99 394.379C1288.35 388.331 1288.72 387.464 1294.81 378.405L1301.25 368.827L1297.55 364.818L1293.84 360.808L1290.02 364.909C1284.85 370.452 1284.04 368.33 1288.87 361.9C1291.01 359.06 1295.28 353.254 1298.37 348.996L1303.99 341.254L1302.59 336.6L1301.19 331.945L1305.15 327.906L1309.11 323.868L1304.2 321.378L1299.28 318.887L1301.68 314.151C1303 311.546 1304.08 308.282 1304.08 306.897V304.378L1309.92 305.056L1315.76 305.734L1315.42 301.01C1315.18 297.624 1315.63 295.273 1317 292.701L1318.92 289.114L1315.86 286.37C1313.38 284.142 1313.11 283.558 1314.42 283.265C1315.32 283.067 1317.75 283.483 1319.83 284.19C1325.41 286.082 1326.1 285.449 1326.1 278.416V272.308L1322.18 270.771L1318.27 269.233L1320.44 265.36C1322.5 261.706 1322.87 261.488 1327.05 261.488H1331.49L1333.58 256.444C1334.73 253.67 1335.67 251.1 1335.67 250.735C1335.67 249.795 1324.01 234.676 1323.31 234.721C1323 234.742 1318.87 236.637 1314.13 238.931L1305.52 243.104L1304.21 240.661C1303.19 238.748 1303.14 237.449 1303.97 234.666C1305.65 229.06 1305.4 228.6 1298.8 225.245L1292.56 222.073L1284.68 223.705C1280.35 224.602 1276.37 225.389 1275.85 225.453C1275.32 225.518 1270.69 224.981 1265.56 224.261L1256.23 222.95V219.826C1256.23 216.77 1256 216.601 1245.94 212.204C1240.28 209.73 1231.82 205.935 1227.15 203.768L1218.65 199.829L1219.12 188.447L1219.59 177.066L1208.96 166.217L1198.32 155.368L1191.95 154.753L1185.58 154.138L1181.9 159.434L1178.22 164.73L1173.78 164.178L1169.34 163.626L1165.27 170.676C1163.03 174.553 1161.08 177.859 1160.95 178.024C1160.82 178.188 1154.29 176.141 1146.42 173.477C1138.56 170.812 1131.88 168.631 1131.58 168.631C1131.27 168.631 1130.72 170.811 1130.36 173.476L1129.69 178.32L1119.5 177.931C1113.9 177.717 1107.47 176.955 1105.23 176.236C1101.63 175.084 1100.62 175.124 1096.72 176.571C1093.39 177.807 1091.97 177.945 1090.99 177.134C1089.32 175.749 1089.35 174.143 1091.19 167.157C1092.01 164.019 1093.04 159.587 1093.47 157.309L1094.26 153.166L1084.84 146.953L1075.42 140.74L1071.02 143.438C1068.6 144.921 1065.67 146.727 1064.5 147.452C1062.62 148.614 1061.79 148.502 1057.46 146.495C1052.12 144.024 1051.44 142.543 1051.42 133.42C1051.41 129.737 1050.44 128.026 1041.93 116.541C1036.72 109.512 1031.74 102.675 1030.87 101.348C1029.34 99.0073 1029.44 98.6225 1034.28 88.5508C1037.59 81.6622 1039.23 77.0395 1039.17 74.8166C1039.11 72.9738 1037.14 66.5122 1034.79 60.4573C1030.81 50.2277 1030.32 49.4313 1027.8 49.2015C1016.99 48.2184 1017.3 48.3878 1014.83 42.2152L1012.55 36.5107L1005.88 43.4587C996.189 53.5466 996.503 52.9857 998.231 57.125C999.044 59.0692 999.466 61.0537 999.169 61.5333C998.137 63.2057 968.935 96.3575 968.281 96.6007C967.919 96.7357 964.459 93.6608 960.592 89.7676L953.563 82.6894L948.908 85.5842L944.251 88.4781L940.945 85.9556C939.125 84.5676 936.806 83.4322 935.791 83.4322C934.162 83.4322 933.866 82.4634 933.277 75.2139C932.731 68.4775 932.889 66.5715 934.149 64.6464C935.386 62.7586 937.468 50.8203 937.502 45.4231C937.507 44.7894 935.968 43.9805 934.084 43.6272C931.77 43.1936 930.32 42.2401 929.613 40.6903C928.323 37.8576 913.813 27.8645 911.189 28.0014C910.136 28.056 906.966 29.0266 904.145 30.1591ZM910.697 84.0344C910.69 83.4399 910.408 81.9207 910.07 80.658C909.477 78.44 909.597 78.3806 913.673 78.8803C915.992 79.1646 920.473 80.5958 923.631 82.0585L929.374 84.7198L922.674 86.0016C915.762 87.3236 910.727 86.4965 910.697 84.0344Z" fill="#F7F9F9"/>
</g>
<path d="M987.349 564L993.091 568.79L994.527 581.723L1001.23 588.908V594.177L1013.19 604.715L1022.28 623.396L1022.76 635.85L1035.68 637.287L1043.33 652.136L1059.6 646.867L1052.42 654.052L1056.73 664.111L1062.47 661.237L1062.95 668.422L1069.65 675.607L1073 668.901L1079.22 667.464L1095.49 693.809L1095.01 702.431L1090.7 705.305L1095.97 716.322L1115.11 718.238L1112.24 730.213L1120.85 737.877L1141.9 723.507L1147.65 728.776L1153.87 725.423L1157.69 728.297L1162 736.44L1152.91 746.978L1158.65 754.163L1142.38 764.222L1137.12 770.928L1139.99 774.281L1147.65 767.575L1157.22 770.449L1159.13 786.735L1118.94 816.912L1114.63 811.643L1100.75 817.391L1107.45 823.139L1096.92 829.366L1090.7 824.576L1082.57 831.76L1094.53 832.719L1099.32 837.987L1098.84 850.92L1115.59 871.517L1111.76 881.576L1100.75 882.534L1111.28 892.593L1109.84 898.82L1094.05 897.383L1092.62 904.089L1062.95 908.879L1049.08 904.568L1032.33 907.921L1028.02 892.593L1024.19 901.215L1027.06 917.98L1017.97 934.266L1008.88 942.888L1002.66 939.056L998.833 948.157L993.091 949.115L1008.4 969.712L1005.05 976.897L1013.19 982.166L1023.24 976.897L1038.07 988.872L1042.85 991.267V1006.12L1050.03 1014.74L1030.89 1020.49L1018.93 1031.5L1027.06 1039.65L1018.93 1046.83H1013.19V1051.62L999.79 1059.76L997.876 1075.09L993.091 1091.38H983.522L972.516 1100L954.333 1098.08L946.199 1096.65L950.984 1081.8H957.683L951.941 1077.49V1066.95L948.113 1065.03L941.892 1051.62H949.07L959.118 1024.8L955.769 1014.74L946.199 1009.95L939.5 996.057L935.672 1000.85L921.317 994.141V980.25L929.452 969.712L931.366 948.636L939.5 947.678L939.021 939.535L931.366 935.224V925.165L939.021 923.728L938.065 904.089H944.285L952.419 916.064L950.505 891.635L961.032 881.097L953.855 881.576L952.419 873.912H935.672L929.452 863.374L922.753 873.912L908.398 882.534L903.134 897.383L883.516 908.4L875.86 931.392H882.559L878.253 947.199L879.21 969.712L856.242 976.897H837.102L828.968 988.872H819.398L809.828 1000.37H794.038L786.86 1006.12L776.333 1004.68L780.161 996.536L767.72 971.149L766.285 936.182L759.586 923.728L756.237 895.467L763.892 889.719L757.672 874.391L748.102 866.248L759.586 852.836V836.072L762.935 825.534L750.973 817.391L739.011 825.534L717 811.164L739.011 792.004L761.022 784.34V771.886L789.731 776.676L793.081 765.18H805.043L814.134 773.323L839.973 766.617L835.667 736.919L843.801 729.255L837.581 721.591L843.801 715.364L850.5 701.473H840.93L831.839 687.582L840.93 672.254L838.059 660.758L827.054 658.842V645.909L833.274 642.077L831.839 621.48L844.758 612.858L859.591 619.085L873.468 612.858L864.855 606.152L863.898 591.303L871.075 588.908L884.473 598.009V592.261L893.086 586.034L898.828 600.404L906.484 593.219L913.661 592.74L918.446 600.404L924.667 588.429H931.366L957.204 579.807L962.946 576.454L972.038 577.412L978.737 564.958L987.349 564Z" fill="#B2E4E4" stroke="#E4FBFB"/>
<path d="M644.735 541.215L639 528.273L659.551 521.083V514.372H666.719L680.101 528.273H687.748L701.608 538.818L708.777 532.107L720.247 534.025L728.371 519.645H736.496L733.151 515.331L736.974 512.455L744.143 523H752.745V513.413L770.429 511.975L787.634 498.554H800.06L801.016 507.661L812.486 516.289L814.397 507.661L829.691 503.826L838.771 493.281L842.595 507.182L856.932 505.264L862.19 496.636L854.543 485.612L856.932 479.86L857.888 469.793L867.447 476.025L887.997 476.504L898.99 465L917.629 471.231L923.364 484.653H933.4V490.884H954.906L959.208 484.653L963.987 488.008V501.43L971.156 505.264L988.361 490.884H998.397L1007 499.992V510.537H998.397V523.479H1004.61L1007 533.545H998.397L1000.31 553.678L996.008 558.95L992.662 569.975L985.016 563.744L977.847 566.14L973.068 577.645H962.075L959.208 581L931.01 589.149H923.364L917.629 601.132L914.283 592.025H906.636L898.99 601.132L893.255 589.149L883.218 592.025V598.736L871.27 589.149L864.579 592.025V608.802L871.27 615.033L860.278 620.306L844.507 615.033L832.081 623.182V631.81L807.706 639L801.016 631.81L789.545 639L792.891 623.182L766.127 617.909H747.966L736.018 631.81V615.033L721.681 608.802L712.6 598.736L701.608 596.339V585.314L683.447 577.645V561.826L674.366 555.595L660.506 577.645L641.868 571.413V549.843L644.735 541.215Z" fill="#B2E4E4" stroke="#B2E4E4"/>
<path d="M1007 499.737L1016.63 505.003L1017.59 516.972L1028.66 527.026L1038.29 528.463L1041.18 522.718L1054.18 531.814L1064.77 533.729L1072.95 530.856L1067.18 523.196V516.972L1089.32 520.324L1093.65 512.664L1094.62 520.324L1102.8 520.803L1109.06 511.227L1122.54 521.76L1122.06 512.664L1136.98 501.652H1149.98L1152.39 500.216L1155.28 507.397L1163.46 515.536L1175.98 515.057L1181.75 510.27L1182.23 503.088L1187.05 507.397L1189.94 514.1L1205.82 502.131L1206.31 493.034L1254.93 473.884L1256.85 462.873L1273.7 460L1275.63 462.873L1272.26 467.181L1277.07 474.842L1269.37 491.119L1279.96 498.78L1292.96 499.737L1301.15 494.949L1313.66 502.131L1322.33 517.451L1339.66 513.142L1350.25 519.366L1360.36 502.61L1353.14 492.556L1362.77 493.992L1380.1 485.374L1386.84 491.119L1401.76 488.247L1412.83 496.865L1409.46 505.482L1410.91 515.536L1415.24 506.918L1425.83 512.185L1436.91 508.834L1444.13 512.185L1452.31 533.25L1463.86 541.389L1471.57 554.316L1462.9 558.146L1469.16 563.412L1467.72 570.115L1471.57 572.987L1474.94 566.285L1493.71 570.594L1500.45 566.763L1506.23 570.115L1495.16 581.605V591.659H1488.42L1478.31 606.022L1469.16 611.288V621.342L1477.83 625.172L1472.05 631.396L1481.2 633.79L1487.94 650.068L1506.71 643.365L1515.86 649.11L1523.08 645.759L1536.56 652.94V669.697L1548.11 673.048L1551 685.017L1546.67 695.071L1550.04 702.731L1538.97 717.573L1548.59 733.372L1560.63 741.032L1564 753.959L1544.74 766.885L1533.19 756.831H1525.49L1514.41 779.333L1519.23 785.557L1486.49 799.92L1482.16 808.537L1468.68 820.028L1476.38 826.73L1480.23 844.923L1460.01 851.626L1461.94 857.85L1459.05 862.637L1465.79 864.552L1467.23 872.691L1458.57 877L1449.42 876.521L1453.27 865.988L1450.87 865.031L1451.83 857.85L1435.94 852.583L1434.5 860.722L1427.28 864.552L1416.69 859.286L1411.87 846.359L1416.69 829.603L1407.06 831.997L1408.5 824.815V787.951L1406.09 764.013L1394.06 759.225V754.916L1383.95 755.395L1376.73 750.607L1371.91 754.916L1344.95 745.341L1342.07 757.31L1349.77 761.619L1341.58 787.951L1355.06 786.993L1350.73 795.611L1327.14 798.483L1324.25 805.665L1322.33 798.962L1305.96 794.653L1300.66 803.75L1288.63 797.526L1301.63 775.503L1288.63 770.237L1286.7 746.298L1291.04 743.426L1290.55 739.117L1268.89 740.553L1252.52 730.978L1235.67 714.222L1221.71 722.839L1208.71 711.828L1204.38 699.38L1188.01 709.913L1170.68 696.029L1162.98 700.338V708.476H1169.24L1173.09 714.222L1159.13 727.627L1154.31 724.754L1148.05 729.542L1141.8 722.839L1120.61 738.638L1111.95 730.021L1115.32 718.052L1095.58 716.137L1090.77 706.083L1094.62 702.731V693.156L1078.25 666.824L1074.4 667.782L1069.1 674.963L1062.84 668.261L1064.29 660.6L1055.62 664.909L1051.29 654.855L1058.51 646.716L1042.62 651.504L1035.4 636.662L1022.89 636.184L1020.96 622.778L1011.81 603.628L1000.74 594.532V589.265L994 582.084V566.763L994.481 559.582L998.814 554.316L997.851 533.729L1007.96 530.856L1005.07 523.675L998.814 523.196V509.791H1006.04L1007 499.737Z" fill="#1AD9D9" stroke="#1AD9D9"/>
<path d="M1006 458.25C1006 443.332 1011.93 429.024 1022.48 418.475C1033.02 407.926 1047.33 402 1062.25 402C1077.17 402 1091.48 407.926 1102.02 418.475C1112.57 429.024 1118.5 443.332 1118.5 458.25C1118.5 495.75 1062.25 552 1062.25 552C1062.25 552 1006 495.75 1006 458.25ZM1038.81 458.25C1038.81 464.466 1041.28 470.427 1045.68 474.823C1050.07 479.218 1056.03 481.688 1062.25 481.688C1068.47 481.688 1074.43 479.218 1078.82 474.823C1083.22 470.427 1085.69 464.466 1085.69 458.25C1085.69 452.034 1083.22 446.073 1078.82 441.677C1074.43 437.282 1068.47 434.812 1062.25 434.812C1056.03 434.812 1050.07 437.282 1045.68 441.677C1041.28 446.073 1038.81 452.034 1038.81 458.25V458.25Z" fill="#646464"/>
<circle cx="952.5" cy="675.5" r="12.5" fill="#646464"/>
<circle cx="970.5" cy="799.5" r="12.5" fill="#646464"/>
<ellipse cx="989.5" cy="891.875" rx="12.5" ry="11.875" fill="#646464"/>
<circle cx="985.5" cy="520.5" r="12.5" fill="#646464"/>
<circle cx="1052.5" cy="643.5" r="12.5" fill="#646464"/>
<circle cx="1255.5" cy="620.5" r="12.5" fill="#646464"/>
<circle cx="1337.5" cy="574.5" r="12.5" fill="#646464"/>
<defs>
<filter id="filter0_d_570_31" x="17" y="12" width="1571" height="1293" filterUnits="userSpaceOnUse" color-interpolation-filters="sRGB">
<feFlood flood-opacity="0" result="BackgroundImageFix"/>
<feColorMatrix in="SourceAlpha" type="matrix" values="0 0 0 0 0 0 0 0 0 0 0 0 0 0 0 0 0 0 127 0" result="hardAlpha"/>
<feOffset dx="3" dy="4"/>
<feGaussianBlur stdDeviation="10"/>
<feComposite in2="hardAlpha" operator="out"/>
<feColorMatrix type="matrix" values="0 0 0 0 0.298039 0 0 0 0 0.286275 0 0 0 0 0.333333 0 0 0 1 0"/>
<feBlend mode="normal" in2="BackgroundImageFix" result="effect1_dropShadow_570_31"/>
<feBlend mode="normal" in="SourceGraphic" in2="effect1_dropShadow_570_31" result="shape"/>
</filter>
</defs>
</svg>
