<svg width="56" height="52" viewBox="0 0 56 52" fill="none" xmlns="http://www.w3.org/2000/svg">
<path d="M46.9996 3.31098e-06C46.8502 0.000275861 46.7028 0.0340138 46.5681 0.0987391C46.4335 0.163464 46.3151 0.257532 46.2216 0.374032L38.2209 10.3748C38.104 10.522 38.0309 10.6992 38.0101 10.886C37.9893 11.0729 38.0215 11.2618 38.1032 11.4312C38.1848 11.6005 38.3125 11.7434 38.4717 11.8435C38.6309 11.9436 38.815 11.9967 39.003 11.9969H42.0032V28.1162C39.1846 28.5017 36.5952 29.8779 34.6987 31.9985H29.0022C28.9349 31.9997 28.8679 32.0077 28.8022 32.0225C28.577 32.0684 28.3745 32.1906 28.2288 32.3684C28.0831 32.5461 28.003 32.7687 28.0022 32.9985V46.9996C28.0022 47.2649 28.1075 47.5192 28.2951 47.7068C28.4826 47.8943 28.737 47.9997 29.0022 47.9997H34.7027C36.9008 50.4479 40.0791 52 43.6214 52C50.2359 52 55.6223 46.6156 55.6223 39.9991C55.6223 38.4006 55.3021 36.8184 54.6807 35.3457C54.0593 33.873 53.1491 32.5396 52.004 31.4244V11.9969H55.0042C55.1917 11.9961 55.3752 11.9425 55.5337 11.8424C55.6922 11.7423 55.8194 11.5996 55.9007 11.4307C55.982 11.2618 56.0143 11.0734 55.9937 10.8871C55.9731 10.7007 55.9005 10.5239 55.7843 10.3768L47.7837 0.376032C47.6897 0.258375 47.5704 0.163451 47.4347 0.0983409C47.2989 0.0332309 47.1502 -0.0003841 46.9996 3.31098e-06ZM47.0036 2.5982L52.9221 9.99677H51.0039C50.7387 9.99677 50.4843 10.1021 50.2968 10.2897C50.1092 10.4772 50.0038 10.7316 50.0038 10.9968V29.8543C48.204 28.7165 46.1318 28.0824 44.0034 28.0182V10.9968C44.0034 10.7316 43.898 10.4772 43.7105 10.2897C43.5229 10.1021 43.2685 9.99677 43.0033 9.99677H41.0852L47.0036 2.5962V2.5982ZM15.0012 15.9972C14.7359 15.9972 14.4815 16.1026 14.294 16.2901C14.1064 16.4777 14.0011 16.7321 14.0011 16.9973V46.9996C14.0011 47.2649 14.1064 47.5192 14.294 47.7068C14.4815 47.8943 14.7359 47.9997 15.0012 47.9997H23.0018C23.267 47.9997 23.5214 47.8943 23.7089 47.7068C23.8965 47.5192 24.0018 47.2649 24.0018 46.9996V16.9973C24.0018 16.7321 23.8965 16.4777 23.7089 16.2901C23.5214 16.1026 23.267 15.9972 23.0018 15.9972H15.0012ZM16.0012 17.9974H22.0017V45.9995H16.0012V17.9974ZM1.00008 23.9978C0.73484 23.9978 0.480467 24.1032 0.292916 24.2908C0.105365 24.4783 0 24.7327 0 24.9979V46.9996C0 47.2649 0.105365 47.5192 0.292916 47.7068C0.480467 47.8943 0.73484 47.9997 1.00008 47.9997H9.00069C9.26593 47.9997 9.5203 47.8943 9.70785 47.7068C9.8954 47.5192 10.0008 47.2649 10.0008 46.9996V24.9979C10.0008 24.7327 9.8954 24.4783 9.70785 24.2908C9.5203 24.1032 9.26593 23.9978 9.00069 23.9978H1.00008ZM2.00015 25.998H8.00062V45.9995H2.00015V25.998ZM43.6214 29.9983C49.1558 29.9983 53.6221 34.4647 53.6221 39.9991C53.6221 45.5335 49.1558 49.9998 43.6214 49.9998C38.0849 49.9998 33.6206 45.5335 33.6206 39.9991C33.6206 34.4647 38.0849 29.9983 43.6214 29.9983ZM43.0533 31.9985V33.8506C42.5513 33.9106 42.0972 34.0346 41.6912 34.2126C41.2832 34.3926 40.9351 34.6247 40.6471 34.9047C40.3671 35.1847 40.1471 35.5147 39.9911 35.8968C39.8431 36.2788 39.7711 36.7028 39.7711 37.1629C39.7711 37.6629 39.8571 38.1029 40.0271 38.483C40.2031 38.865 40.4551 39.203 40.7811 39.495C41.1132 39.7871 41.5132 40.0411 41.9812 40.2611C42.4533 40.4751 42.9853 40.6611 43.5774 40.8231C44.0214 40.9692 44.3994 41.1232 44.7114 41.2812C45.0295 41.4372 45.2795 41.6072 45.4715 41.7912C45.6715 41.9772 45.8175 42.1772 45.9055 42.3913C45.996 42.6128 46.0416 42.85 46.0395 43.0893C46.0395 43.3913 45.9855 43.6694 45.8755 43.9174C45.7627 44.1594 45.5949 44.3717 45.3855 44.5374C45.1795 44.7074 44.9195 44.8374 44.6094 44.9335C43.993 45.1058 43.3423 45.1148 42.7213 44.9595C42.4413 44.8875 42.1852 44.7594 41.9572 44.5734C41.7148 44.3713 41.5242 44.1141 41.4012 43.8234C41.2492 43.4463 41.1776 43.0416 41.1912 42.6353H39.237C39.237 43.2713 39.337 43.8154 39.537 44.2694C39.7371 44.7174 40.0071 45.0935 40.3391 45.3895C40.6808 45.6875 41.0758 45.9182 41.5032 46.0695C41.9392 46.2276 42.3893 46.3316 42.8553 46.3816V47.9997H44.3974V46.3816C44.9535 46.3256 45.4495 46.2156 45.8935 46.0455C46.3376 45.8775 46.7156 45.6515 47.0276 45.3715C47.3376 45.0915 47.5797 44.7594 47.7497 44.3774C47.9197 43.9914 48.0037 43.5574 48.0037 43.0733C48.0037 42.5793 47.9237 42.1452 47.7617 41.7692C47.596 41.3888 47.3497 41.0489 47.0396 40.7731C46.6878 40.465 46.2913 40.2121 45.8635 40.0231C45.3432 39.7855 44.8048 39.5895 44.2534 39.437C43.8431 39.3094 43.4422 39.1537 43.0533 38.971C42.7749 38.8336 42.5154 38.6608 42.2812 38.457C42.0944 38.2967 41.9461 38.0964 41.8472 37.8709C41.686 37.3716 41.686 36.8341 41.8472 36.3348C41.9309 36.0961 42.0684 35.88 42.2491 35.7031C42.4299 35.5262 42.6489 35.3933 42.8893 35.3147C43.1493 35.2207 43.4533 35.1747 43.8094 35.1747C44.1494 35.1747 44.4514 35.2367 44.7174 35.3667C44.9794 35.4919 45.2082 35.6769 45.3855 35.9068C45.5655 36.1348 45.6955 36.4068 45.7855 36.7208C45.8815 37.0368 45.9295 37.3849 45.9295 37.7609H47.8697C47.8697 36.6208 47.5857 35.7208 47.0156 35.0647C46.4536 34.4027 45.6555 33.9986 44.6214 33.8586V31.9985H43.0533ZM30.0023 33.9986H33.2426C32.1809 35.8202 31.6216 37.8909 31.622 39.9993C31.6223 42.1078 32.1823 44.1783 33.2446 45.9995H30.0023V33.9986Z" fill="#41B8B8"/>
</svg>
