<svg width="21" height="20" viewBox="0 0 21 20" fill="none" xmlns="http://www.w3.org/2000/svg">
<path fill-rule="evenodd" clip-rule="evenodd" d="M10.2469 10C12.7633 10 14.8011 8.01133 14.8011 5.55556C14.8011 3.09978 12.7633 1.11111 10.2469 1.11111C7.73051 1.11111 5.69274 3.09978 5.69274 5.55556C5.69274 8.01133 7.73051 10 10.2469 10ZM15.9397 5.55556C15.9397 8.625 13.3922 11.1111 10.2469 11.1111C7.10169 11.1111 4.55419 8.625 4.55419 5.55556C4.55419 2.48611 7.10169 0 10.2469 0C13.3922 0 15.9397 2.48611 15.9397 5.55556ZM1.83504 15.6733C1.264 16.1228 1.13855 16.4606 1.13855 16.6667V18.8889H19.3553V16.6667C19.3553 16.4606 19.2298 16.1228 18.6588 15.6733C18.1005 15.2337 17.2684 14.8149 16.2597 14.4528C14.2432 13.7287 11.8142 13.3333 10.2469 13.3333C8.6796 13.3333 6.25068 13.7287 4.23414 14.4528C3.22545 14.8149 2.39334 15.2337 1.83504 15.6733ZM10.2469 12.2222C6.82701 12.2222 0 13.9082 0 16.6667V20H20.4938V16.6667C20.4938 13.9082 13.6668 12.2222 10.2469 12.2222Z" fill="#646464"/>
</svg>
