<svg width="30" height="20" viewBox="0 0 30 20" fill="none" xmlns="http://www.w3.org/2000/svg">
<path fill-rule="evenodd" clip-rule="evenodd" d="M1.82983 4.99992C1.82983 4.7698 2.10291 4.58325 2.43977 4.58325H26.8372C27.174 4.58325 27.4471 4.7698 27.4471 4.99992V10.8333C27.4471 11.0434 27.2181 11.2207 26.9128 11.2467L17.1539 12.08L17.0026 11.2532L26.2273 10.4654V5.41659H3.04971V10.4654L12.2744 11.2532L12.1231 12.08L2.36411 11.2467C2.05889 11.2207 1.82983 11.0434 1.82983 10.8333V4.99992Z" fill="#646464"/>
<path fill-rule="evenodd" clip-rule="evenodd" d="M11.5888 9.58325C11.5888 9.35317 11.8618 9.16658 12.1987 9.16658H17.0782C17.415 9.16658 17.6881 9.35317 17.6881 9.58325V13.7499C17.6881 13.98 17.415 14.1666 17.0782 14.1666H12.1987C11.8618 14.1666 11.5888 13.98 11.5888 13.7499V9.58325ZM12.8086 9.99992V13.3333H16.4683V9.99992H12.8086ZM10.3689 3.74992C10.3689 2.82944 11.4612 2.08325 12.8086 2.08325H16.4683C17.8157 2.08325 18.908 2.82944 18.908 3.74992V4.99992H17.6881V3.74992C17.6881 3.28969 17.142 2.91659 16.4683 2.91659H12.8086C12.1349 2.91659 11.5888 3.28969 11.5888 3.74992V4.99992H10.3689V3.74992Z" fill="#646464"/>
<path fill-rule="evenodd" clip-rule="evenodd" d="M3.04968 17.5V11.25H4.26955V17.0833H25.0074V11.25H26.2272V17.5C26.2272 17.7301 25.9541 17.9167 25.6173 17.9167H3.65962C3.32276 17.9167 3.04968 17.7301 3.04968 17.5Z" fill="#646464"/>
</svg>
