<svg width="50" height="50" viewBox="0 0 50 50" fill="none" xmlns="http://www.w3.org/2000/svg">
<path d="M28.5156 23.4375H26.1719C25.9375 23.4375 25.7812 23.2812 25.7812 23.0469V19.1406C25.7812 18.9062 25.9375 18.75 26.1719 18.75H28.5156C28.75 18.75 28.9062 18.9062 28.9062 19.1406V23.0469C28.9062 23.2812 28.75 23.4375 28.5156 23.4375ZM26.5625 22.6562H28.125V19.5312H26.5625V22.6562Z" fill="#41B8B8"/>
<path d="M30.8594 23.4375H28.5156C28.2812 23.4375 28.125 23.2812 28.125 23.0469V14.4531C28.125 14.2187 28.2812 14.0625 28.5156 14.0625H30.8594C31.0938 14.0625 31.25 14.2187 31.25 14.4531V23.0469C31.25 23.2812 31.0938 23.4375 30.8594 23.4375ZM28.9062 22.6562H30.4688V14.8438H28.9062V22.6562ZM35.5469 23.4375H33.2031C32.9688 23.4375 32.8125 23.2812 32.8125 23.0469V16.0156C32.8125 15.7812 32.9688 15.625 33.2031 15.625H35.5469C35.7812 15.625 35.9375 15.7812 35.9375 16.0156V23.0469C35.9375 23.2812 35.7812 23.4375 35.5469 23.4375ZM33.5938 22.6562H35.1562V16.4062H33.5938V22.6562Z" fill="#41B8B8"/>
<path d="M37.8906 23.4375H35.5469C35.3125 23.4375 35.1562 23.2812 35.1562 23.0469V8.98438C35.1562 8.75 35.3125 8.59375 35.5469 8.59375H37.8906C38.125 8.59375 38.2812 8.75 38.2812 8.98438V23.0469C38.2812 23.2812 38.125 23.4375 37.8906 23.4375ZM35.9375 22.6562H37.5V9.375H35.9375V22.6562ZM42.5781 23.4375H40.2344C40 23.4375 39.8438 23.2812 39.8438 23.0469V6.64062C39.8438 6.40625 40 6.25 40.2344 6.25H42.5781C42.8125 6.25 42.9688 6.40625 42.9688 6.64062V23.0469C42.9688 23.2812 42.8125 23.4375 42.5781 23.4375ZM40.625 22.6562H42.1875V7.03125H40.625V22.6562Z" fill="#41B8B8"/>
<path d="M44.9219 23.4375H42.5781C42.3437 23.4375 42.1875 23.2812 42.1875 23.0469V9.76562C42.1875 9.53125 42.3437 9.375 42.5781 9.375H44.9219C45.1562 9.375 45.3125 9.53125 45.3125 9.76562V23.0469C45.3125 23.2812 45.1562 23.4375 44.9219 23.4375ZM42.9688 22.6562H44.5312V10.1562H42.9688V22.6562Z" fill="#41B8B8"/>
<path d="M46.4844 23.4375H23.0469C22.8125 23.4375 22.6562 23.2812 22.6562 23.0469C22.6562 22.8125 22.8125 22.6562 23.0469 22.6562H46.4844C46.7188 22.6562 46.875 22.8125 46.875 23.0469C46.875 23.2812 46.7188 23.4375 46.4844 23.4375ZM41.0156 25.7812H28.5156C28.2812 25.7812 28.125 25.625 28.125 25.3906C28.125 25.1562 28.2812 25 28.5156 25H41.0156C41.25 25 41.4062 25.1562 41.4062 25.3906C41.4062 25.625 41.25 25.7812 41.0156 25.7812ZM41.0156 33.5938H29.2969C29.0625 33.5938 28.9062 33.4375 28.9062 33.2031C28.9062 32.9688 29.0625 32.8125 29.2969 32.8125H41.0156C41.25 32.8125 41.4062 32.9688 41.4062 33.2031C41.4062 33.4375 41.25 33.5938 41.0156 33.5938ZM41.0156 32.0312H29.2969C29.0625 32.0312 28.9062 31.875 28.9062 31.6406C28.9062 31.4062 29.0625 31.25 29.2969 31.25H41.0156C41.25 31.25 41.4062 31.4062 41.4062 31.6406C41.4062 31.875 41.25 32.0312 41.0156 32.0312ZM41.0156 38.2812H29.2969C29.0625 38.2812 28.9062 38.125 28.9062 37.8906C28.9062 37.6562 29.0625 37.5 29.2969 37.5H41.0156C41.25 37.5 41.4062 37.6562 41.4062 37.8906C41.4062 38.125 41.25 38.2812 41.0156 38.2812ZM41.0156 36.7188H29.2969C29.0625 36.7188 28.9062 36.5625 28.9062 36.3281C28.9062 36.0938 29.0625 35.9375 29.2969 35.9375H41.0156C41.25 35.9375 41.4062 36.0938 41.4062 36.3281C41.4062 36.5625 41.25 36.7188 41.0156 36.7188ZM41.0156 41.4062H29.2969C29.0625 41.4062 28.9062 41.25 28.9062 41.0156C28.9062 40.7812 29.0625 40.625 29.2969 40.625H41.0156C41.25 40.625 41.4062 40.7812 41.4062 41.0156C41.4062 41.25 41.25 41.4062 41.0156 41.4062ZM41.0156 42.9688H29.2969C29.0625 42.9688 28.9062 42.8125 28.9062 42.5781C28.9062 42.3438 29.0625 42.1875 29.2969 42.1875H41.0156C41.25 42.1875 41.4062 42.3438 41.4062 42.5781C41.4062 42.8125 41.25 42.9688 41.0156 42.9688ZM23.8281 11.875C23.5938 11.875 23.4375 11.7188 23.4375 11.4844V6.64062C23.4375 6.40625 23.5938 6.25 23.8281 6.25C24.0625 6.25 24.2188 6.40625 24.2188 6.64062V11.4844C24.2188 11.6406 24.0625 11.875 23.8281 11.875Z" fill="#41B8B8"/>
<path d="M23.8281 24.2188C23.5938 24.2188 23.4375 24.0625 23.4375 23.8281V15.625C23.4375 15.3906 23.5938 15.2344 23.8281 15.2344C24.0625 15.2344 24.2188 15.3906 24.2188 15.625V23.8281C24.2188 24.0625 24.0625 24.2188 23.8281 24.2188ZM9.76562 46.875C9.53125 46.875 9.375 46.7188 9.375 46.4844V37.1094C9.375 36.875 9.53125 36.7188 9.76562 36.7188C10 36.7188 10.1562 36.875 10.1562 37.1094V46.4844C10.1562 46.7188 10 46.875 9.76562 46.875ZM10.1562 18.75C7.57812 18.75 5.46875 16.6406 5.46875 14.0625C5.46875 11.4844 7.57812 9.375 10.1562 9.375C12.7344 9.375 14.8438 11.4844 14.8438 14.0625C14.8438 16.6406 12.7344 18.75 10.1562 18.75ZM10.1562 10.1562C7.96875 10.1562 6.25 11.875 6.25 14.0625C6.25 16.25 7.96875 17.9688 10.1562 17.9688C12.3438 17.9688 14.0625 16.25 14.0625 14.0625C14.0625 11.875 12.3438 10.1562 10.1562 10.1562ZM26.9531 33.5938H24.6094C24.375 33.5938 24.2188 33.4375 24.2188 33.2031V30.8594C24.2188 30.625 24.375 30.4688 24.6094 30.4688H26.9531C27.1875 30.4688 27.3438 30.625 27.3438 30.8594V33.2031C27.3438 33.4375 27.1875 33.5938 26.9531 33.5938ZM25 32.8125H26.5625V31.25H25V32.8125ZM26.9531 38.2812H24.6094C24.375 38.2812 24.2188 38.125 24.2188 37.8906V35.5469C24.2188 35.3125 24.375 35.1562 24.6094 35.1562H26.9531C27.1875 35.1562 27.3438 35.3125 27.3438 35.5469V37.8906C27.3438 38.125 27.1875 38.2812 26.9531 38.2812ZM25 37.5H26.5625V35.9375H25V37.5ZM26.9531 42.9688H24.6094C24.375 42.9688 24.2188 42.8125 24.2188 42.5781V40.2344C24.2188 40 24.375 39.8438 24.6094 39.8438H26.9531C27.1875 39.8438 27.3438 40 27.3438 40.2344V42.5781C27.3438 42.8125 27.1875 42.9688 26.9531 42.9688ZM25 42.1875H26.5625V40.625H25V42.1875Z" fill="#41B8B8"/>
<path d="M11.4062 46.875H8.04688C7.03125 46.875 6.17188 46.0937 6.09375 45.0781L5.54688 35.5469C5.46875 35.3125 5.3125 35.1562 5.07812 35.1562C3.98438 35.1562 3.125 34.2969 3.125 33.2031V23.8281C3.125 21.875 4.6875 20.3125 6.64062 20.3125H14.375L23.125 11.4844C23.75 10.8594 24.7656 10.7812 25.3906 11.3281C26.0938 11.9531 26.25 12.9687 25.7031 13.6719L16.4062 26.0937V33.2031C16.4062 34.2969 15.5469 35.1562 14.4531 35.1562C14.2188 35.1562 14.0625 35.3125 13.9844 35.5469L13.3594 45C13.2812 46.0937 12.4219 46.875 11.4062 46.875ZM6.64062 21.0937C5.15625 21.0937 3.90625 22.3437 3.90625 23.8281V33.2031C3.90625 33.8281 4.45312 34.375 5.07812 34.375C5.70312 34.375 6.25 34.8437 6.32813 35.5469L6.95312 45C7.03125 45.625 7.5 46.0937 8.125 46.0937H11.4844C12.1094 46.0937 12.5781 45.625 12.6563 45L13.2812 35.5469C13.3594 34.9219 13.8281 34.375 14.5312 34.375C15.1562 34.375 15.7031 33.8281 15.7031 33.2031V25.9375C15.7031 25.8594 15.7031 25.7812 15.7813 25.7031L25.1562 13.2812C25.4688 12.8906 25.3906 12.3437 25 12.0312C24.6094 11.7187 24.0625 11.7187 23.75 12.1094L14.7656 21.0156C14.6875 21.0937 14.6094 21.0937 14.4531 21.0937H6.64062Z" fill="#41B8B8"/>
<path d="M10.1564 26.5625C10.0001 26.5625 9.84388 26.4844 9.76576 26.3281L7.81263 20.8594C7.73451 20.7031 7.81263 20.625 7.89076 20.4688C7.96888 20.3906 8.04701 20.3125 8.20326 20.3125H12.1095C12.2658 20.3125 12.3439 20.3906 12.422 20.4688C12.5001 20.5469 12.5001 20.7031 12.5001 20.8594L10.547 26.3281C10.4689 26.4844 10.3126 26.5625 10.1564 26.5625ZM8.75013 21.0938L10.1564 25L11.5626 21.0938H8.75013Z" fill="#41B8B8"/>
</svg>
