<svg width="50" height="50" viewBox="0 0 50 50" fill="none" xmlns="http://www.w3.org/2000/svg">
<path d="M45.3855 4.64829C42.8567 2.08301 39.5181 0.471946 35.9365 0.0886095C32.3549 -0.294727 28.7509 0.573293 25.7366 2.5453C22.7222 4.5173 20.4832 7.47175 19.3998 10.907C18.3163 14.3423 18.4551 18.0467 19.7926 21.3913L1.55208 39.7254C-0.361411 41.6805 0.0337654 43.2716 0.0337654 48.9601C0.0337654 49.2359 0.14333 49.5004 0.338356 49.6954C0.533383 49.8904 0.797895 50 1.0737 50H8.87324C9.21466 50 9.55273 49.9328 9.86816 49.8021C10.1836 49.6714 10.4702 49.4799 10.7116 49.2385C10.953 48.9971 11.1445 48.7105 11.2752 48.3951C11.4058 48.0796 11.4731 47.7416 11.4731 47.4002C11.4731 47.2622 11.5279 47.13 11.6254 47.0325C11.7229 46.935 11.8552 46.8802 11.9931 46.8802H13.033C13.7225 46.8802 14.3838 46.6063 14.8714 46.1187C15.3589 45.6311 15.6328 44.9699 15.6328 44.2803C15.6328 41.6181 15.3105 42.4292 16.9536 40.7965C17.1512 40.5886 17.1511 40.6406 19.2726 40.6406C19.9621 40.6406 20.6234 40.3666 21.111 39.8791C21.5986 39.3915 21.8725 38.7302 21.8725 38.0407V36.0856C21.8725 35.784 21.5293 36.2208 27.8105 29.9396C27.9353 29.8044 27.6337 29.8044 28.6633 30.1996C30.4745 30.9148 32.4044 31.2817 34.3517 31.2811C48.3181 31.2811 55.1505 14.3717 45.3855 4.64829ZM19.7926 38.0407C19.7926 38.6959 19.2206 38.5607 17.3175 38.5607C16.028 38.5607 15.4872 39.3094 14.3121 40.4846C12.7314 42.0653 14.2601 44.8003 13.033 44.8003H11.9931C11.3035 44.8003 10.6423 45.0742 10.1547 45.5618C9.66712 46.0493 9.39321 46.7106 9.39321 47.4002C9.39321 47.5381 9.33843 47.6703 9.24092 47.7678C9.1434 47.8653 9.01115 47.9201 8.87324 47.9201H2.11364V43.3964C2.11364 41.5973 1.73926 42.4812 20.8325 23.3776C21.3556 24.2894 21.9688 25.1464 22.6628 25.9358L6.05501 42.502C5.90835 42.6475 5.80832 42.8333 5.76769 43.0359C5.72706 43.2384 5.74767 43.4484 5.82688 43.6392C5.90609 43.83 6.04031 43.9928 6.21244 44.107C6.38457 44.2212 6.58681 44.2815 6.79336 44.2803C7.40693 44.2803 6.07581 45.4347 24.0979 27.4125C24.6846 27.9314 25.3104 28.4042 25.9698 28.8269C19.075 35.732 19.7926 34.2241 19.7926 38.0407ZM43.9088 25.2391C42.0183 27.1305 39.6095 28.4187 36.9868 28.9409C34.3642 29.4632 31.6455 29.1958 29.1748 28.1728C26.7041 27.1498 24.5923 25.417 23.1064 23.1936C21.6206 20.9703 20.8276 18.3562 20.8276 15.682C20.8276 13.0079 21.6206 10.3938 23.1064 8.17044C24.5923 5.94707 26.7041 4.21428 29.1748 3.19125C31.6455 2.16822 34.3642 1.9009 36.9868 2.42312C39.6095 2.94533 42.0183 4.2336 43.9088 6.125C46.4426 8.66014 47.866 12.0977 47.866 15.682C47.866 19.2663 46.4426 22.7039 43.9088 25.2391Z" fill="#41B8B8"/>
<path d="M39.5514 6.32251C38.7286 6.32251 37.9244 6.56647 37.2403 7.02355C36.5563 7.48063 36.0231 8.1303 35.7082 8.89039C35.3934 9.65049 35.311 10.4869 35.4715 11.2938C35.632 12.1007 36.0282 12.8419 36.61 13.4237C37.1917 14.0054 37.9329 14.4016 38.7398 14.5621C39.5467 14.7226 40.3831 14.6402 41.1432 14.3254C41.9033 14.0105 42.553 13.4774 43.0101 12.7933C43.4671 12.1092 43.7111 11.305 43.7111 10.4823C43.7111 9.37903 43.2729 8.32098 42.4927 7.54087C41.7126 6.76077 40.6546 6.32251 39.5514 6.32251ZM39.5514 12.5621C39.14 12.5621 38.7379 12.4402 38.3958 12.2116C38.0538 11.9831 37.7872 11.6582 37.6298 11.2782C37.4724 10.8981 37.4312 10.48 37.5114 10.0765C37.5917 9.67304 37.7898 9.30244 38.0807 9.01157C38.3715 8.72069 38.7421 8.5226 39.1456 8.44235C39.549 8.3621 39.9672 8.40329 40.3473 8.56071C40.7273 8.71813 41.0522 8.98471 41.2807 9.32675C41.5093 9.66878 41.6312 10.0709 41.6312 10.4823C41.6312 11.0339 41.4121 11.5629 41.0221 11.953C40.632 12.343 40.103 12.5621 39.5514 12.5621Z" fill="#41B8B8"/>
</svg>
