<svg width="52" height="52" viewBox="0 0 52 52" fill="none" xmlns="http://www.w3.org/2000/svg">
<g clip-path="url(#clip0_561_2)">
<path d="M30.8 11.176C30.8843 11.2025 30.9683 11.2298 31.0521 11.2577L30.9854 11.357C30.9242 11.2956 30.8623 11.2353 30.8 11.176ZM31.058 41.5528C30.9722 41.5815 30.8862 41.6094 30.8 41.6365C30.8638 41.5758 30.927 41.5141 30.9897 41.4513L31.058 41.5528ZM21.2 11.176C21.1362 11.2367 21.073 11.2984 21.0103 11.3612L20.942 11.2597C21.0278 11.2311 21.1138 11.2032 21.2 11.176ZM21.2 41.6365C21.1145 41.6096 21.0292 41.5819 20.9443 41.5536L21.0119 41.4529C21.0741 41.5151 21.1368 41.5764 21.2 41.6365Z" stroke="#ffffff" stroke-width="3"/>
<path d="M13.4811 48.5194C13.4801 48.5194 13.4791 48.5194 13.4781 48.5194M13.4811 48.5194C13.4825 48.5194 13.484 48.5194 13.4854 48.5193L13.4781 48.5194M13.4811 48.5194C13.4801 48.5194 13.4791 48.5194 13.4781 48.5194M13.4811 48.5194C13.4826 48.5193 13.4842 48.5193 13.4857 48.5193C13.5291 48.5186 13.5723 48.5132 13.6146 48.5032L13.5764 48.3426L13.4817 47.9436L13.4764 47.9212L13.4781 48.5194" stroke="#ffffff" stroke-width="3"/>
</g>
<defs>
<clipPath id="clip0_561_2">
<rect width="52" height="52" fill="#41B8B8"/>
</clipPath>
</defs>
</svg>
