<svg width="36" height="36" viewBox="0 0 36 36" fill="none" xmlns="http://www.w3.org/2000/svg">
<path d="M21.6823 26.2302L16.5263 31.3862C13.2719 34.6406 7.99559 34.6406 4.74118 31.3862C1.48677 28.1318 1.48677 22.8555 4.74118 19.6011L9.89717 14.4451C10.3039 14.0383 10.3039 13.3787 9.89717 12.972C9.4904 12.5652 8.83079 12.5652 8.42403 12.972L3.26804 18.128C-0.799907 22.1959 -0.799907 28.7914 3.26804 32.8593C7.33599 36.9273 13.9315 36.9273 17.9994 32.8593L23.1554 27.7034C23.5622 27.2966 23.5622 26.637 23.1554 26.2302C22.7487 25.8235 22.089 25.8235 21.6823 26.2302ZM12.1069 24.0205C12.5136 24.4273 13.1732 24.4273 13.58 24.0205L23.892 13.7085C24.2988 13.3018 24.2988 12.6422 23.892 12.2354C23.4852 11.8286 22.8256 11.8286 22.4188 12.2354L12.1069 22.5474C11.7001 22.9541 11.7001 23.6137 12.1069 24.0205ZM17.9994 3.39656L12.8434 8.55255C12.4367 8.95932 12.4367 9.61892 12.8434 10.0257C13.2502 10.4325 13.9098 10.4325 14.3166 10.0257L19.4726 4.8697C22.727 1.61529 28.0033 1.61529 31.2577 4.8697C34.5121 8.12412 34.5121 13.4004 31.2577 16.6548L26.1017 21.8108C25.6949 22.2176 25.6949 22.8772 26.1017 23.2839C26.5085 23.6907 27.1681 23.6907 27.5748 23.2839L32.7308 18.128C36.7988 14.06 36.7988 7.46451 32.7308 3.39656C28.6629 -0.671384 22.0674 -0.671383 17.9994 3.39656Z" fill="#41B8B8"/>
</svg>
