<svg width="139" height="80" viewBox="0 0 139 80" fill="none" xmlns="http://www.w3.org/2000/svg">
<path d="M35.5 4.00017C35.5 2.06715 37.067 0.5 39 0.5H39.1008H39.2016H39.3024H39.4032H39.504H39.6048H39.7056H39.8064H39.9072H40.008H40.1088H40.2096H40.3104H40.4112H40.512H40.6128H40.7136H40.8144H40.9152H41.016H41.1168H41.2176H41.3185H41.4193H41.5201H41.6209H41.7217H41.8225H41.9234H42.0242H42.125H42.2258H42.3267H42.4275H42.5283H42.6291H42.73H42.8308H42.9316H43.0325H43.1333H43.2341H43.335H43.4358H43.5367H43.6375H43.7383H43.8392H43.94H44.0409H44.1417H44.2426H44.3434H44.4443H44.5452H44.646H44.7469H44.8477H44.9486H45.0495H45.1503H45.2512H45.3521H45.453H45.5538H45.6547H45.7556H45.8565H45.9573H46.0582H46.1591H46.26H46.3609H46.4618H46.5627H46.6636H46.7645H46.8654H46.9663H47.0672H47.1681H47.269H47.3699H47.4708H47.5717H47.6726H47.7736H47.8745H47.9754H48.0763H48.1773H48.2782H48.3791H48.4801H48.581H48.6819H48.7829H48.8838H48.9848H49.0857H49.1867H49.2876H49.3886H49.4895H49.5905H49.6915H49.7924H49.8934H49.9944H50.0954H50.1963H50.2973H50.3983H50.4993H50.6003H50.7013H50.8023H50.9033H51.0043H51.1053H51.2063H51.3073H51.4083H51.5093H51.6103H51.7113H51.8123H51.9134H52.0144H52.1154H52.2165H52.3175H52.4185H52.5196H52.6206H52.7217H52.8227H52.9238H53.0248H53.1259H53.227H53.328H53.4291H53.5302H53.6313H53.7323H53.8334H53.9345H54.0356H54.1367H54.2378H54.3389H54.44H54.5411H54.6422H54.7433H54.8444H54.9456H55.0467H55.1478H55.2489H55.3501H55.4512H55.5523H55.6535H55.7546H55.8558H55.957H56.0581H56.1593H56.2604H56.3616H56.4628H56.564H56.6651H56.7663H56.8675H56.9687H57.0699H57.1711H57.2723H57.3735H57.4747H57.576H57.6772H57.7784H57.8796H57.9809H58.0821H58.1833H58.2846H58.3858H58.4871H58.5883H58.6896H58.7909H58.8921H58.9934H59.0947H59.196H59.2972H59.3985H59.4998H59.6011H59.7024H59.8037H59.905H60.0064H60.1077H60.209H60.3103H60.4117H60.513H60.6143H60.7157H60.817H60.9184H61.0198H61.1211H61.2225H61.3239H61.4252H61.5266H61.628H61.7294H61.8308H61.9322H62.0336H62.135H62.2364H62.3378H62.4393H62.5407H62.6421H62.7436H62.845H62.9465H63.0479H63.1494H63.2508H63.3523H63.4538H63.5553H63.6567H63.7582H63.8597H63.9612H64.0627H64.1642H64.2657H64.3673H64.4688H64.5703H64.6718H64.7734H64.8749H64.9765H65.078H65.1796H65.2811H65.3827H65.4843H65.5859H65.6875H65.789H65.8906H65.9922H66.0938H66.1955H66.2971H66.3987H66.5003H66.602H66.7036H66.8052H66.9069H67.0085H67.1102H67.2119H67.3136H67.4152H67.5169H67.6186H67.7203H67.822H67.9237H68.0254H68.1271H68.2289H68.3306H68.4323H68.5341H68.6358H68.7376H68.8393H68.9411H69.0429H69.1446H69.2464H69.3482H69.45H69.5518H69.6536H69.7554H69.8572H69.9591H70.0609H70.1627H70.2646H70.3664H70.4683H70.5701H70.672H70.7739H70.8757H70.9776H71.0795H71.1814H71.2833H71.3852H71.4872H71.5891H71.691H71.7929H71.8949H71.9968H72.0988H72.2007H72.3027H72.4047H72.5067H72.6087H72.7107H72.8127H72.9147H73.0167H73.1187H73.2207H73.3228H73.4248H73.5268H73.6289H73.731H73.833H73.9351H74.0372H74.1393H74.2414H74.3435H74.4456H74.5477H74.6498H74.7519H74.8541H74.9562H75.0583H75.1605H75.2627H75.3648H75.467H75.5692H75.6714H75.7736H75.8758H75.978H76.0802H76.1824H76.2847H76.3869H76.4892H76.5914H76.6937H76.7959H76.8982H77.0005H77.1028H77.2051H77.3074H77.4097H77.512H77.6144H77.7167H77.819H77.9214H78.0237H78.1261H78.2285H78.3309H78.4332H78.5356H78.638H78.7404H78.8429H78.9453H79.0477H79.1502H79.2526H79.3551H79.4575H79.56H79.6625H79.765H79.8675H79.97H80.0725H80.175H80.2775H80.38H80.4826H80.5851H80.6877H80.7902H80.8928H80.9954H81.098H81.2006H81.3032H81.4058H81.5084H81.611H81.7137H81.8163H81.919H82.0216H82.1243H82.227H82.3297H82.4324H82.5351H82.6378H82.7405H82.8432H82.9459H83.0487H83.1514H83.2542H83.357H83.4597H83.5625H83.6653H83.7681H83.8709H83.9737H84.0766H84.1794H84.2822H84.3851H84.488H84.5908H84.6937H84.7966H84.8995H85.0024H85.1053H85.2082H85.3111H85.4141H85.517H85.62H85.7229H85.8259H85.9289H86.0319H86.1349H86.2379H86.3409H86.4439H86.547H86.65H86.7531H86.8561H86.9592H87.0623H87.1654H87.2685H87.3716H87.4747H87.5778H87.6809H87.7841H87.8872H87.9904H88.0936H88.1967H88.2999H88.4031H88.5063H88.6095H88.7128H88.816H88.9192H89.0225H89.1258H89.229H89.3323H89.4356H89.5389H89.6422H89.7455H89.8489H89.9522H90.0555H90.1589H90.2623H90.3656H90.469H90.5724H90.6758H90.7792H90.8827H90.9861H91.0895C93.0226 0.5 94.5897 2.06701 94.5897 3.99998V4.09922V4.19846V4.2977V4.39694V4.49618V4.59543V4.69467V4.79392V4.89316V4.99241V5.09165V5.1909V5.29015V5.3894V5.48865V5.5879V5.68715V5.78641V5.88566V5.98492V6.08418V6.18343V6.28269V6.38195V6.48121V6.58047V6.67974V6.779V6.87827V6.97753V7.0768V7.17607V7.27534V7.37461V7.47389V7.57316V7.67244V7.77171V7.87099V7.97027V8.06955V8.16883V8.26812V8.3674V8.46669V8.56598V8.66527V8.76456V8.86385V8.96315V9.06244V9.16174V9.26104V9.36034V9.45964V9.55894V9.65825V9.75756V9.85686V9.95618V10.0555V10.1548V10.2541V10.3534V10.4528V10.5521V10.6514V10.7507V10.85V10.9494V11.0487V11.148V11.2474V11.3467V11.446V11.5454V11.6447V11.7441V11.8434V11.9428V12.0421V12.1415V12.2408V12.3402V12.4395V12.5389V12.6383V12.7376V12.837V12.9364V13.0357V13.1351V13.2345V13.3339V13.4333V13.5326V13.632V13.7314V13.8308V13.9302V14.0296V14.129V14.2284V14.3278V14.4272V14.5266V14.626V14.7254V14.8248V14.9243V15.0237V15.1231V15.2225V15.322V15.4214V15.5208V15.6203V15.7197V15.8191V15.9186V16.018V16.1175V16.2169V16.3164V16.4158V16.5153V16.6148V16.7142V16.8137V16.9132V17.0126V17.1121V17.2116V17.3111V17.4106V17.5101V17.6096V17.7091V17.8086V17.9081V18.0076V18.1071V18.2066V18.3061V18.4056V18.5051V18.6047V18.7042V18.8037V18.9033V19.0028V19.1023V19.2019V19.3014V19.401V19.5005V19.6001V19.6997V19.7992V19.8988V19.9984V20.0979V20.1975V20.2971V20.3967V20.4963V20.5959V20.6955V20.7951V20.8947V20.9943V21.0939V21.1935V21.2931V21.3927V21.4924V21.592V21.6916V21.7913V21.8909V21.9905V22.0902V22.1898V22.2895V22.3892V22.4888V22.5885V22.6882V22.7878V22.8875V22.9872V23.0869V23.1866V23.2863V23.386V23.4857V23.5854V23.6851V23.7848V23.8845V23.9842V24.084V24.1837V24.2834V24.3832V24.4829V24.5827V24.6824V24.7822V24.8819V24.9817V25.0815V25.1812V25.281V25.3808V25.4806V25.5804V25.6802V25.78V25.8798V25.9796V26.0794V26.1792V26.2791V26.3789V26.4787V26.5786V26.6784V26.7782V26.8781V26.9779V27.0778V27.1777V27.2775V27.3774V27.4773V27.5772V27.6771V27.777V27.8769V27.9768V28.0767V28.1766V28.2765V28.3764V28.4763V28.5763V28.6762V28.7761V28.8761V28.976V29.076V29.176V29.2759V29.3759V29.4759V29.5759V29.6758V29.7758V29.8758V29.9758V30.0758V30.1759V30.2759V30.3759V30.4759V30.576V30.676V30.776V30.8761V30.9762V31.0762V31.1763V31.2764V31.3764V31.4765V31.5766V31.6767V31.7768V31.8769V31.977V32.0771V32.1772V32.2774V32.3775V32.4776V32.5778V32.6779V32.7781V32.8782V32.9784V33.0786V33.1787V33.2789V33.3791V33.4793V33.5795V33.6797V33.7799V33.8801V33.9804V34.0806V34.1808V34.2811V34.3813V34.4816V34.5818V34.6821V34.7824V34.8826V34.9829V35.0832V35.1835V35.2838V35.3841V35.4844V35.5847V35.6851V35.7854V35.8857V35.9861V36.0864V36.1868V36.2872V36.3875V36.4879V36.5883V36.6887V36.7891V36.8895V36.9899V37.0903V37.1907V37.2911V37.3916V37.492V37.5924V37.6929V37.7934V37.8938V37.9943V38.0948V38.1952V38.2957V38.3962V38.4967V38.5972V38.6978V38.7983V38.8988V38.9994V39.0999V39.2005V39.301V39.4016V39.5021V39.6027V39.7033V39.8039V39.9045V40.0051V40.1057V40.2063V40.307V40.4076V40.5082V40.6089V40.7095V40.8102V40.9109V41.0115V41.1122V41.2129V41.3136V41.4143V41.515V41.6157V41.7165V41.8172V41.9179V42.0187V42.1194V42.2202V42.321V42.4217V42.5225V42.6233V42.7241V42.8249V42.9257V43.0266V43.1274V43.2282V43.3291V43.4299V43.5308V43.6316V43.7325V43.8334V43.9343V44.0352V44.1361V44.237V44.3379V44.4388V44.5397V44.6407V44.7416V44.8426V44.9436V45.0445V45.1455V45.2465V45.3475V45.4485V45.5495V45.6505V45.7515V45.8526V45.9536V46.0547V46.1557V46.2568V46.3579V46.459V46.56V46.6611V46.7622V46.8634V46.9645V47.0656V47.1667V47.2679V47.369V47.4702V47.5714V47.6726V47.7737V47.8749V47.9761V48.0774V48.1786V48.2798V48.381V48.4823V48.5835V48.6848V48.7861V48.8873V48.9886V49.0899V49.1912V49.2925V49.3939V49.4952V49.5965V49.6979V49.7992V49.9006V50.002V50.1033V50.2047V50.3061V50.4075V50.5089V50.6104V50.7118V50.8132V50.9147V51.0162V51.1176V51.2191V51.3206V51.4221V51.5236V51.6251V51.7266V51.8281V51.9297V52.0312V52.1328V52.2343V52.3359V52.4375V52.5391V52.6407V52.7423V52.8439V52.9456V53.0472V53.1488V53.2505V53.3522V53.4538V53.5555V53.6572V53.7589V53.8606V53.9623V54.0641V54.1658V54.2676V54.3693V54.4711V54.5728V54.6746V54.7764V54.8782V54.98V55.0819V55.1837V55.2855C94.5897 57.2186 93.0227 58.7857 91.0897 58.7857H90.9889H90.8881H90.7873H90.6865H90.5857H90.4849H90.3841H90.2833H90.1825H90.0817H89.9809H89.8801H89.7793H89.6785H89.5777H89.4769H89.3761H89.2753H89.1745H89.0737H88.9728H88.872H88.7712H88.6704H88.5696H88.4688H88.368H88.2671H88.1663H88.0655H87.9647H87.8638H87.763H87.6622H87.5614H87.4605H87.3597H87.2589H87.158H87.0572H86.9564H86.8555H86.7547H86.6539H86.553H86.4522H86.3513H86.2505H86.1496H86.0488H85.9479H85.8471H85.7462H85.6454H85.5445H85.4437H85.3428H85.2419H85.1411H85.0402H84.9393H84.8385H84.7376H84.6367H84.5358H84.435H84.3341H84.2332H84.1323H84.0314H83.9306H83.8297H83.7288H83.6279H83.527H83.4261H83.3252H83.2243H83.1234H83.0225H82.9216H82.8207H82.7198H82.6189H82.5179H82.417H82.3161H82.2152H82.1143H82.0133H81.9124H81.8115H81.7105H81.6096H81.5087H81.4077H81.3068H81.2058H81.1049H81.0039H80.903H80.802H80.7011H80.6001H80.4992H80.3982H80.2972H80.1963H80.0953H79.9943H79.8933H79.7924H79.6914H79.5904H79.4894H79.3884H79.2874H79.1864H79.0854H78.9844H78.8834H78.7824H78.6814H78.5804H78.4794H78.3784H78.2773H78.1763H78.0753H77.9742H77.8732H77.7722H77.6711H77.5701H77.469H77.368H77.2669H77.1659H77.0648H76.9638H76.8627H76.7616H76.6606H76.5595H76.4584H76.3573H76.2563H76.1552H76.0541H75.953H75.8519H75.7508H75.6497H75.5486H75.4475H75.3464H75.2452H75.1441H75.043H74.9419H74.8407H74.7396H74.6385H74.5373H74.4362H74.335H74.2339H74.1327H74.0316H73.9304H73.8292H73.7281H73.6269H73.5257H73.4245H73.3233H73.2222H73.121H73.0198H72.9186H72.8174H72.7161H72.6149H72.5137H72.4125H72.3113H72.21H72.1088H72.0076H71.9063H71.8051H71.7038H71.6026H71.5013H71.4001H71.2988H71.1975H71.0963H70.995H70.8937H70.7924H70.6911H70.5898H70.4886H70.3872H70.2859H70.1846H70.0833H69.982H69.8807H69.7793H69.678H69.5767H69.4753H69.374H69.2726H69.1713H69.0699H68.9686H68.8672H68.7658H68.6644H68.5631H68.4617H68.3603H68.2589H68.1575H68.0561H67.9547H67.8533H67.7518H67.6504H67.549H67.4475H67.3461H67.2447H67.1432H67.0418H66.9403H66.8388H66.7374H66.6359H66.5344H66.4329H66.3315H66.23H66.1285H66.027H65.9255H65.8239H65.7224H65.6209H65.5194H65.4178H65.3163H65.2148H65.1132H65.0117H64.9101H64.8085H64.707H64.6054H64.5038H64.4022H64.3006H64.199H64.0974H63.9958H63.8942H63.7926H63.691H63.5893H63.4877H63.3861H63.2844H63.1828H63.0811H62.9795H62.8778H62.7761H62.6744H62.5728H62.4711H62.3694H62.2677H62.166H62.0643H61.9625H61.8608H61.7591H61.6574H61.5556H61.4539H61.3521H61.2504H61.1486H61.0468H60.945H60.8433H60.7415H60.6397H60.5379H60.4361H60.3343H60.2324H60.1306H60.0288H59.927H59.8251H59.7233H59.6214H59.5195H59.4177H59.3158H59.2139H59.112H59.0101H58.9083H58.8063H58.7044H58.6025H58.5006H58.3987H58.2967H58.1948H58.0928H57.9909H57.8889H57.787H57.685H57.583H57.481H57.379H57.277H57.175H57.073H56.971H56.869H56.7669H56.6649H56.5628H56.4608H56.3587H56.2567H56.1546H56.0525H55.9504H55.8483H55.7462H55.6441H55.542H55.4399H55.3378H55.2356H55.1335H55.0313H54.9292H54.827H54.7248H54.6227H54.5205H54.4183H54.3161H54.2139H54.1117H54.0095H53.9072H53.805H53.7028H53.6005H53.4983H53.396H53.2937H53.1915H53.0892H52.9869H52.8846H52.7823H52.68H52.5776H52.4753H52.373H52.2706H52.1683H52.0659H51.9636H51.8612H51.7588H51.6564H51.554H51.4516H51.3492H51.2468H51.1444H51.042H50.9395H50.8371H50.7346H50.6321H50.5297H50.4272H50.3247H50.2222H50.1197H50.0172H49.9147H49.8122H49.7096H49.6071H49.5045H49.402H49.2994H49.1969H49.0943H48.9917H48.8891H48.7865H48.6839H48.5813H48.4786H48.376H48.2734H48.1707H48.068H47.9654H47.8627H47.76H47.6573H47.5546H47.4519H47.3492H47.2465H47.1437H47.041H46.9382H46.8355H46.7327H46.6299H46.5272H46.4244H46.3216H46.2188H46.1159H46.0131H45.9103H45.8074H45.7046H45.6017H45.4989H45.396H45.2931H45.1902H45.0873H44.9844H44.8815H44.7785H44.6756H44.5726H44.4697H44.3667H44.2638H44.1608H44.0578H43.9548H43.8518H43.7488H43.6457H43.5427H43.4397H43.3366H43.2335H43.1305H43.0274H42.9243H42.8212H42.7181H42.615H42.5119H42.4087H42.3056H42.2024H42.0993H41.9961H41.8929H41.7897H41.6865H41.5833H41.4801H41.3769H41.2737H41.1704H41.0672H40.9639H40.8606H40.7574H40.6541H40.5508H40.4475H40.3441H40.2408H40.1375H40.0341H39.9308H39.8274H39.724H39.6206H39.5173H39.4138H39.3104H39.207H39.1036H39.0001C37.0671 58.7857 35.5 57.2187 35.5 55.2857V55.1865V55.0873V54.988V54.8888V54.7895V54.6903V54.591V54.4918V54.3926V54.2933V54.1941V54.0948V53.9956V53.8963V53.7971V53.6978V53.5986V53.4993V53.4001V53.3008V53.2015V53.1023V53.003V52.9038V52.8045V52.7052V52.606V52.5067V52.4074V52.3082V52.2089V52.1096V52.0104V51.9111V51.8118V51.7126V51.6133V51.514V51.4147V51.3154V51.2162V51.1169V51.0176V50.9183V50.819V50.7197V50.6204V50.5212V50.4219V50.3226V50.2233V50.124V50.0247V49.9254V49.8261V49.7268V49.6275V49.5282V49.4288V49.3295V49.2302V49.1309V49.0316V48.9323V48.833V48.7336V48.6343V48.535V48.4357V48.3363V48.237V48.1377V48.0383V47.939V47.8397V47.7403V47.641V47.5416V47.4423V47.3429V47.2436V47.1442V47.0449V46.9455V46.8462V46.7468V46.6474V46.5481V46.4487V46.3493V46.25V46.1506V46.0512V45.9518V45.8525V45.7531V45.6537V45.5543V45.4549V45.3555V45.2561V45.1567V45.0573V44.9579V44.8585V44.7591V44.6597V44.5603V44.4609V44.3615V44.262V44.1626V44.0632V43.9638V43.8643V43.7649V43.6655V43.566V43.4666V43.3671V43.2677V43.1682V43.0688V42.9693V42.8699V42.7704V42.6709V42.5715V42.472V42.3725V42.2731V42.1736V42.0741V41.9746V41.8751V41.7756V41.6761V41.5766V41.4771V41.3776V41.2781V41.1786V41.0791V40.9796V40.8801V40.7806V40.681V40.5815V40.482V40.3824V40.2829V40.1834V40.0838V39.9843V39.8847V39.7852V39.6856V39.5861V39.4865V39.3869V39.2873V39.1878V39.0882V38.9886V38.889V38.7894V38.6898V38.5903V38.4907V38.391V38.2914V38.1918V38.0922V37.9926V37.893V37.7934V37.6937V37.5941V37.4945V37.3948V37.2952V37.1955V37.0959V36.9962V36.8966V36.7969V36.6972V36.5976V36.4979V36.3982V36.2985V36.1988V36.0991V35.9994V35.8997V35.8V35.7003V35.6006V35.5009V35.4012V35.3015V35.2017V35.102V35.0023V34.9025V34.8028V34.703V34.6033V34.5035V34.4038V34.304V34.2042V34.1045V34.0047V33.9049V33.8051V33.7053V33.6055V33.5057V33.4059V33.3061V33.2063V33.1065V33.0067V32.9068V32.807V32.7072V32.6073V32.5075V32.4076V32.3078V32.2079V32.108V32.0082V31.9083V31.8084V31.7085V31.6087V31.5088V31.4089V31.309V31.2091V31.1091V31.0092V30.9093V30.8094V30.7094V30.6095V30.5096V30.4096V30.3097V30.2097V30.1097V30.0098V29.9098V29.8098V29.7099V29.6099V29.5099V29.4099V29.3099V29.2099V29.1098V29.0098V28.9098V28.8098V28.7097V28.6097V28.5097V28.4096V28.3096V28.2095V28.1094V28.0094V27.9093V27.8092V27.7091V27.609V27.5089V27.4088V27.3087V27.2086V27.1085V27.0084V26.9082V26.8081V26.7079V26.6078V26.5076V26.4075V26.3073V26.2071V26.107V26.0068V25.9066V25.8064V25.7062V25.606V25.5058V25.4056V25.3053V25.2051V25.1049V25.0046V24.9044V24.8041V24.7039V24.6036V24.5033V24.4031V24.3028V24.2025V24.1022V24.0019V23.9016V23.8013V23.701V23.6006V23.5003V23.4V23.2996V23.1993V23.0989V22.9986V22.8982V22.7978V22.6974V22.597V22.4967V22.3963V22.2958V22.1954V22.095V21.9946V21.8942V21.7937V21.6933V21.5928V21.4924V21.3919V21.2914V21.191V21.0905V20.99V20.8895V20.789V20.6885V20.5879V20.4874V20.3869V20.2864V20.1858V20.0853V19.9847V19.8841V19.7836V19.683V19.5824V19.4818V19.3812V19.2806V19.18V19.0794V18.9788V18.8781V18.7775V18.6768V18.5762V18.4755V18.3748V18.2742V18.1735V18.0728V17.9721V17.8714V17.7707V17.67V17.5692V17.4685V17.3678V17.267V17.1663V17.0655V16.9647V16.864V16.7632V16.6624V16.5616V16.4608V16.36V16.2592V16.1583V16.0575V15.9567V15.8558V15.7549V15.6541V15.5532V15.4523V15.3514V15.2506V15.1496V15.0487V14.9478V14.8469V14.746V14.645V14.5441V14.4431V14.3422V14.2412V14.1402V14.0392V13.9382V13.8372V13.7362V13.6352V13.5342V13.4331V13.3321V13.231V13.13V13.0289V12.9278V12.8268V12.7257V12.6246V12.5235V12.4224V12.3212V12.2201V12.119V12.0178V11.9167V11.8155V11.7143V11.6132V11.512V11.4108V11.3096V11.2084V11.1071V11.0059V10.9047V10.8034V10.7022V10.6009V10.4996V10.3984V10.2971V10.1958V10.0945V9.99317V9.89185V9.79052V9.68919V9.58784V9.48648V9.38512V9.28375V9.18237V9.08098V8.97958V8.87818V8.77676V8.67534V8.57391V8.47247V8.37102V8.26956V8.16809V8.06661V7.96513V7.86364V7.76213V7.66062V7.5591V7.45757V7.35604V7.25449V7.15293V7.05137V6.94979V6.84821V6.74662V6.64502V6.54341V6.44179V6.34016V6.23852V6.13688V6.03522V5.93356V5.83189V5.7302V5.62851V5.52681V5.4251V5.32338V5.22165V5.11991V5.01816V4.91641V4.81464V4.71287V4.61108V4.50929V4.40748V4.30567V4.20385V4.10201V4.00017Z" fill="#4B4A55" stroke="#4B4A55"/>
<rect x="49.0664" y="29.8999" width="20" height="20" rx="1.5" stroke="#77B7B7"/>
<rect x="62.5664" y="36.3999" width="19" height="19" rx="2" fill="#77B7B7"/>
<path d="M33 54L66.5 15.5L109 68" stroke="#77B7B7" stroke-linecap="round"/>
<path d="M1.74426 77C1.55759 77 1.40426 76.9433 1.28426 76.83C1.17092 76.71 1.11426 76.5633 1.11426 76.39V70.61C1.11426 70.4367 1.17092 70.2933 1.28426 70.18C1.40426 70.06 1.55092 70 1.72426 70H4.97426C5.14759 70 5.29092 70.0567 5.40426 70.17C5.52426 70.2767 5.58426 70.4167 5.58426 70.59C5.58426 70.7367 5.52426 70.8667 5.40426 70.98C5.29092 71.0933 5.14759 71.15 4.97426 71.15H2.27426L2.36426 71.03V73.04L2.29426 72.91H4.52426C4.69759 72.91 4.84092 72.9667 4.95426 73.08C5.07426 73.1867 5.13426 73.3267 5.13426 73.5C5.13426 73.6467 5.07426 73.7767 4.95426 73.89C4.84092 74.0033 4.69759 74.06 4.52426 74.06H2.27426L2.36426 73.97V76.39C2.36426 76.5633 2.30092 76.71 2.17426 76.83C2.05426 76.9433 1.91092 77 1.74426 77ZM7.1416 77C6.96827 77 6.82493 76.9433 6.7116 76.83C6.59827 76.71 6.5416 76.5633 6.5416 76.39V72.26C6.5416 72.0867 6.59827 71.9433 6.7116 71.83C6.82493 71.71 6.96827 71.65 7.1416 71.65C7.31493 71.65 7.45827 71.71 7.5716 71.83C7.68493 71.9433 7.7416 72.0867 7.7416 72.26V73.2L7.6716 72.53C7.74493 72.37 7.83827 72.23 7.9516 72.11C8.0716 71.9833 8.20493 71.88 8.3516 71.8C8.49827 71.7133 8.65493 71.65 8.8216 71.61C8.98827 71.57 9.15494 71.55 9.3216 71.55C9.5216 71.55 9.68827 71.6067 9.8216 71.72C9.9616 71.8333 10.0316 71.9667 10.0316 72.12C10.0316 72.34 9.97494 72.5 9.8616 72.6C9.74827 72.6933 9.62494 72.74 9.4916 72.74C9.36494 72.74 9.24827 72.7167 9.1416 72.67C9.0416 72.6233 8.92493 72.6 8.7916 72.6C8.6716 72.6 8.54827 72.63 8.4216 72.69C8.3016 72.7433 8.18827 72.83 8.0816 72.95C7.9816 73.07 7.89827 73.22 7.8316 73.4C7.7716 73.5733 7.7416 73.78 7.7416 74.02V76.39C7.7416 76.5633 7.68493 76.71 7.5716 76.83C7.45827 76.9433 7.31493 77 7.1416 77ZM15.1404 71.55C15.3137 71.55 15.457 71.6067 15.5704 71.72C15.6837 71.8333 15.7404 71.98 15.7404 72.16V76.39C15.7404 76.5633 15.6837 76.71 15.5704 76.83C15.457 76.9433 15.3137 77 15.1404 77C14.967 77 14.8237 76.9433 14.7104 76.83C14.597 76.71 14.5404 76.5633 14.5404 76.39V75.9L14.7604 75.99C14.7604 76.0767 14.7137 76.1833 14.6204 76.31C14.527 76.43 14.4004 76.55 14.2404 76.67C14.0804 76.79 13.8904 76.8933 13.6704 76.98C13.457 77.06 13.2237 77.1 12.9704 77.1C12.5104 77.1 12.0937 76.9833 11.7204 76.75C11.347 76.51 11.0504 76.1833 10.8304 75.77C10.617 75.35 10.5104 74.87 10.5104 74.33C10.5104 73.7833 10.617 73.3033 10.8304 72.89C11.0504 72.47 11.3437 72.1433 11.7104 71.91C12.077 71.67 12.4837 71.55 12.9304 71.55C13.217 71.55 13.4804 71.5933 13.7204 71.68C13.9604 71.7667 14.167 71.8767 14.3404 72.01C14.5204 72.1433 14.657 72.28 14.7504 72.42C14.8504 72.5533 14.9004 72.6667 14.9004 72.76L14.5404 72.89V72.16C14.5404 71.9867 14.597 71.8433 14.7104 71.73C14.8237 71.61 14.967 71.55 15.1404 71.55ZM13.1204 76C13.4137 76 13.6704 75.9267 13.8904 75.78C14.1104 75.6333 14.2804 75.4333 14.4004 75.18C14.527 74.9267 14.5904 74.6433 14.5904 74.33C14.5904 74.01 14.527 73.7233 14.4004 73.47C14.2804 73.2167 14.1104 73.0167 13.8904 72.87C13.6704 72.7233 13.4137 72.65 13.1204 72.65C12.8337 72.65 12.5804 72.7233 12.3604 72.87C12.1404 73.0167 11.967 73.2167 11.8404 73.47C11.7204 73.7233 11.6604 74.01 11.6604 74.33C11.6604 74.6433 11.7204 74.9267 11.8404 75.18C11.967 75.4333 12.1404 75.6333 12.3604 75.78C12.5804 75.9267 12.8337 76 13.1204 76ZM19.8996 71.55C20.393 71.55 20.7663 71.6533 21.0196 71.86C21.2796 72.0667 21.4563 72.3433 21.5496 72.69C21.6496 73.03 21.6996 73.41 21.6996 73.83V76.39C21.6996 76.5633 21.643 76.71 21.5296 76.83C21.4163 76.9433 21.273 77 21.0996 77C20.9263 77 20.783 76.9433 20.6696 76.83C20.5563 76.71 20.4996 76.5633 20.4996 76.39V73.83C20.4996 73.61 20.4696 73.4133 20.4096 73.24C20.3563 73.06 20.2563 72.9167 20.1096 72.81C19.963 72.7033 19.753 72.65 19.4796 72.65C19.213 72.65 18.9863 72.7033 18.7996 72.81C18.6196 72.9167 18.4796 73.06 18.3796 73.24C18.2863 73.4133 18.2396 73.61 18.2396 73.83V76.39C18.2396 76.5633 18.183 76.71 18.0696 76.83C17.9563 76.9433 17.813 77 17.6396 77C17.4663 77 17.323 76.9433 17.2096 76.83C17.0963 76.71 17.0396 76.5633 17.0396 76.39V72.26C17.0396 72.0867 17.0963 71.9433 17.2096 71.83C17.323 71.71 17.4663 71.65 17.6396 71.65C17.813 71.65 17.9563 71.71 18.0696 71.83C18.183 71.9433 18.2396 72.0867 18.2396 72.26V72.69L18.0896 72.66C18.1496 72.5467 18.2363 72.4267 18.3496 72.3C18.463 72.1667 18.5963 72.0433 18.7496 71.93C18.903 71.8167 19.0763 71.7267 19.2696 71.66C19.463 71.5867 19.673 71.55 19.8996 71.55ZM25.3767 71.55C25.7567 71.55 26.0867 71.59 26.3667 71.67C26.6533 71.75 26.8733 71.8633 27.0267 72.01C27.1867 72.15 27.2667 72.32 27.2667 72.52C27.2667 72.6533 27.2267 72.78 27.1467 72.9C27.0667 73.0133 26.95 73.07 26.7967 73.07C26.69 73.07 26.6 73.0567 26.5267 73.03C26.46 72.9967 26.4 72.9567 26.3467 72.91C26.2933 72.8633 26.23 72.82 26.1567 72.78C26.09 72.74 25.9867 72.71 25.8467 72.69C25.7133 72.6633 25.6133 72.65 25.5467 72.65C25.2067 72.65 24.9167 72.7233 24.6767 72.87C24.4433 73.0167 24.2633 73.2167 24.1367 73.47C24.01 73.7167 23.9467 74.0033 23.9467 74.33C23.9467 74.65 24.01 74.9367 24.1367 75.19C24.27 75.4367 24.45 75.6333 24.6767 75.78C24.91 75.9267 25.1767 76 25.4767 76C25.6433 76 25.7867 75.99 25.9067 75.97C26.0267 75.95 26.1267 75.92 26.2067 75.88C26.3 75.8267 26.3833 75.77 26.4567 75.71C26.53 75.65 26.64 75.62 26.7867 75.62C26.96 75.62 27.0933 75.6767 27.1867 75.79C27.28 75.8967 27.3267 76.03 27.3267 76.19C27.3267 76.3567 27.2333 76.51 27.0467 76.65C26.86 76.7833 26.6133 76.8933 26.3067 76.98C26.0067 77.06 25.68 77.1 25.3267 77.1C24.8 77.1 24.3433 76.98 23.9567 76.74C23.57 76.4933 23.27 76.16 23.0567 75.74C22.85 75.32 22.7467 74.85 22.7467 74.33C22.7467 73.7833 22.8567 73.3033 23.0767 72.89C23.3033 72.47 23.6133 72.1433 24.0067 71.91C24.4067 71.67 24.8633 71.55 25.3767 71.55ZM24.8167 78.51C24.75 78.51 24.6633 78.49 24.5567 78.45C24.4567 78.4167 24.3667 78.3633 24.2867 78.29C24.2067 78.2233 24.1667 78.1433 24.1667 78.05C24.1667 77.95 24.2067 77.85 24.2867 77.75L25.0667 76.7H25.7767L25.2267 78.19C25.1467 78.4033 25.01 78.51 24.8167 78.51ZM33.382 74.33C33.382 74.8767 33.2587 75.36 33.012 75.78C32.772 76.1933 32.4453 76.5167 32.032 76.75C31.6253 76.9833 31.1687 77.1 30.662 77.1C30.1553 77.1 29.6953 76.9833 29.282 76.75C28.8753 76.5167 28.5487 76.1933 28.302 75.78C28.062 75.36 27.942 74.8767 27.942 74.33C27.942 73.7833 28.062 73.3033 28.302 72.89C28.5487 72.47 28.8753 72.1433 29.282 71.91C29.6953 71.67 30.1553 71.55 30.662 71.55C31.1687 71.55 31.6253 71.67 32.032 71.91C32.4453 72.1433 32.772 72.47 33.012 72.89C33.2587 73.3033 33.382 73.7833 33.382 74.33ZM32.182 74.33C32.182 73.99 32.112 73.6967 31.972 73.45C31.8387 73.1967 31.6553 73 31.422 72.86C31.1953 72.72 30.942 72.65 30.662 72.65C30.382 72.65 30.1253 72.72 29.892 72.86C29.6653 73 29.482 73.1967 29.342 73.45C29.2087 73.6967 29.142 73.99 29.142 74.33C29.142 74.6633 29.2087 74.9567 29.342 75.21C29.482 75.4567 29.6653 75.65 29.892 75.79C30.1253 75.93 30.382 76 30.662 76C30.942 76 31.1953 75.93 31.422 75.79C31.6553 75.65 31.8387 75.4567 31.972 75.21C32.112 74.9567 32.182 74.6633 32.182 74.33ZM35.5622 76.39C35.5622 76.5633 35.5056 76.71 35.3922 76.83C35.2789 76.9433 35.1356 77 34.9622 77C34.7889 77 34.6456 76.9433 34.5322 76.83C34.4189 76.71 34.3622 76.5633 34.3622 76.39V72.26C34.3622 72.0867 34.4189 71.9433 34.5322 71.83C34.6456 71.71 34.7889 71.65 34.9622 71.65C35.1356 71.65 35.2789 71.71 35.3922 71.83C35.5056 71.9433 35.5622 72.0867 35.5622 72.26V76.39ZM34.9522 71C34.7256 71 34.5656 70.9633 34.4722 70.89C34.3789 70.8167 34.3322 70.6867 34.3322 70.5V70.31C34.3322 70.1167 34.3822 69.9867 34.4822 69.92C34.5889 69.8467 34.7489 69.81 34.9622 69.81C35.1956 69.81 35.3589 69.8467 35.4522 69.92C35.5456 69.9933 35.5922 70.1233 35.5922 70.31V70.5C35.5922 70.6933 35.5422 70.8267 35.4422 70.9C35.3422 70.9667 35.1789 71 34.9522 71ZM36.4855 76.17C36.4188 76.0767 36.3888 75.9567 36.3955 75.81C36.4022 75.6633 36.4888 75.5367 36.6555 75.43C36.7622 75.3633 36.8755 75.3367 36.9955 75.35C37.1155 75.3567 37.2322 75.4167 37.3455 75.53C37.5388 75.7233 37.7422 75.8733 37.9555 75.98C38.1688 76.0867 38.4355 76.14 38.7555 76.14C38.8555 76.1333 38.9655 76.12 39.0855 76.1C39.2055 76.0733 39.3088 76.02 39.3955 75.94C39.4888 75.8533 39.5355 75.7233 39.5355 75.55C39.5355 75.4033 39.4855 75.2867 39.3855 75.2C39.2855 75.1133 39.1522 75.04 38.9855 74.98C38.8255 74.92 38.6455 74.8633 38.4455 74.81C38.2388 74.75 38.0255 74.6833 37.8055 74.61C37.5922 74.5367 37.3955 74.4433 37.2155 74.33C37.0355 74.21 36.8888 74.0533 36.7755 73.86C36.6622 73.6667 36.6055 73.4233 36.6055 73.13C36.6055 72.7967 36.6988 72.5133 36.8855 72.28C37.0722 72.0467 37.3122 71.8667 37.6055 71.74C37.9055 71.6133 38.2188 71.55 38.5455 71.55C38.7522 71.55 38.9688 71.5767 39.1955 71.63C39.4222 71.6767 39.6388 71.7567 39.8455 71.87C40.0522 71.9767 40.2255 72.12 40.3655 72.3C40.4388 72.4 40.4822 72.52 40.4955 72.66C40.5088 72.8 40.4455 72.9267 40.3055 73.04C40.2055 73.12 40.0888 73.1567 39.9555 73.15C39.8222 73.1367 39.7122 73.09 39.6255 73.01C39.5122 72.8633 39.3588 72.7467 39.1655 72.66C38.9788 72.5733 38.7622 72.53 38.5155 72.53C38.4155 72.53 38.3055 72.5433 38.1855 72.57C38.0722 72.59 37.9722 72.64 37.8855 72.72C37.7988 72.7933 37.7555 72.9133 37.7555 73.08C37.7555 73.2333 37.8055 73.3567 37.9055 73.45C38.0055 73.5367 38.1388 73.61 38.3055 73.67C38.4788 73.7233 38.6622 73.7767 38.8555 73.83C39.0555 73.8833 39.2588 73.9467 39.4655 74.02C39.6722 74.0933 39.8622 74.19 40.0355 74.31C40.2088 74.43 40.3488 74.5867 40.4555 74.78C40.5622 74.9667 40.6155 75.2067 40.6155 75.5C40.6155 75.84 40.5155 76.13 40.3155 76.37C40.1155 76.61 39.8655 76.7933 39.5655 76.92C39.2655 77.04 38.9588 77.1 38.6455 77.1C38.2522 77.1 37.8588 77.0333 37.4655 76.9C37.0722 76.76 36.7455 76.5167 36.4855 76.17ZM47.6525 70C48.2925 70 48.7691 70.15 49.0825 70.45C49.3958 70.75 49.5525 71.1933 49.5525 71.78C49.5525 72.0933 49.4758 72.37 49.3225 72.61C49.1691 72.8433 48.9425 73.0267 48.6425 73.16C48.3425 73.2867 47.9725 73.35 47.5325 73.35L47.5725 72.9C47.7791 72.9 48.0158 72.93 48.2825 72.99C48.5491 73.0433 48.8058 73.1433 49.0525 73.29C49.3058 73.43 49.5125 73.63 49.6725 73.89C49.8391 74.1433 49.9225 74.47 49.9225 74.87C49.9225 75.31 49.8491 75.67 49.7025 75.95C49.5625 76.23 49.3758 76.4467 49.1425 76.6C48.9091 76.7533 48.6591 76.86 48.3925 76.92C48.1258 76.9733 47.8691 77 47.6225 77H45.1325C44.9591 77 44.8125 76.9433 44.6925 76.83C44.5791 76.71 44.5225 76.5633 44.5225 76.39V70.61C44.5225 70.4367 44.5791 70.2933 44.6925 70.18C44.8125 70.06 44.9591 70 45.1325 70H47.6525ZM47.4725 71.18H45.6925L45.8225 71.02V72.83L45.7025 72.74H47.5025C47.6958 72.74 47.8691 72.6767 48.0225 72.55C48.1758 72.4233 48.2525 72.24 48.2525 72C48.2525 71.7133 48.1791 71.5067 48.0325 71.38C47.8925 71.2467 47.7058 71.18 47.4725 71.18ZM47.5525 73.92H45.7325L45.8225 73.84V75.95L45.7225 75.85H47.6225C47.9291 75.85 48.1725 75.77 48.3525 75.61C48.5325 75.4433 48.6225 75.1967 48.6225 74.87C48.6225 74.57 48.5625 74.3533 48.4425 74.22C48.3225 74.0867 48.1791 74.0033 48.0125 73.97C47.8458 73.9367 47.6925 73.92 47.5525 73.92ZM55.3552 71.55C55.5285 71.55 55.6719 71.6067 55.7852 71.72C55.8985 71.8333 55.9552 71.98 55.9552 72.16V76.39C55.9552 76.5633 55.8985 76.71 55.7852 76.83C55.6719 76.9433 55.5285 77 55.3552 77C55.1819 77 55.0385 76.9433 54.9252 76.83C54.8119 76.71 54.7552 76.5633 54.7552 76.39V75.9L54.9752 75.99C54.9752 76.0767 54.9285 76.1833 54.8352 76.31C54.7419 76.43 54.6152 76.55 54.4552 76.67C54.2952 76.79 54.1052 76.8933 53.8852 76.98C53.6719 77.06 53.4385 77.1 53.1852 77.1C52.7252 77.1 52.3085 76.9833 51.9352 76.75C51.5619 76.51 51.2652 76.1833 51.0452 75.77C50.8319 75.35 50.7252 74.87 50.7252 74.33C50.7252 73.7833 50.8319 73.3033 51.0452 72.89C51.2652 72.47 51.5585 72.1433 51.9252 71.91C52.2919 71.67 52.6985 71.55 53.1452 71.55C53.4319 71.55 53.6952 71.5933 53.9352 71.68C54.1752 71.7667 54.3819 71.8767 54.5552 72.01C54.7352 72.1433 54.8719 72.28 54.9652 72.42C55.0652 72.5533 55.1152 72.6667 55.1152 72.76L54.7552 72.89V72.16C54.7552 71.9867 54.8119 71.8433 54.9252 71.73C55.0385 71.61 55.1819 71.55 55.3552 71.55ZM53.3352 76C53.6285 76 53.8852 75.9267 54.1052 75.78C54.3252 75.6333 54.4952 75.4333 54.6152 75.18C54.7419 74.9267 54.8052 74.6433 54.8052 74.33C54.8052 74.01 54.7419 73.7233 54.6152 73.47C54.4952 73.2167 54.3252 73.0167 54.1052 72.87C53.8852 72.7233 53.6285 72.65 53.3352 72.65C53.0485 72.65 52.7952 72.7233 52.5752 72.87C52.3552 73.0167 52.1819 73.2167 52.0552 73.47C51.9352 73.7233 51.8752 74.01 51.8752 74.33C51.8752 74.6433 51.9352 74.9267 52.0552 75.18C52.1819 75.4333 52.3552 75.6333 52.5752 75.78C52.7952 75.9267 53.0485 76 53.3352 76ZM57.8545 77C57.6812 77 57.5378 76.9433 57.4245 76.83C57.3112 76.71 57.2545 76.5633 57.2545 76.39V72.26C57.2545 72.0867 57.3112 71.9433 57.4245 71.83C57.5378 71.71 57.6812 71.65 57.8545 71.65C58.0278 71.65 58.1712 71.71 58.2845 71.83C58.3978 71.9433 58.4545 72.0867 58.4545 72.26V73.2L58.3845 72.53C58.4578 72.37 58.5512 72.23 58.6645 72.11C58.7845 71.9833 58.9178 71.88 59.0645 71.8C59.2112 71.7133 59.3678 71.65 59.5345 71.61C59.7012 71.57 59.8678 71.55 60.0345 71.55C60.2345 71.55 60.4012 71.6067 60.5345 71.72C60.6745 71.8333 60.7445 71.9667 60.7445 72.12C60.7445 72.34 60.6878 72.5 60.5745 72.6C60.4612 72.6933 60.3378 72.74 60.2045 72.74C60.0778 72.74 59.9612 72.7167 59.8545 72.67C59.7545 72.6233 59.6378 72.6 59.5045 72.6C59.3845 72.6 59.2612 72.63 59.1345 72.69C59.0145 72.7433 58.9012 72.83 58.7945 72.95C58.6945 73.07 58.6112 73.22 58.5445 73.4C58.4845 73.5733 58.4545 73.78 58.4545 74.02V76.39C58.4545 76.5633 58.3978 76.71 58.2845 76.83C58.1712 76.9433 58.0278 77 57.8545 77ZM64.3604 71.55C64.8271 71.55 65.2438 71.67 65.6104 71.91C65.9838 72.1433 66.2771 72.4667 66.4904 72.88C66.7104 73.2933 66.8204 73.7733 66.8204 74.32C66.8204 74.8667 66.7104 75.35 66.4904 75.77C66.2771 76.1833 65.9871 76.51 65.6204 76.75C65.2604 76.9833 64.8538 77.1 64.4004 77.1C64.1338 77.1 63.8838 77.0567 63.6504 76.97C63.4171 76.8833 63.2104 76.7733 63.0304 76.64C62.8571 76.5067 62.7204 76.3733 62.6204 76.24C62.5271 76.1 62.4804 75.9833 62.4804 75.89L62.7904 75.76V76.49C62.7904 76.6633 62.7338 76.81 62.6204 76.93C62.5071 77.0433 62.3638 77.1 62.1904 77.1C62.0171 77.1 61.8738 77.0433 61.7604 76.93C61.6471 76.8167 61.5904 76.67 61.5904 76.49V70.21C61.5904 70.0367 61.6471 69.8933 61.7604 69.78C61.8738 69.66 62.0171 69.6 62.1904 69.6C62.3638 69.6 62.5071 69.66 62.6204 69.78C62.7338 69.8933 62.7904 70.0367 62.7904 70.21V72.75L62.6204 72.66C62.6204 72.5733 62.6671 72.47 62.7604 72.35C62.8538 72.2233 62.9804 72.1 63.1404 71.98C63.3004 71.8533 63.4838 71.75 63.6904 71.67C63.9038 71.59 64.1271 71.55 64.3604 71.55ZM64.2104 72.65C63.9171 72.65 63.6604 72.7233 63.4404 72.87C63.2204 73.0167 63.0471 73.2167 62.9204 73.47C62.8004 73.7167 62.7404 74 62.7404 74.32C62.7404 74.6333 62.8004 74.92 62.9204 75.18C63.0471 75.4333 63.2204 75.6333 63.4404 75.78C63.6604 75.9267 63.9171 76 64.2104 76C64.5038 76 64.7571 75.9267 64.9704 75.78C65.1904 75.6333 65.3604 75.4333 65.4804 75.18C65.6071 74.92 65.6704 74.6333 65.6704 74.32C65.6704 74 65.6071 73.7167 65.4804 73.47C65.3604 73.2167 65.1904 73.0167 64.9704 72.87C64.7571 72.7233 64.5038 72.65 64.2104 72.65ZM68.9997 76.39C68.9997 76.5633 68.9431 76.71 68.8297 76.83C68.7164 76.9433 68.5731 77 68.3997 77C68.2264 77 68.0831 76.9433 67.9697 76.83C67.8564 76.71 67.7997 76.5633 67.7997 76.39V72.26C67.7997 72.0867 67.8564 71.9433 67.9697 71.83C68.0831 71.71 68.2264 71.65 68.3997 71.65C68.5731 71.65 68.7164 71.71 68.8297 71.83C68.9431 71.9433 68.9997 72.0867 68.9997 72.26V76.39ZM68.3897 71C68.1631 71 68.0031 70.9633 67.9097 70.89C67.8164 70.8167 67.7697 70.6867 67.7697 70.5V70.31C67.7697 70.1167 67.8197 69.9867 67.9197 69.92C68.0264 69.8467 68.1864 69.81 68.3997 69.81C68.6331 69.81 68.7964 69.8467 68.8897 69.92C68.9831 69.9933 69.0297 70.1233 69.0297 70.31V70.5C69.0297 70.6933 68.9797 70.8267 68.8797 70.9C68.7797 70.9667 68.6164 71 68.3897 71ZM72.753 77.1C72.1863 77.1 71.693 76.9833 71.273 76.75C70.8597 76.51 70.5397 76.1867 70.313 75.78C70.093 75.3733 69.983 74.9133 69.983 74.4C69.983 73.8 70.103 73.29 70.343 72.87C70.5897 72.4433 70.9097 72.1167 71.303 71.89C71.6963 71.6633 72.113 71.55 72.553 71.55C72.893 71.55 73.213 71.62 73.513 71.76C73.8197 71.9 74.0897 72.0933 74.323 72.34C74.5563 72.58 74.7397 72.86 74.873 73.18C75.013 73.5 75.083 73.84 75.083 74.2C75.0763 74.36 75.013 74.49 74.893 74.59C74.773 74.69 74.633 74.74 74.473 74.74H70.653L70.353 73.74H74.023L73.803 73.94V73.67C73.7897 73.4767 73.7197 73.3033 73.593 73.15C73.473 72.9967 73.3197 72.8767 73.133 72.79C72.953 72.6967 72.7597 72.65 72.553 72.65C72.353 72.65 72.1663 72.6767 71.993 72.73C71.8197 72.7833 71.6697 72.8733 71.543 73C71.4163 73.1267 71.3163 73.2967 71.243 73.51C71.1697 73.7233 71.133 73.9933 71.133 74.32C71.133 74.68 71.2063 74.9867 71.353 75.24C71.5063 75.4867 71.6997 75.6767 71.933 75.81C72.173 75.9367 72.4263 76 72.693 76C72.9397 76 73.1363 75.98 73.283 75.94C73.4297 75.9 73.5463 75.8533 73.633 75.8C73.7263 75.74 73.8097 75.69 73.883 75.65C74.003 75.59 74.1163 75.56 74.223 75.56C74.3697 75.56 74.4897 75.61 74.583 75.71C74.683 75.81 74.733 75.9267 74.733 76.06C74.733 76.24 74.6397 76.4033 74.453 76.55C74.2797 76.6967 74.0363 76.8267 73.723 76.94C73.4097 77.0467 73.0863 77.1 72.753 77.1ZM72.543 71.3C72.5097 71.3 72.473 71.2967 72.433 71.29C72.393 71.2767 72.353 71.26 72.313 71.24L71.313 70.71C71.193 70.6433 71.0997 70.5633 71.033 70.47C70.973 70.3767 70.943 70.28 70.943 70.18C70.943 70.0267 71.003 69.9067 71.123 69.82C71.243 69.7333 71.3597 69.69 71.473 69.69C71.5663 69.69 71.653 69.7133 71.733 69.76C71.8197 69.8 71.8963 69.85 71.963 69.91L72.823 70.67C72.9163 70.7567 72.963 70.8467 72.963 70.94C72.963 71.0467 72.923 71.1333 72.843 71.2C72.7697 71.2667 72.6697 71.3 72.543 71.3ZM76.7314 77C76.5581 77 76.4148 76.9433 76.3014 76.83C76.1881 76.71 76.1314 76.5633 76.1314 76.39V72.26C76.1314 72.0867 76.1881 71.9433 76.3014 71.83C76.4148 71.71 76.5581 71.65 76.7314 71.65C76.9048 71.65 77.0481 71.71 77.1614 71.83C77.2748 71.9433 77.3314 72.0867 77.3314 72.26V73.2L77.2614 72.53C77.3348 72.37 77.4281 72.23 77.5414 72.11C77.6614 71.9833 77.7948 71.88 77.9414 71.8C78.0881 71.7133 78.2448 71.65 78.4114 71.61C78.5781 71.57 78.7448 71.55 78.9114 71.55C79.1114 71.55 79.2781 71.6067 79.4114 71.72C79.5514 71.8333 79.6214 71.9667 79.6214 72.12C79.6214 72.34 79.5648 72.5 79.4514 72.6C79.3381 72.6933 79.2148 72.74 79.0814 72.74C78.9548 72.74 78.8381 72.7167 78.7314 72.67C78.6314 72.6233 78.5148 72.6 78.3814 72.6C78.2614 72.6 78.1381 72.63 78.0114 72.69C77.8914 72.7433 77.7781 72.83 77.6714 72.95C77.5714 73.07 77.4881 73.22 77.4214 73.4C77.3614 73.5733 77.3314 73.78 77.3314 74.02V76.39C77.3314 76.5633 77.2748 76.71 77.1614 76.83C77.0481 76.9433 76.9048 77 76.7314 77ZM82.7628 77.1C82.1961 77.1 81.7028 76.9833 81.2828 76.75C80.8694 76.51 80.5494 76.1867 80.3228 75.78C80.1028 75.3733 79.9928 74.9133 79.9928 74.4C79.9928 73.8 80.1128 73.29 80.3528 72.87C80.5994 72.4433 80.9194 72.1167 81.3128 71.89C81.7061 71.6633 82.1228 71.55 82.5628 71.55C82.9028 71.55 83.2228 71.62 83.5228 71.76C83.8294 71.9 84.0994 72.0933 84.3328 72.34C84.5661 72.58 84.7494 72.86 84.8828 73.18C85.0228 73.5 85.0928 73.84 85.0928 74.2C85.0861 74.36 85.0228 74.49 84.9028 74.59C84.7828 74.69 84.6428 74.74 84.4828 74.74H80.6628L80.3628 73.74H84.0328L83.8128 73.94V73.67C83.7994 73.4767 83.7294 73.3033 83.6028 73.15C83.4828 72.9967 83.3294 72.8767 83.1428 72.79C82.9628 72.6967 82.7694 72.65 82.5628 72.65C82.3628 72.65 82.1761 72.6767 82.0028 72.73C81.8294 72.7833 81.6794 72.8733 81.5528 73C81.4261 73.1267 81.3261 73.2967 81.2528 73.51C81.1794 73.7233 81.1428 73.9933 81.1428 74.32C81.1428 74.68 81.2161 74.9867 81.3628 75.24C81.5161 75.4867 81.7094 75.6767 81.9428 75.81C82.1828 75.9367 82.4361 76 82.7028 76C82.9494 76 83.1461 75.98 83.2928 75.94C83.4394 75.9 83.5561 75.8533 83.6428 75.8C83.7361 75.74 83.8194 75.69 83.8928 75.65C84.0128 75.59 84.1261 75.56 84.2328 75.56C84.3794 75.56 84.4994 75.61 84.5928 75.71C84.6928 75.81 84.7428 75.9267 84.7428 76.06C84.7428 76.24 84.6494 76.4033 84.4628 76.55C84.2894 76.6967 84.0461 76.8267 83.7328 76.94C83.4194 77.0467 83.0961 77.1 82.7628 77.1ZM91.0839 77.1C90.6106 77.1 90.1839 76.9967 89.8039 76.79C89.4306 76.5833 89.1339 76.3133 88.9139 75.98C88.7006 75.6467 88.5939 75.29 88.5939 74.91C88.5939 74.5767 88.6506 74.2733 88.7639 74C88.8839 73.72 89.0606 73.4733 89.2939 73.26C89.5339 73.0467 89.8373 72.8667 90.2039 72.72L90.9839 73.53C90.5173 73.63 90.2039 73.7833 90.0439 73.99C89.8906 74.19 89.8139 74.4367 89.8139 74.73C89.8139 74.93 89.8639 75.1267 89.9639 75.32C90.0639 75.5067 90.2273 75.6633 90.4539 75.79C90.6806 75.91 90.9839 75.97 91.3639 75.97C91.6773 75.97 91.9573 75.9 92.2039 75.76C92.4573 75.6133 92.6739 75.4233 92.8539 75.19C93.0406 74.95 93.1906 74.6867 93.3039 74.4C93.4239 74.1067 93.5039 73.81 93.5439 73.51C93.5573 73.4033 93.5973 73.32 93.6639 73.26C93.7373 73.2 93.8573 73.17 94.0239 73.17C94.1973 73.17 94.3339 73.24 94.4339 73.38C94.5339 73.52 94.5706 73.6833 94.5439 73.87C94.4839 74.27 94.3673 74.6633 94.1939 75.05C94.0273 75.43 93.8006 75.7767 93.5139 76.09C93.2339 76.3967 92.8906 76.6433 92.4839 76.83C92.0839 77.01 91.6173 77.1 91.0839 77.1ZM94.6439 77.02C94.5639 77.02 94.4939 77.01 94.4339 76.99C94.3806 76.97 94.3373 76.9467 94.3039 76.92C93.8239 76.5067 93.3839 76.1267 92.9839 75.78C92.5906 75.4267 92.2273 75.09 91.8939 74.77C91.5606 74.45 91.2473 74.1233 90.9539 73.79C90.7206 73.5233 90.5073 73.2833 90.3139 73.07C90.1206 72.8567 89.9639 72.65 89.8439 72.45C89.7306 72.2433 89.6739 72.0167 89.6739 71.77C89.6739 71.4433 89.7606 71.14 89.9339 70.86C90.1139 70.5733 90.3673 70.3433 90.6939 70.17C91.0206 69.99 91.4073 69.9 91.8539 69.9C92.3139 69.9 92.7273 69.9767 93.0939 70.13C93.4673 70.2833 93.7173 70.4867 93.8439 70.74C93.8506 70.7467 93.8673 70.79 93.8939 70.87C93.9206 70.9433 93.9339 71.03 93.9339 71.13C93.9339 71.2567 93.8873 71.3667 93.7939 71.46C93.7006 71.5533 93.5739 71.6 93.4139 71.6C93.3073 71.6 93.2239 71.58 93.1639 71.54C93.1039 71.5 93.0573 71.46 93.0239 71.42C92.8773 71.2267 92.7073 71.0933 92.5139 71.02C92.3273 70.94 92.1073 70.9 91.8539 70.9C91.5539 70.9 91.3239 70.98 91.1639 71.14C91.0106 71.3 90.9339 71.49 90.9339 71.71C90.9339 71.9167 91.0073 72.1233 91.1539 72.33C91.3006 72.53 91.4673 72.72 91.6539 72.9C91.8473 73.08 92.0073 73.24 92.1339 73.38C92.3406 73.6 92.5706 73.8367 92.8239 74.09C93.0839 74.3367 93.3439 74.58 93.6039 74.82C93.8639 75.0533 94.1039 75.2733 94.3239 75.48C94.5506 75.68 94.7339 75.8467 94.8739 75.98C94.9606 76.06 95.0239 76.14 95.0639 76.22C95.1106 76.3 95.1339 76.3967 95.1339 76.51C95.1339 76.5967 95.0939 76.7033 95.0139 76.83C94.9406 76.9567 94.8173 77.02 94.6439 77.02ZM103.217 71.55C103.39 71.55 103.533 71.6067 103.647 71.72C103.76 71.8333 103.817 71.98 103.817 72.16V76.39C103.817 76.5633 103.76 76.71 103.647 76.83C103.533 76.9433 103.39 77 103.217 77C103.043 77 102.9 76.9433 102.787 76.83C102.673 76.71 102.617 76.5633 102.617 76.39V75.9L102.837 75.99C102.837 76.0767 102.79 76.1833 102.697 76.31C102.603 76.43 102.477 76.55 102.317 76.67C102.157 76.79 101.967 76.8933 101.747 76.98C101.533 77.06 101.3 77.1 101.047 77.1C100.587 77.1 100.17 76.9833 99.7965 76.75C99.4232 76.51 99.1265 76.1833 98.9065 75.77C98.6932 75.35 98.5865 74.87 98.5865 74.33C98.5865 73.7833 98.6932 73.3033 98.9065 72.89C99.1265 72.47 99.4199 72.1433 99.7865 71.91C100.153 71.67 100.56 71.55 101.007 71.55C101.293 71.55 101.557 71.5933 101.797 71.68C102.037 71.7667 102.243 71.8767 102.417 72.01C102.597 72.1433 102.733 72.28 102.827 72.42C102.927 72.5533 102.977 72.6667 102.977 72.76L102.617 72.89V72.16C102.617 71.9867 102.673 71.8433 102.787 71.73C102.9 71.61 103.043 71.55 103.217 71.55ZM101.197 76C101.49 76 101.747 75.9267 101.967 75.78C102.187 75.6333 102.357 75.4333 102.477 75.18C102.603 74.9267 102.667 74.6433 102.667 74.33C102.667 74.01 102.603 73.7233 102.477 73.47C102.357 73.2167 102.187 73.0167 101.967 72.87C101.747 72.7233 101.49 72.65 101.197 72.65C100.91 72.65 100.657 72.7233 100.437 72.87C100.217 73.0167 100.043 73.2167 99.9165 73.47C99.7965 73.7233 99.7365 74.01 99.7365 74.33C99.7365 74.6433 99.7965 74.9267 99.9165 75.18C100.043 75.4333 100.217 75.6333 100.437 75.78C100.657 75.9267 100.91 76 101.197 76ZM104.806 76.17C104.739 76.0767 104.709 75.9567 104.716 75.81C104.722 75.6633 104.809 75.5367 104.976 75.43C105.082 75.3633 105.196 75.3367 105.316 75.35C105.436 75.3567 105.552 75.4167 105.666 75.53C105.859 75.7233 106.062 75.8733 106.276 75.98C106.489 76.0867 106.756 76.14 107.076 76.14C107.176 76.1333 107.286 76.12 107.406 76.1C107.526 76.0733 107.629 76.02 107.716 75.94C107.809 75.8533 107.856 75.7233 107.856 75.55C107.856 75.4033 107.806 75.2867 107.706 75.2C107.606 75.1133 107.472 75.04 107.306 74.98C107.146 74.92 106.966 74.8633 106.766 74.81C106.559 74.75 106.346 74.6833 106.126 74.61C105.912 74.5367 105.716 74.4433 105.536 74.33C105.356 74.21 105.209 74.0533 105.096 73.86C104.982 73.6667 104.926 73.4233 104.926 73.13C104.926 72.7967 105.019 72.5133 105.206 72.28C105.392 72.0467 105.632 71.8667 105.926 71.74C106.226 71.6133 106.539 71.55 106.866 71.55C107.072 71.55 107.289 71.5767 107.516 71.63C107.742 71.6767 107.959 71.7567 108.166 71.87C108.372 71.9767 108.546 72.12 108.686 72.3C108.759 72.4 108.802 72.52 108.816 72.66C108.829 72.8 108.766 72.9267 108.626 73.04C108.526 73.12 108.409 73.1567 108.276 73.15C108.142 73.1367 108.032 73.09 107.946 73.01C107.832 72.8633 107.679 72.7467 107.486 72.66C107.299 72.5733 107.082 72.53 106.836 72.53C106.736 72.53 106.626 72.5433 106.506 72.57C106.392 72.59 106.292 72.64 106.206 72.72C106.119 72.7933 106.076 72.9133 106.076 73.08C106.076 73.2333 106.126 73.3567 106.226 73.45C106.326 73.5367 106.459 73.61 106.626 73.67C106.799 73.7233 106.982 73.7767 107.176 73.83C107.376 73.8833 107.579 73.9467 107.786 74.02C107.992 74.0933 108.182 74.19 108.356 74.31C108.529 74.43 108.669 74.5867 108.776 74.78C108.882 74.9667 108.936 75.2067 108.936 75.5C108.936 75.84 108.836 76.13 108.636 76.37C108.436 76.61 108.186 76.7933 107.886 76.92C107.586 77.04 107.279 77.1 106.966 77.1C106.572 77.1 106.179 77.0333 105.786 76.9C105.392 76.76 105.066 76.5167 104.806 76.17ZM109.63 76.17C109.563 76.0767 109.533 75.9567 109.54 75.81C109.547 75.6633 109.633 75.5367 109.8 75.43C109.907 75.3633 110.02 75.3367 110.14 75.35C110.26 75.3567 110.377 75.4167 110.49 75.53C110.683 75.7233 110.887 75.8733 111.1 75.98C111.313 76.0867 111.58 76.14 111.9 76.14C112 76.1333 112.11 76.12 112.23 76.1C112.35 76.0733 112.453 76.02 112.54 75.94C112.633 75.8533 112.68 75.7233 112.68 75.55C112.68 75.4033 112.63 75.2867 112.53 75.2C112.43 75.1133 112.297 75.04 112.13 74.98C111.97 74.92 111.79 74.8633 111.59 74.81C111.383 74.75 111.17 74.6833 110.95 74.61C110.737 74.5367 110.54 74.4433 110.36 74.33C110.18 74.21 110.033 74.0533 109.92 73.86C109.807 73.6667 109.75 73.4233 109.75 73.13C109.75 72.7967 109.843 72.5133 110.03 72.28C110.217 72.0467 110.457 71.8667 110.75 71.74C111.05 71.6133 111.363 71.55 111.69 71.55C111.897 71.55 112.113 71.5767 112.34 71.63C112.567 71.6767 112.783 71.7567 112.99 71.87C113.197 71.9767 113.37 72.12 113.51 72.3C113.583 72.4 113.627 72.52 113.64 72.66C113.653 72.8 113.59 72.9267 113.45 73.04C113.35 73.12 113.233 73.1567 113.1 73.15C112.967 73.1367 112.857 73.09 112.77 73.01C112.657 72.8633 112.503 72.7467 112.31 72.66C112.123 72.5733 111.907 72.53 111.66 72.53C111.56 72.53 111.45 72.5433 111.33 72.57C111.217 72.59 111.117 72.64 111.03 72.72C110.943 72.7933 110.9 72.9133 110.9 73.08C110.9 73.2333 110.95 73.3567 111.05 73.45C111.15 73.5367 111.283 73.61 111.45 73.67C111.623 73.7233 111.807 73.7767 112 73.83C112.2 73.8833 112.403 73.9467 112.61 74.02C112.817 74.0933 113.007 74.19 113.18 74.31C113.353 74.43 113.493 74.5867 113.6 74.78C113.707 74.9667 113.76 75.2067 113.76 75.5C113.76 75.84 113.66 76.13 113.46 76.37C113.26 76.61 113.01 76.7933 112.71 76.92C112.41 77.04 112.103 77.1 111.79 77.1C111.397 77.1 111.003 77.0333 110.61 76.9C110.217 76.76 109.89 76.5167 109.63 76.17ZM119.954 74.33C119.954 74.8767 119.831 75.36 119.584 75.78C119.344 76.1933 119.018 76.5167 118.604 76.75C118.198 76.9833 117.741 77.1 117.234 77.1C116.728 77.1 116.268 76.9833 115.854 76.75C115.448 76.5167 115.121 76.1933 114.874 75.78C114.634 75.36 114.514 74.8767 114.514 74.33C114.514 73.7833 114.634 73.3033 114.874 72.89C115.121 72.47 115.448 72.1433 115.854 71.91C116.268 71.67 116.728 71.55 117.234 71.55C117.741 71.55 118.198 71.67 118.604 71.91C119.018 72.1433 119.344 72.47 119.584 72.89C119.831 73.3033 119.954 73.7833 119.954 74.33ZM118.754 74.33C118.754 73.99 118.684 73.6967 118.544 73.45C118.411 73.1967 118.228 73 117.994 72.86C117.768 72.72 117.514 72.65 117.234 72.65C116.954 72.65 116.698 72.72 116.464 72.86C116.238 73 116.054 73.1967 115.914 73.45C115.781 73.6967 115.714 73.99 115.714 74.33C115.714 74.6633 115.781 74.9567 115.914 75.21C116.054 75.4567 116.238 75.65 116.464 75.79C116.698 75.93 116.954 76 117.234 76C117.514 76 117.768 75.93 117.994 75.79C118.228 75.65 118.411 75.4567 118.544 75.21C118.684 74.9567 118.754 74.6633 118.754 74.33ZM123.384 71.55C123.764 71.55 124.094 71.59 124.374 71.67C124.661 71.75 124.881 71.8633 125.034 72.01C125.194 72.15 125.274 72.32 125.274 72.52C125.274 72.6533 125.234 72.78 125.154 72.9C125.074 73.0133 124.958 73.07 124.804 73.07C124.698 73.07 124.608 73.0567 124.534 73.03C124.468 72.9967 124.408 72.9567 124.354 72.91C124.301 72.8633 124.238 72.82 124.164 72.78C124.098 72.74 123.994 72.71 123.854 72.69C123.721 72.6633 123.621 72.65 123.554 72.65C123.214 72.65 122.924 72.7233 122.684 72.87C122.451 73.0167 122.271 73.2167 122.144 73.47C122.018 73.7167 121.954 74.0033 121.954 74.33C121.954 74.65 122.018 74.9367 122.144 75.19C122.278 75.4367 122.458 75.6333 122.684 75.78C122.918 75.9267 123.184 76 123.484 76C123.651 76 123.794 75.99 123.914 75.97C124.034 75.95 124.134 75.92 124.214 75.88C124.308 75.8267 124.391 75.77 124.464 75.71C124.538 75.65 124.648 75.62 124.794 75.62C124.968 75.62 125.101 75.6767 125.194 75.79C125.288 75.8967 125.334 76.03 125.334 76.19C125.334 76.3567 125.241 76.51 125.054 76.65C124.868 76.7833 124.621 76.8933 124.314 76.98C124.014 77.06 123.688 77.1 123.334 77.1C122.808 77.1 122.351 76.98 121.964 76.74C121.578 76.4933 121.278 76.16 121.064 75.74C120.858 75.32 120.754 74.85 120.754 74.33C120.754 73.7833 120.864 73.3033 121.084 72.89C121.311 72.47 121.621 72.1433 122.014 71.91C122.414 71.67 122.871 71.55 123.384 71.55ZM127.33 76.39C127.33 76.5633 127.273 76.71 127.16 76.83C127.046 76.9433 126.903 77 126.73 77C126.556 77 126.413 76.9433 126.3 76.83C126.186 76.71 126.13 76.5633 126.13 76.39V72.26C126.13 72.0867 126.186 71.9433 126.3 71.83C126.413 71.71 126.556 71.65 126.73 71.65C126.903 71.65 127.046 71.71 127.16 71.83C127.273 71.9433 127.33 72.0867 127.33 72.26V76.39ZM126.72 71C126.493 71 126.333 70.9633 126.24 70.89C126.146 70.8167 126.1 70.6867 126.1 70.5V70.31C126.1 70.1167 126.15 69.9867 126.25 69.92C126.356 69.8467 126.516 69.81 126.73 69.81C126.963 69.81 127.126 69.8467 127.22 69.92C127.313 69.9933 127.36 70.1233 127.36 70.31V70.5C127.36 70.6933 127.31 70.8267 127.21 70.9C127.11 70.9667 126.946 71 126.72 71ZM131.083 77.1C130.516 77.1 130.023 76.9833 129.603 76.75C129.19 76.51 128.87 76.1867 128.643 75.78C128.423 75.3733 128.313 74.9133 128.313 74.4C128.313 73.8 128.433 73.29 128.673 72.87C128.92 72.4433 129.24 72.1167 129.633 71.89C130.026 71.6633 130.443 71.55 130.883 71.55C131.223 71.55 131.543 71.62 131.843 71.76C132.15 71.9 132.42 72.0933 132.653 72.34C132.886 72.58 133.07 72.86 133.203 73.18C133.343 73.5 133.413 73.84 133.413 74.2C133.406 74.36 133.343 74.49 133.223 74.59C133.103 74.69 132.963 74.74 132.803 74.74H128.983L128.683 73.74H132.353L132.133 73.94V73.67C132.12 73.4767 132.05 73.3033 131.923 73.15C131.803 72.9967 131.65 72.8767 131.463 72.79C131.283 72.6967 131.09 72.65 130.883 72.65C130.683 72.65 130.496 72.6767 130.323 72.73C130.15 72.7833 130 72.8733 129.873 73C129.746 73.1267 129.646 73.2967 129.573 73.51C129.5 73.7233 129.463 73.9933 129.463 74.32C129.463 74.68 129.536 74.9867 129.683 75.24C129.836 75.4867 130.03 75.6767 130.263 75.81C130.503 75.9367 130.756 76 131.023 76C131.27 76 131.466 75.98 131.613 75.94C131.76 75.9 131.876 75.8533 131.963 75.8C132.056 75.74 132.14 75.69 132.213 75.65C132.333 75.59 132.446 75.56 132.553 75.56C132.7 75.56 132.82 75.61 132.913 75.71C133.013 75.81 133.063 75.9267 133.063 76.06C133.063 76.24 132.97 76.4033 132.783 76.55C132.61 76.6967 132.366 76.8267 132.053 76.94C131.74 77.0467 131.416 77.1 131.083 77.1ZM130.893 71.31C130.84 71.31 130.77 71.2833 130.683 71.23C130.603 71.17 130.566 71.0867 130.573 70.98C130.573 70.92 130.593 70.8567 130.633 70.79L131.213 69.77C131.273 69.6633 131.35 69.57 131.443 69.49C131.536 69.41 131.643 69.37 131.763 69.37C131.95 69.37 132.086 69.42 132.173 69.52C132.26 69.6133 132.3 69.73 132.293 69.87C132.286 69.9367 132.266 70.0067 132.233 70.08C132.206 70.1533 132.163 70.2267 132.103 70.3L131.343 71.14C131.276 71.2133 131.203 71.26 131.123 71.28C131.043 71.3 130.966 71.31 130.893 71.31ZM134.152 76.17C134.085 76.0767 134.055 75.9567 134.062 75.81C134.068 75.6633 134.155 75.5367 134.322 75.43C134.428 75.3633 134.542 75.3367 134.662 75.35C134.782 75.3567 134.898 75.4167 135.012 75.53C135.205 75.7233 135.408 75.8733 135.622 75.98C135.835 76.0867 136.102 76.14 136.422 76.14C136.522 76.1333 136.632 76.12 136.752 76.1C136.872 76.0733 136.975 76.02 137.062 75.94C137.155 75.8533 137.202 75.7233 137.202 75.55C137.202 75.4033 137.152 75.2867 137.052 75.2C136.952 75.1133 136.818 75.04 136.652 74.98C136.492 74.92 136.312 74.8633 136.112 74.81C135.905 74.75 135.692 74.6833 135.472 74.61C135.258 74.5367 135.062 74.4433 134.882 74.33C134.702 74.21 134.555 74.0533 134.442 73.86C134.328 73.6667 134.272 73.4233 134.272 73.13C134.272 72.7967 134.365 72.5133 134.552 72.28C134.738 72.0467 134.978 71.8667 135.272 71.74C135.572 71.6133 135.885 71.55 136.212 71.55C136.418 71.55 136.635 71.5767 136.862 71.63C137.088 71.6767 137.305 71.7567 137.512 71.87C137.718 71.9767 137.892 72.12 138.032 72.3C138.105 72.4 138.148 72.52 138.162 72.66C138.175 72.8 138.112 72.9267 137.972 73.04C137.872 73.12 137.755 73.1567 137.622 73.15C137.488 73.1367 137.378 73.09 137.292 73.01C137.178 72.8633 137.025 72.7467 136.832 72.66C136.645 72.5733 136.428 72.53 136.182 72.53C136.082 72.53 135.972 72.5433 135.852 72.57C135.738 72.59 135.638 72.64 135.552 72.72C135.465 72.7933 135.422 72.9133 135.422 73.08C135.422 73.2333 135.472 73.3567 135.572 73.45C135.672 73.5367 135.805 73.61 135.972 73.67C136.145 73.7233 136.328 73.7767 136.522 73.83C136.722 73.8833 136.925 73.9467 137.132 74.02C137.338 74.0933 137.528 74.19 137.702 74.31C137.875 74.43 138.015 74.5867 138.122 74.78C138.228 74.9667 138.282 75.2067 138.282 75.5C138.282 75.84 138.182 76.13 137.982 76.37C137.782 76.61 137.532 76.7933 137.232 76.92C136.932 77.04 136.625 77.1 136.312 77.1C135.918 77.1 135.525 77.0333 135.132 76.9C134.738 76.76 134.412 76.5167 134.152 76.17Z" fill="#646464"/>
</svg>
