<svg width="1424" height="1000" viewBox="0 0 1424 1000" fill="none" xmlns="http://www.w3.org/2000/svg">
<path d="M1422.79 352.431C1425.99 259.9 1405.75 168.061 1363.96 85.442C1335.61 51.5414 1296.26 28.6638 1252.77 20.7956C1072.89 4.47408 892.271 -2.2156 711.68 0.755282C531.746 -2.35044 351.775 4.12337 172.529 20.1492C137.091 26.5955 104.296 43.2177 78.1455 67.9875C19.9638 121.644 13.4992 213.442 7.03455 291.017C-2.34485 430.496 -2.34485 570.447 7.03455 709.926C8.90478 753.588 15.4059 796.929 26.4284 839.218C34.2232 871.869 49.9935 902.077 72.3273 927.137C98.6557 953.219 132.215 970.787 168.65 977.562C308.022 994.765 448.454 1001.89 588.852 998.895C815.114 1002.13 1013.58 998.895 1248.24 980.794C1285.57 974.436 1320.08 956.845 1347.15 930.37C1365.25 912.263 1378.77 890.101 1386.59 865.723C1409.71 794.782 1421.06 720.535 1420.2 645.926C1422.79 609.724 1422.79 391.219 1422.79 352.431ZM565.579 684.714V284.553L948.285 485.603C840.972 545.078 699.397 612.31 565.579 684.714Z" fill="white"/>
</svg>
