<svg width="494" height="463" viewBox="0 0 494 463" fill="none" xmlns="http://www.w3.org/2000/svg">
<path d="M343.519 277.63H137.799C130.589 277.63 124.689 271.73 124.689 264.51V58.8C124.689 51.59 130.589 45.69 137.799 45.69H343.519C350.729 45.69 356.639 51.59 356.639 58.8V264.52C356.639 271.73 350.739 277.64 343.519 277.64" fill="#4B4A55"/>
<path d="M250 181.87H182.27V249.6H250V181.87Z" stroke="#77B7B7" stroke-width="3.08"/>
<path d="M299.73 270.38H231.99V202.64H299.73" fill="#77B7B7"/>
<path d="M124.689 261.45V267.89L245.979 147.11L412.589 312.69L415.159 310.12L245.719 140.68L124.689 261.45Z" fill="#77B7B7"/>
<path d="M38.2284 343.56V318.884H53.0246V321.534H41.2165V329.872H51.9161V332.523H41.2165V343.56H38.2284ZM57.558 343.56V325.053H60.3052V327.848H60.498C60.8353 326.932 61.4458 326.189 62.3294 325.619C63.213 325.049 64.2091 324.764 65.3176 324.764C65.5264 324.764 65.7875 324.768 66.1008 324.776C66.414 324.784 66.651 324.796 66.8116 324.812V327.704C66.7152 327.679 66.4944 327.643 66.1489 327.595C65.8116 327.539 65.4541 327.511 65.0766 327.511C64.1769 327.511 63.3737 327.699 62.6668 328.077C61.9679 328.447 61.4137 328.961 61.004 329.619C60.6024 330.27 60.4016 331.013 60.4016 331.848V343.56H57.558ZM75.6285 343.994C74.4557 343.994 73.3914 343.773 72.4355 343.331C71.4796 342.881 70.7205 342.235 70.1583 341.391C69.596 340.54 69.3148 339.512 69.3148 338.307C69.3148 337.246 69.5237 336.387 69.9414 335.728C70.3591 335.061 70.9173 334.539 71.6162 334.162C72.315 333.784 73.0862 333.503 73.9296 333.318C74.7811 333.126 75.6365 332.973 76.496 332.86C77.6206 332.716 78.5323 332.607 79.2312 332.535C79.938 332.455 80.4521 332.322 80.7734 332.138C81.1028 331.953 81.2674 331.631 81.2674 331.174V331.077C81.2674 329.888 80.9421 328.965 80.2915 328.306C79.6489 327.647 78.6729 327.318 77.3636 327.318C76.006 327.318 74.9417 327.615 74.1706 328.21C73.3994 328.804 72.8572 329.439 72.544 330.113L69.845 329.149C70.3269 328.025 70.9696 327.149 71.7728 326.523C72.5841 325.888 73.4677 325.446 74.4236 325.197C75.3875 324.94 76.3354 324.812 77.2672 324.812C77.8616 324.812 78.5444 324.884 79.3155 325.029C80.0947 325.165 80.8457 325.45 81.5687 325.884C82.2996 326.318 82.9061 326.973 83.3881 327.848C83.87 328.724 84.111 329.896 84.111 331.366V343.56H81.2674V341.054H81.1228C80.9301 341.455 80.6088 341.885 80.1589 342.343C79.7091 342.801 79.1107 343.19 78.3636 343.512C77.6166 343.833 76.7049 343.994 75.6285 343.994ZM76.0623 341.439C77.1868 341.439 78.1347 341.218 78.9058 340.777C79.685 340.335 80.2714 339.765 80.665 339.066C81.0666 338.367 81.2674 337.632 81.2674 336.861V334.258C81.1469 334.403 80.8819 334.535 80.4722 334.656C80.0706 334.768 79.6047 334.869 79.0745 334.957C78.5524 335.037 78.0423 335.11 77.5443 335.174C77.0543 335.23 76.6567 335.278 76.3514 335.318C75.6124 335.415 74.9216 335.572 74.279 335.788C73.6444 335.997 73.1303 336.315 72.7367 336.74C72.3512 337.158 72.1584 337.728 72.1584 338.451C72.1584 339.439 72.5239 340.186 73.2548 340.692C73.9939 341.19 74.9297 341.439 76.0623 341.439ZM92.1447 332.427V343.56H89.3011V325.053H92.0483V327.944H92.2893C92.723 327.005 93.3817 326.25 94.2653 325.679C95.1489 325.101 96.2895 324.812 97.6872 324.812C98.9403 324.812 100.037 325.069 100.977 325.583C101.916 326.089 102.647 326.86 103.17 327.896C103.692 328.924 103.953 330.226 103.953 331.8V343.56H101.109V331.993C101.109 330.539 100.732 329.406 99.9765 328.595C99.2215 327.776 98.1852 327.366 96.8679 327.366C95.9602 327.366 95.1489 327.563 94.434 327.957C93.7271 328.35 93.1688 328.924 92.7592 329.68C92.3495 330.435 92.1447 331.35 92.1447 332.427ZM116.667 343.946C114.932 343.946 113.438 343.536 112.185 342.717C110.932 341.897 109.968 340.769 109.293 339.331C108.619 337.893 108.281 336.25 108.281 334.403C108.281 332.523 108.627 330.864 109.318 329.427C110.016 327.981 110.988 326.852 112.233 326.041C113.486 325.221 114.948 324.812 116.619 324.812C117.921 324.812 119.093 325.053 120.138 325.535C121.182 326.017 122.037 326.691 122.704 327.559C123.371 328.426 123.784 329.439 123.945 330.595H121.101C120.885 329.752 120.403 329.005 119.656 328.354C118.917 327.695 117.921 327.366 116.667 327.366C115.559 327.366 114.587 327.655 113.752 328.234C112.924 328.804 112.278 329.611 111.812 330.656C111.354 331.692 111.125 332.909 111.125 334.306C111.125 335.736 111.35 336.981 111.8 338.042C112.257 339.102 112.9 339.925 113.727 340.512C114.563 341.098 115.543 341.391 116.667 341.391C117.406 341.391 118.077 341.263 118.68 341.006C119.282 340.749 119.792 340.379 120.21 339.897C120.628 339.415 120.925 338.837 121.101 338.162H123.945C123.784 339.254 123.387 340.238 122.752 341.114C122.126 341.982 121.294 342.672 120.258 343.186C119.23 343.693 118.033 343.946 116.667 343.946ZM115.318 343.464H117.68L117.487 344.428C118.113 344.524 118.688 344.785 119.21 345.211C119.732 345.644 119.993 346.331 119.993 347.271C119.993 348.307 119.563 349.151 118.704 349.801C117.852 350.46 116.595 350.789 114.932 350.789L114.836 348.91C115.583 348.91 116.202 348.789 116.692 348.548C117.19 348.315 117.439 347.922 117.439 347.367C117.439 346.813 117.234 346.436 116.824 346.235C116.414 346.034 115.752 345.898 114.836 345.825L115.318 343.464ZM135.621 343.946C133.95 343.946 132.484 343.548 131.223 342.753C129.97 341.957 128.99 340.845 128.283 339.415C127.584 337.985 127.234 336.315 127.234 334.403C127.234 332.475 127.584 330.792 128.283 329.354C128.99 327.916 129.97 326.8 131.223 326.005C132.484 325.209 133.95 324.812 135.621 324.812C137.291 324.812 138.753 325.209 140.006 326.005C141.267 326.8 142.247 327.916 142.946 329.354C143.653 330.792 144.007 332.475 144.007 334.403C144.007 336.315 143.653 337.985 142.946 339.415C142.247 340.845 141.267 341.957 140.006 342.753C138.753 343.548 137.291 343.946 135.621 343.946ZM135.621 341.391C136.89 341.391 137.934 341.066 138.753 340.415C139.573 339.765 140.179 338.909 140.573 337.849C140.966 336.788 141.163 335.64 141.163 334.403C141.163 333.166 140.966 332.013 140.573 330.945C140.179 329.876 139.573 329.013 138.753 328.354C137.934 327.695 136.89 327.366 135.621 327.366C134.351 327.366 133.307 327.695 132.488 328.354C131.668 329.013 131.062 329.876 130.668 330.945C130.275 332.013 130.078 333.166 130.078 334.403C130.078 335.64 130.275 336.788 130.668 337.849C131.062 338.909 131.668 339.765 132.488 340.415C133.307 341.066 134.351 341.391 135.621 341.391ZM148.347 343.56V325.053H151.191V343.56H148.347ZM149.793 321.968C149.239 321.968 148.761 321.779 148.359 321.402C147.966 321.024 147.769 320.57 147.769 320.04C147.769 319.51 147.966 319.056 148.359 318.679C148.761 318.301 149.239 318.112 149.793 318.112C150.347 318.112 150.821 318.301 151.215 318.679C151.617 319.056 151.817 319.51 151.817 320.04C151.817 320.57 151.617 321.024 151.215 321.402C150.821 321.779 150.347 321.968 149.793 321.968ZM169.508 329.198L166.954 329.921C166.793 329.495 166.556 329.081 166.243 328.679C165.938 328.27 165.52 327.932 164.99 327.667C164.46 327.402 163.781 327.27 162.954 327.27C161.821 327.27 160.877 327.531 160.122 328.053C159.375 328.567 159.002 329.222 159.002 330.017C159.002 330.724 159.259 331.282 159.773 331.692C160.287 332.101 161.09 332.443 162.183 332.716L164.93 333.391C166.584 333.792 167.817 334.407 168.629 335.234C169.44 336.053 169.846 337.11 169.846 338.403C169.846 339.463 169.54 340.411 168.93 341.247C168.328 342.082 167.484 342.741 166.4 343.223C165.315 343.705 164.054 343.946 162.616 343.946C160.729 343.946 159.166 343.536 157.929 342.717C156.692 341.897 155.909 340.7 155.58 339.126L158.279 338.451C158.536 339.447 159.022 340.194 159.737 340.692C160.46 341.19 161.403 341.439 162.568 341.439C163.893 341.439 164.946 341.158 165.725 340.596C166.512 340.026 166.906 339.343 166.906 338.548C166.906 337.905 166.681 337.367 166.231 336.933C165.781 336.491 165.09 336.162 164.159 335.945L161.074 335.222C159.379 334.82 158.134 334.198 157.339 333.354C156.552 332.503 156.158 331.439 156.158 330.162C156.158 329.117 156.451 328.193 157.038 327.39C157.632 326.587 158.439 325.956 159.459 325.499C160.488 325.041 161.652 324.812 162.954 324.812C164.785 324.812 166.223 325.213 167.267 326.017C168.319 326.82 169.067 327.88 169.508 329.198ZM184.054 343.56V318.884H192.682C194.401 318.884 195.818 319.181 196.935 319.775C198.051 320.362 198.883 321.153 199.429 322.149C199.975 323.137 200.248 324.233 200.248 325.438C200.248 326.499 200.06 327.374 199.682 328.065C199.313 328.756 198.823 329.302 198.212 329.704C197.61 330.105 196.955 330.402 196.248 330.595V330.836C197.003 330.884 197.762 331.15 198.525 331.631C199.288 332.113 199.927 332.804 200.441 333.704C200.955 334.604 201.212 335.704 201.212 337.005C201.212 338.242 200.931 339.355 200.369 340.343C199.807 341.331 198.919 342.114 197.706 342.692C196.493 343.271 194.915 343.56 192.971 343.56H184.054ZM187.043 340.909H192.971C194.923 340.909 196.308 340.532 197.128 339.777C197.955 339.014 198.369 338.09 198.369 337.005C198.369 336.17 198.156 335.399 197.73 334.692C197.304 333.977 196.698 333.407 195.911 332.981C195.124 332.547 194.192 332.33 193.115 332.33H187.043V340.909ZM187.043 329.728H192.585C193.485 329.728 194.296 329.551 195.019 329.198C195.75 328.844 196.328 328.346 196.754 327.704C197.188 327.061 197.405 326.306 197.405 325.438C197.405 324.354 197.027 323.434 196.272 322.679C195.517 321.916 194.32 321.534 192.682 321.534H187.043V329.728ZM211.183 343.994C210.01 343.994 208.946 343.773 207.99 343.331C207.034 342.881 206.275 342.235 205.713 341.391C205.15 340.54 204.869 339.512 204.869 338.307C204.869 337.246 205.078 336.387 205.496 335.728C205.913 335.061 206.472 334.539 207.171 334.162C207.869 333.784 208.64 333.503 209.484 333.318C210.335 333.126 211.191 332.973 212.05 332.86C213.175 332.716 214.087 332.607 214.785 332.535C215.492 332.455 216.006 332.322 216.328 332.138C216.657 331.953 216.822 331.631 216.822 331.174V331.077C216.822 329.888 216.496 328.965 215.846 328.306C215.203 327.647 214.227 327.318 212.918 327.318C211.56 327.318 210.496 327.615 209.725 328.21C208.954 328.804 208.412 329.439 208.098 330.113L205.399 329.149C205.881 328.025 206.524 327.149 207.327 326.523C208.138 325.888 209.022 325.446 209.978 325.197C210.942 324.94 211.89 324.812 212.821 324.812C213.416 324.812 214.099 324.884 214.87 325.029C215.649 325.165 216.4 325.45 217.123 325.884C217.854 326.318 218.46 326.973 218.942 327.848C219.424 328.724 219.665 329.896 219.665 331.366V343.56H216.822V341.054H216.677C216.484 341.455 216.163 341.885 215.713 342.343C215.263 342.801 214.665 343.19 213.918 343.512C213.171 343.833 212.259 343.994 211.183 343.994ZM211.617 341.439C212.741 341.439 213.689 341.218 214.46 340.777C215.239 340.335 215.826 339.765 216.219 339.066C216.621 338.367 216.822 337.632 216.822 336.861V334.258C216.701 334.403 216.436 334.535 216.027 334.656C215.625 334.768 215.159 334.869 214.629 334.957C214.107 335.037 213.597 335.11 213.099 335.174C212.609 335.23 212.211 335.278 211.906 335.318C211.167 335.415 210.476 335.572 209.833 335.788C209.199 335.997 208.685 336.315 208.291 336.74C207.906 337.158 207.713 337.728 207.713 338.451C207.713 339.439 208.078 340.186 208.809 340.692C209.548 341.19 210.484 341.439 211.617 341.439ZM224.855 343.56V325.053H227.603V327.848H227.795C228.133 326.932 228.743 326.189 229.627 325.619C230.51 325.049 231.506 324.764 232.615 324.764C232.824 324.764 233.085 324.768 233.398 324.776C233.711 324.784 233.948 324.796 234.109 324.812V327.704C234.013 327.679 233.792 327.643 233.446 327.595C233.109 327.539 232.752 327.511 232.374 327.511C231.474 327.511 230.671 327.699 229.964 328.077C229.265 328.447 228.711 328.961 228.301 329.619C227.9 330.27 227.699 331.013 227.699 331.848V343.56H224.855ZM237.865 343.56V318.884H240.709V327.993H240.95C241.159 327.671 241.448 327.262 241.817 326.764C242.195 326.258 242.733 325.808 243.432 325.414C244.139 325.013 245.095 324.812 246.3 324.812C247.858 324.812 249.232 325.201 250.42 325.98C251.609 326.76 252.537 327.864 253.204 329.294C253.87 330.724 254.204 332.411 254.204 334.355C254.204 336.315 253.87 338.013 253.204 339.451C252.537 340.881 251.613 341.99 250.432 342.777C249.252 343.556 247.89 343.946 246.348 343.946C245.159 343.946 244.207 343.749 243.492 343.355C242.777 342.954 242.227 342.5 241.842 341.994C241.456 341.48 241.159 341.054 240.95 340.716H240.613V343.56H237.865ZM240.661 334.306C240.661 335.704 240.866 336.937 241.275 338.005C241.685 339.066 242.283 339.897 243.071 340.5C243.858 341.094 244.822 341.391 245.962 341.391C247.151 341.391 248.143 341.078 248.938 340.451C249.742 339.817 250.344 338.965 250.746 337.897C251.155 336.821 251.36 335.624 251.36 334.306C251.36 333.005 251.159 331.832 250.758 330.788C250.364 329.736 249.766 328.904 248.962 328.294C248.167 327.675 247.167 327.366 245.962 327.366C244.806 327.366 243.834 327.659 243.046 328.246C242.259 328.824 241.665 329.635 241.263 330.68C240.862 331.716 240.661 332.925 240.661 334.306ZM258.553 343.56V325.053H261.397V343.56H258.553ZM259.999 321.968C259.445 321.968 258.967 321.779 258.566 321.402C258.172 321.024 257.975 320.57 257.975 320.04C257.975 319.51 258.172 319.056 258.566 318.679C258.967 318.301 259.445 318.112 259.999 318.112C260.554 318.112 261.028 318.301 261.421 318.679C261.823 319.056 262.024 319.51 262.024 320.04C262.024 320.57 261.823 321.024 261.421 321.402C261.028 321.779 260.554 321.968 259.999 321.968ZM274.365 343.946C272.582 343.946 271.043 343.552 269.75 342.765C268.465 341.97 267.473 340.861 266.774 339.439C266.083 338.009 265.738 336.347 265.738 334.451C265.738 332.555 266.083 330.884 266.774 329.439C267.473 327.985 268.445 326.852 269.69 326.041C270.943 325.221 272.405 324.812 274.076 324.812C275.04 324.812 275.991 324.972 276.931 325.294C277.871 325.615 278.727 326.137 279.498 326.86C280.269 327.575 280.883 328.523 281.341 329.704C281.799 330.884 282.028 332.338 282.028 334.065V335.27H267.762V332.812H279.136C279.136 331.768 278.927 330.836 278.51 330.017C278.1 329.198 277.514 328.551 276.751 328.077C275.995 327.603 275.104 327.366 274.076 327.366C272.943 327.366 271.963 327.647 271.136 328.21C270.316 328.764 269.686 329.487 269.244 330.378C268.802 331.27 268.581 332.226 268.581 333.246V334.885C268.581 336.282 268.822 337.467 269.304 338.439C269.794 339.403 270.473 340.138 271.341 340.644C272.208 341.142 273.216 341.391 274.365 341.391C275.112 341.391 275.787 341.287 276.389 341.078C277 340.861 277.526 340.54 277.967 340.114C278.409 339.68 278.751 339.142 278.992 338.499L281.739 339.271C281.45 340.202 280.964 341.022 280.281 341.729C279.598 342.427 278.755 342.974 277.751 343.367C276.746 343.753 275.618 343.946 274.365 343.946ZM272.726 322.547L268.967 316.956H272.292L275.232 322.547H272.726ZM286.354 343.56V325.053H289.101V327.848H289.294C289.631 326.932 290.241 326.189 291.125 325.619C292.009 325.049 293.005 324.764 294.113 324.764C294.322 324.764 294.583 324.768 294.896 324.776C295.21 324.784 295.447 324.796 295.607 324.812V327.704C295.511 327.679 295.29 327.643 294.945 327.595C294.607 327.539 294.25 327.511 293.872 327.511C292.972 327.511 292.169 327.699 291.462 328.077C290.763 328.447 290.209 328.961 289.8 329.619C289.398 330.27 289.197 331.013 289.197 331.848V343.56H286.354ZM306.174 343.946C304.391 343.946 302.853 343.552 301.559 342.765C300.274 341.97 299.282 340.861 298.583 339.439C297.893 338.009 297.547 336.347 297.547 334.451C297.547 332.555 297.893 330.884 298.583 329.439C299.282 327.985 300.254 326.852 301.499 326.041C302.752 325.221 304.214 324.812 305.885 324.812C306.849 324.812 307.801 324.972 308.741 325.294C309.68 325.615 310.536 326.137 311.307 326.86C312.078 327.575 312.693 328.523 313.151 329.704C313.608 330.884 313.837 332.338 313.837 334.065V335.27H299.571V332.812H310.946C310.946 331.768 310.737 330.836 310.319 330.017C309.909 329.198 309.323 328.551 308.56 328.077C307.805 327.603 306.913 327.366 305.885 327.366C304.752 327.366 303.772 327.647 302.945 328.21C302.126 328.764 301.495 329.487 301.053 330.378C300.612 331.27 300.391 332.226 300.391 333.246V334.885C300.391 336.282 300.632 337.467 301.114 338.439C301.604 339.403 302.282 340.138 303.15 340.644C304.017 341.142 305.026 341.391 306.174 341.391C306.921 341.391 307.596 341.287 308.198 341.078C308.809 340.861 309.335 340.54 309.777 340.114C310.219 339.68 310.56 339.142 310.801 338.499L313.548 339.271C313.259 340.202 312.773 341.022 312.09 341.729C311.407 342.427 310.564 342.974 309.56 343.367C308.556 343.753 307.427 343.946 306.174 343.946Z" fill="#4B4A55"/>
<path d="M161.349 371.34C160.243 371.34 159.29 371.137 158.49 370.732C157.691 370.327 157.075 369.771 156.642 369.065C156.21 368.358 155.993 367.551 155.993 366.642C155.993 365.941 156.141 365.319 156.437 364.777C156.738 364.23 157.151 363.723 157.677 363.258C158.208 362.787 158.819 362.316 159.509 361.845L161.94 360.038C162.417 359.726 162.797 359.392 163.082 359.036C163.372 358.68 163.517 358.214 163.517 357.639C163.517 357.212 163.328 356.799 162.95 356.399C162.578 355.999 162.088 355.8 161.48 355.8C161.053 355.8 160.675 355.909 160.347 356.128C160.024 356.342 159.769 356.615 159.583 356.949C159.402 357.278 159.312 357.617 159.312 357.968C159.312 358.362 159.418 358.762 159.632 359.167C159.851 359.567 160.128 359.978 160.462 360.399C160.801 360.815 161.152 361.242 161.513 361.681L169.234 371.11H166.901L160.527 363.422C159.936 362.71 159.399 362.064 158.917 361.483C158.436 360.903 158.052 360.331 157.768 359.767C157.483 359.203 157.34 358.592 157.34 357.935C157.34 357.179 157.507 356.517 157.841 355.947C158.181 355.372 158.655 354.926 159.262 354.609C159.876 354.285 160.593 354.124 161.414 354.124C162.258 354.124 162.983 354.288 163.591 354.617C164.199 354.94 164.667 355.37 164.996 355.906C165.324 356.437 165.488 357.015 165.488 357.639C165.488 358.444 165.289 359.143 164.889 359.734C164.489 360.325 163.944 360.876 163.254 361.385L159.903 363.882C159.147 364.44 158.635 364.983 158.367 365.508C158.099 366.034 157.965 366.412 157.965 366.642C157.965 367.167 158.102 367.657 158.375 368.112C158.649 368.566 159.035 368.933 159.533 369.213C160.032 369.492 160.615 369.632 161.283 369.632C161.918 369.632 162.537 369.497 163.139 369.229C163.742 368.955 164.287 368.561 164.774 368.046C165.267 367.532 165.655 366.913 165.94 366.19C166.23 365.467 166.376 364.654 166.376 363.75H168.248C168.248 364.868 168.12 365.779 167.862 366.486C167.605 367.192 167.315 367.745 166.992 368.145C166.669 368.545 166.408 368.843 166.211 369.04C166.146 369.122 166.085 369.204 166.031 369.287C165.976 369.369 165.916 369.451 165.85 369.533C165.308 370.141 164.623 370.595 163.796 370.896C162.97 371.192 162.154 371.34 161.349 371.34ZM181.598 371.406C180.798 371.406 180.073 371.255 179.421 370.954C178.769 370.647 178.252 370.206 177.869 369.632C177.485 369.051 177.294 368.35 177.294 367.529C177.294 366.806 177.436 366.22 177.721 365.771C178.006 365.317 178.386 364.961 178.863 364.703C179.339 364.446 179.865 364.254 180.44 364.128C181.02 363.997 181.603 363.893 182.189 363.816C182.956 363.718 183.577 363.644 184.054 363.594C184.536 363.54 184.886 363.449 185.105 363.323C185.33 363.197 185.442 362.978 185.442 362.666V362.601C185.442 361.79 185.22 361.16 184.776 360.711C184.338 360.262 183.673 360.038 182.781 360.038C181.855 360.038 181.13 360.24 180.604 360.646C180.078 361.051 179.709 361.483 179.495 361.943L177.655 361.286C177.984 360.52 178.422 359.923 178.969 359.496C179.522 359.063 180.125 358.762 180.776 358.592C181.433 358.417 182.08 358.329 182.715 358.329C183.12 358.329 183.585 358.379 184.111 358.477C184.642 358.57 185.154 358.765 185.647 359.06C186.145 359.356 186.559 359.802 186.887 360.399C187.216 360.996 187.38 361.796 187.38 362.798V371.11H185.442V369.402H185.343C185.212 369.675 184.993 369.968 184.686 370.28C184.379 370.593 183.972 370.858 183.462 371.077C182.953 371.296 182.331 371.406 181.598 371.406ZM181.893 369.664C182.66 369.664 183.306 369.514 183.832 369.213C184.363 368.911 184.763 368.523 185.031 368.046C185.305 367.57 185.442 367.069 185.442 366.543V364.769C185.36 364.868 185.179 364.958 184.9 365.04C184.626 365.117 184.308 365.185 183.947 365.245C183.591 365.3 183.243 365.349 182.904 365.393C182.57 365.432 182.299 365.464 182.091 365.492C181.587 365.557 181.116 365.664 180.678 365.812C180.245 365.954 179.895 366.171 179.626 366.461C179.364 366.746 179.232 367.135 179.232 367.627C179.232 368.301 179.481 368.81 179.98 369.155C180.483 369.495 181.121 369.664 181.893 369.664ZM199.855 361.319L198.114 361.812C198.004 361.522 197.843 361.24 197.629 360.966C197.421 360.687 197.136 360.457 196.775 360.276C196.413 360.095 195.951 360.005 195.387 360.005C194.615 360.005 193.971 360.183 193.456 360.539C192.947 360.889 192.692 361.336 192.692 361.878C192.692 362.36 192.868 362.74 193.218 363.019C193.569 363.299 194.116 363.531 194.861 363.718L196.734 364.178C197.862 364.451 198.702 364.87 199.255 365.434C199.808 365.993 200.085 366.713 200.085 367.594C200.085 368.317 199.877 368.963 199.461 369.533C199.05 370.102 198.475 370.551 197.736 370.88C196.997 371.209 196.137 371.373 195.157 371.373C193.87 371.373 192.805 371.094 191.961 370.535C191.118 369.976 190.584 369.161 190.36 368.087L192.2 367.627C192.375 368.306 192.706 368.816 193.194 369.155C193.686 369.495 194.33 369.664 195.124 369.664C196.027 369.664 196.745 369.473 197.276 369.089C197.812 368.701 198.081 368.235 198.081 367.693C198.081 367.255 197.927 366.888 197.621 366.592C197.314 366.291 196.843 366.067 196.208 365.919L194.105 365.426C192.95 365.152 192.101 364.728 191.559 364.153C191.022 363.572 190.754 362.847 190.754 361.976C190.754 361.264 190.954 360.635 191.354 360.087C191.759 359.54 192.309 359.11 193.005 358.798C193.706 358.485 194.5 358.329 195.387 358.329C196.635 358.329 197.615 358.603 198.327 359.151C199.044 359.698 199.554 360.421 199.855 361.319ZM211.939 361.319L210.198 361.812C210.089 361.522 209.927 361.24 209.713 360.966C209.505 360.687 209.221 360.457 208.859 360.276C208.498 360.095 208.035 360.005 207.471 360.005C206.699 360.005 206.056 360.183 205.541 360.539C205.032 360.889 204.777 361.336 204.777 361.878C204.777 362.36 204.952 362.74 205.303 363.019C205.653 363.299 206.201 363.531 206.945 363.718L208.818 364.178C209.946 364.451 210.787 364.87 211.34 365.434C211.893 365.993 212.169 366.713 212.169 367.594C212.169 368.317 211.961 368.963 211.545 369.533C211.134 370.102 210.56 370.551 209.82 370.88C209.081 371.209 208.221 371.373 207.241 371.373C205.954 371.373 204.889 371.094 204.046 370.535C203.203 369.976 202.669 369.161 202.444 368.087L204.284 367.627C204.459 368.306 204.791 368.816 205.278 369.155C205.771 369.495 206.414 369.664 207.208 369.664C208.112 369.664 208.829 369.473 209.36 369.089C209.897 368.701 210.165 368.235 210.165 367.693C210.165 367.255 210.012 366.888 209.705 366.592C209.399 366.291 208.928 366.067 208.293 365.919L206.19 365.426C205.034 365.152 204.186 364.728 203.644 364.153C203.107 363.572 202.839 362.847 202.839 361.976C202.839 361.264 203.038 360.635 203.438 360.087C203.843 359.54 204.394 359.11 205.089 358.798C205.79 358.485 206.584 358.329 207.471 358.329C208.72 358.329 209.7 358.603 210.412 359.151C211.129 359.698 211.638 360.421 211.939 361.319ZM220.213 371.373C219.074 371.373 218.074 371.102 217.215 370.56C216.36 370.018 215.692 369.259 215.211 368.284C214.734 367.31 214.496 366.171 214.496 364.868C214.496 363.553 214.734 362.406 215.211 361.426C215.692 360.446 216.36 359.685 217.215 359.143C218.074 358.6 219.074 358.329 220.213 358.329C221.352 358.329 222.348 358.6 223.203 359.143C224.062 359.685 224.73 360.446 225.207 361.426C225.689 362.406 225.93 363.553 225.93 364.868C225.93 366.171 225.689 367.31 225.207 368.284C224.73 369.259 224.062 370.018 223.203 370.56C222.348 371.102 221.352 371.373 220.213 371.373ZM220.213 369.632C221.078 369.632 221.79 369.41 222.348 368.966C222.907 368.523 223.32 367.939 223.589 367.217C223.857 366.494 223.991 365.711 223.991 364.868C223.991 364.024 223.857 363.238 223.589 362.51C223.32 361.782 222.907 361.193 222.348 360.744C221.79 360.295 221.078 360.071 220.213 360.071C219.348 360.071 218.636 360.295 218.077 360.744C217.519 361.193 217.105 361.782 216.837 362.51C216.569 363.238 216.434 364.024 216.434 364.868C216.434 365.711 216.569 366.494 216.837 367.217C217.105 367.939 217.519 368.523 218.077 368.966C218.636 369.41 219.348 369.632 220.213 369.632ZM234.014 371.373C232.831 371.373 231.813 371.094 230.958 370.535C230.104 369.976 229.447 369.207 228.987 368.227C228.527 367.247 228.297 366.127 228.297 364.868C228.297 363.586 228.533 362.455 229.004 361.475C229.48 360.49 230.143 359.72 230.991 359.167C231.846 358.609 232.842 358.329 233.981 358.329C234.868 358.329 235.668 358.494 236.38 358.822C237.091 359.151 237.675 359.611 238.129 360.202C238.584 360.793 238.866 361.483 238.975 362.272H237.037C236.889 361.697 236.56 361.188 236.051 360.744C235.547 360.295 234.868 360.071 234.014 360.071C233.258 360.071 232.596 360.268 232.026 360.662C231.462 361.051 231.021 361.601 230.704 362.313C230.392 363.019 230.236 363.849 230.236 364.802C230.236 365.777 230.389 366.625 230.696 367.348C231.008 368.071 231.446 368.632 232.01 369.032C232.579 369.432 233.247 369.632 234.014 369.632C234.518 369.632 234.975 369.544 235.386 369.369C235.796 369.193 236.144 368.942 236.429 368.613C236.714 368.284 236.916 367.89 237.037 367.43H238.975C238.866 368.175 238.595 368.846 238.162 369.443C237.735 370.034 237.168 370.505 236.462 370.855C235.761 371.2 234.945 371.373 234.014 371.373ZM241.809 371.11V358.494H243.747V371.11H241.809ZM242.794 356.391C242.417 356.391 242.091 356.262 241.817 356.005C241.549 355.747 241.415 355.438 241.415 355.077C241.415 354.715 241.549 354.406 241.817 354.149C242.091 353.891 242.417 353.762 242.794 353.762C243.172 353.762 243.495 353.891 243.764 354.149C244.038 354.406 244.174 354.715 244.174 355.077C244.174 355.438 244.038 355.747 243.764 356.005C243.495 356.262 243.172 356.391 242.794 356.391ZM252.587 371.373C251.372 371.373 250.323 371.105 249.441 370.568C248.565 370.026 247.889 369.27 247.413 368.301C246.942 367.326 246.706 366.193 246.706 364.9C246.706 363.608 246.942 362.469 247.413 361.483C247.889 360.492 248.552 359.72 249.4 359.167C250.255 358.609 251.251 358.329 252.39 358.329C253.047 358.329 253.696 358.439 254.337 358.658C254.978 358.877 255.561 359.233 256.086 359.726C256.612 360.213 257.031 360.859 257.343 361.664C257.655 362.469 257.811 363.46 257.811 364.638V365.459H248.086V363.783H255.84C255.84 363.071 255.698 362.436 255.413 361.878C255.134 361.319 254.734 360.878 254.214 360.555C253.699 360.232 253.091 360.071 252.39 360.071C251.618 360.071 250.95 360.262 250.386 360.646C249.828 361.023 249.398 361.516 249.097 362.124C248.795 362.732 248.645 363.384 248.645 364.079V365.196C248.645 366.149 248.809 366.957 249.138 367.619C249.472 368.276 249.934 368.777 250.526 369.122C251.117 369.462 251.804 369.632 252.587 369.632C253.097 369.632 253.557 369.56 253.967 369.418C254.383 369.27 254.742 369.051 255.043 368.761C255.344 368.465 255.577 368.098 255.741 367.66L257.614 368.186C257.417 368.821 257.086 369.38 256.62 369.861C256.155 370.338 255.58 370.71 254.895 370.979C254.211 371.241 253.442 371.373 252.587 371.373ZM251.405 356.785L253.409 352.974H255.676L253.113 356.785H251.405ZM269.697 361.319L267.955 361.812C267.846 361.522 267.684 361.24 267.471 360.966C267.263 360.687 266.978 360.457 266.616 360.276C266.255 360.095 265.792 360.005 265.228 360.005C264.456 360.005 263.813 360.183 263.298 360.539C262.789 360.889 262.534 361.336 262.534 361.878C262.534 362.36 262.709 362.74 263.06 363.019C263.41 363.299 263.958 363.531 264.703 363.718L266.575 364.178C267.703 364.451 268.544 364.87 269.097 365.434C269.65 365.993 269.927 366.713 269.927 367.594C269.927 368.317 269.719 368.963 269.302 369.533C268.892 370.102 268.317 370.551 267.578 370.88C266.838 371.209 265.979 371.373 264.998 371.373C263.712 371.373 262.647 371.094 261.803 370.535C260.96 369.976 260.426 369.161 260.202 368.087L262.041 367.627C262.217 368.306 262.548 368.816 263.035 369.155C263.528 369.495 264.172 369.664 264.966 369.664C265.869 369.664 266.586 369.473 267.118 369.089C267.654 368.701 267.922 368.235 267.922 367.693C267.922 367.255 267.769 366.888 267.463 366.592C267.156 366.291 266.685 366.067 266.05 365.919L263.947 365.426C262.792 365.152 261.943 364.728 261.401 364.153C260.864 363.572 260.596 362.847 260.596 361.976C260.596 361.264 260.796 360.635 261.195 360.087C261.601 359.54 262.151 359.11 262.846 358.798C263.547 358.485 264.341 358.329 265.228 358.329C266.477 358.329 267.457 358.603 268.169 359.151C268.886 359.698 269.395 360.421 269.697 361.319Z" fill="#4B4A55"/>
<path d="M290.47 270.38H241.24C236.15 270.38 231.99 266.22 231.99 261.13V211.9C231.99 206.81 236.15 202.65 241.24 202.65H290.47C295.56 202.65 299.72 206.81 299.72 211.9V261.13C299.72 266.22 295.56 270.38 290.47 270.38Z" fill="#77B7B7"/>
<path d="M140.789 76.96V61.8182H143.116V76.96H140.789ZM141.972 59.2946C141.519 59.2946 141.128 59.1401 140.799 58.8312C140.477 58.5224 140.316 58.151 140.316 57.7173C140.316 57.2835 140.477 56.9122 140.799 56.6033C141.128 56.2945 141.519 56.14 141.972 56.14C142.426 56.14 142.814 56.2945 143.136 56.6033C143.464 56.9122 143.629 57.2835 143.629 57.7173C143.629 58.151 143.464 58.5224 143.136 58.8312C142.814 59.1401 142.426 59.2946 141.972 59.2946ZM147.377 76.96V61.8182H149.625V64.1841H149.822C150.137 63.3758 150.647 62.7481 151.35 62.3012C152.053 61.8478 152.898 61.621 153.883 61.621C154.882 61.621 155.714 61.8478 156.377 62.3012C157.048 62.7481 157.57 63.3758 157.945 64.1841H158.103C158.49 63.402 159.072 62.781 159.847 62.321C160.623 61.8543 161.553 61.621 162.637 61.621C163.991 61.621 165.098 62.0449 165.959 62.8927C166.82 63.7339 167.251 65.045 167.251 66.826V76.96H164.924V66.826C164.924 65.7088 164.619 64.9103 164.007 64.4306C163.396 63.9508 162.677 63.7109 161.849 63.7109C160.784 63.7109 159.959 64.033 159.374 64.677C158.789 65.3145 158.497 66.1228 158.497 67.1021V76.96H156.131V66.5895C156.131 65.7285 155.852 65.0352 155.293 64.5094C154.734 63.9771 154.015 63.7109 153.134 63.7109C152.529 63.7109 151.964 63.8719 151.439 64.194C150.919 64.516 150.499 64.9629 150.177 65.5347C149.861 66.0998 149.704 66.7538 149.704 67.4964V76.96H147.377ZM171.504 76.96V61.8182H173.752V64.1841H173.949C174.265 63.3758 174.774 62.7481 175.477 62.3012C176.18 61.8478 177.025 61.621 178.011 61.621C179.01 61.621 179.841 61.8478 180.505 62.3012C181.175 62.7481 181.698 63.3758 182.072 64.1841H182.23C182.618 63.402 183.199 62.781 183.975 62.321C184.75 61.8543 185.68 61.621 186.765 61.621C188.118 61.621 189.226 62.0449 190.087 62.8927C190.948 63.7339 191.378 65.045 191.378 66.826V76.96H189.052V66.826C189.052 65.7088 188.746 64.9103 188.135 64.4306C187.524 63.9508 186.804 63.7109 185.976 63.7109C184.911 63.7109 184.086 64.033 183.502 64.677C182.917 65.3145 182.624 66.1228 182.624 67.1021V76.96H180.258V66.5895C180.258 65.7285 179.979 65.0352 179.42 64.5094C178.862 63.9771 178.142 63.7109 177.261 63.7109C176.657 63.7109 176.092 63.8719 175.566 64.194C175.047 64.516 174.626 64.9629 174.304 65.5347C173.989 66.0998 173.831 66.7538 173.831 67.4964V76.96H171.504ZM201.783 77.2755C200.416 77.2755 199.217 76.9502 198.185 76.2995C197.16 75.6489 196.358 74.7387 195.78 73.5689C195.208 72.3991 194.922 71.0321 194.922 69.468C194.922 67.8907 195.208 66.5139 195.78 65.3375C196.358 64.1611 197.16 63.2476 198.185 62.597C199.217 61.9464 200.416 61.621 201.783 61.621C203.15 61.621 204.346 61.9464 205.371 62.597C206.403 63.2476 207.205 64.1611 207.777 65.3375C208.355 66.5139 208.644 67.8907 208.644 69.468C208.644 71.0321 208.355 72.3991 207.777 73.5689C207.205 74.7387 206.403 75.6489 205.371 76.2995C204.346 76.9502 203.15 77.2755 201.783 77.2755ZM201.783 75.1856C202.821 75.1856 203.676 74.9194 204.346 74.3871C205.017 73.8548 205.513 73.1549 205.835 72.2874C206.157 71.4199 206.318 70.4801 206.318 69.468C206.318 68.4559 206.157 67.5128 205.835 66.6387C205.513 65.7647 205.017 65.0582 204.346 64.5193C203.676 63.9804 202.821 63.7109 201.783 63.7109C200.745 63.7109 199.89 63.9804 199.22 64.5193C198.55 65.0582 198.054 65.7647 197.731 66.6387C197.409 67.5128 197.248 68.4559 197.248 69.468C197.248 70.4801 197.409 71.4199 197.731 72.2874C198.054 73.1549 198.55 73.8548 199.22 74.3871C199.89 74.9194 200.745 75.1856 201.783 75.1856ZM212.511 76.96V56.7709H214.838V64.2235H215.035C215.206 63.9607 215.442 63.6255 215.744 63.218C216.053 62.804 216.494 62.436 217.065 62.1139C217.644 61.7853 218.426 61.621 219.412 61.621C220.687 61.621 221.81 61.9398 222.783 62.5773C223.756 63.2147 224.515 64.1184 225.06 65.2882C225.606 66.458 225.878 67.8381 225.878 69.4285C225.878 71.0321 225.606 72.4221 225.06 73.5985C224.515 74.7683 223.759 75.6752 222.793 76.3193C221.827 76.9567 220.713 77.2755 219.451 77.2755C218.478 77.2755 217.7 77.1145 217.115 76.7924C216.53 76.4638 216.08 76.0925 215.764 75.6785C215.449 75.2579 215.206 74.9096 215.035 74.6335H214.759V76.96H212.511ZM214.798 69.3891C214.798 70.5326 214.966 71.5414 215.301 72.4155C215.636 73.283 216.126 73.9632 216.77 74.4561C217.414 74.9424 218.202 75.1856 219.136 75.1856C220.108 75.1856 220.92 74.9293 221.57 74.4167C222.228 73.8975 222.721 73.2009 223.049 72.3268C223.384 71.4461 223.552 70.4669 223.552 69.3891C223.552 68.3245 223.388 67.3649 223.059 66.5106C222.737 65.6497 222.247 64.9695 221.59 64.47C220.94 63.964 220.121 63.7109 219.136 63.7109C218.189 63.7109 217.394 63.9508 216.75 64.4306C216.106 64.9037 215.62 65.5675 215.291 66.4219C214.962 67.2697 214.798 68.2587 214.798 69.3891ZM229.437 76.96V61.8182H231.764V76.96H229.437ZM230.62 59.2946C230.167 59.2946 229.776 59.1401 229.447 58.8312C229.125 58.5224 228.964 58.151 228.964 57.7173C228.964 57.2835 229.125 56.9122 229.447 56.6033C229.776 56.2945 230.167 56.14 230.62 56.14C231.074 56.14 231.461 56.2945 231.783 56.6033C232.112 56.9122 232.276 57.2835 232.276 57.7173C232.276 58.151 232.112 58.5224 231.783 58.8312C231.461 59.1401 231.074 59.2946 230.62 59.2946ZM238.351 56.7709V76.96H236.025V56.7709H238.351ZM242.612 76.96V61.8182H244.939V76.96H242.612ZM243.795 59.2946C243.342 59.2946 242.951 59.1401 242.622 58.8312C242.3 58.5224 242.139 58.151 242.139 57.7173C242.139 57.2835 242.3 56.9122 242.622 56.6033C242.951 56.2945 243.342 56.14 243.795 56.14C244.249 56.14 244.636 56.2945 244.958 56.6033C245.287 56.9122 245.451 57.2835 245.451 57.7173C245.451 58.151 245.287 58.5224 244.958 58.8312C244.636 59.1401 244.249 59.2946 243.795 59.2946ZM255.548 77.2755C254.089 77.2755 252.831 76.9535 251.773 76.3094C250.721 75.6588 249.91 74.7518 249.338 73.5886C248.773 72.4188 248.49 71.0584 248.49 69.5074C248.49 67.9564 248.773 66.5895 249.338 65.4065C249.91 64.217 250.705 63.2903 251.724 62.6266C252.749 61.9562 253.945 61.621 255.312 61.621C256.1 61.621 256.879 61.7525 257.648 62.0154C258.417 62.2782 259.117 62.7054 259.748 63.2969C260.379 63.8818 260.882 64.6573 261.256 65.6234C261.631 66.5895 261.818 67.779 261.818 69.192V70.1777H250.146V68.1667H259.452C259.452 67.3124 259.281 66.55 258.94 65.8797C258.604 65.2093 258.125 64.6803 257.5 64.2926C256.883 63.9048 256.153 63.7109 255.312 63.7109C254.385 63.7109 253.583 63.9409 252.906 64.401C252.236 64.8545 251.72 65.4459 251.359 66.1754C250.997 66.9049 250.817 67.687 250.817 68.5216V69.8623C250.817 71.0058 251.014 71.9752 251.408 72.7704C251.809 73.559 252.364 74.1604 253.074 74.5744C253.784 74.9819 254.609 75.1856 255.548 75.1856C256.16 75.1856 256.712 75.1002 257.205 74.9293C257.704 74.7518 258.134 74.489 258.496 74.1406C258.857 73.7858 259.137 73.3454 259.334 72.8197L261.581 73.4506C261.345 74.2129 260.947 74.8833 260.389 75.4616C259.83 76.0334 259.14 76.4803 258.318 76.8023C257.497 77.1177 256.574 77.2755 255.548 77.2755ZM254.208 59.7677L251.132 55.1937H253.853L256.258 59.7677H254.208ZM265.357 76.96V61.8182H267.605V64.1052H267.762C268.038 63.356 268.538 62.7481 269.261 62.2815C269.984 61.8149 270.799 61.5816 271.706 61.5816C271.876 61.5816 272.09 61.5849 272.346 61.5915C272.603 61.598 272.797 61.6079 272.928 61.621V63.987C272.849 63.9672 272.668 63.9377 272.386 63.8982C272.11 63.8522 271.817 63.8292 271.508 63.8292C270.772 63.8292 270.115 63.9837 269.537 64.2926C268.965 64.5949 268.512 65.0155 268.176 65.5544C267.848 66.0867 267.684 66.6946 267.684 67.3781V76.96H265.357ZM281.573 77.2755C280.114 77.2755 278.856 76.9535 277.798 76.3094C276.746 75.6588 275.935 74.7518 275.363 73.5886C274.798 72.4188 274.515 71.0584 274.515 69.5074C274.515 67.9564 274.798 66.5895 275.363 65.4065C275.935 64.217 276.73 63.2903 277.749 62.6266C278.774 61.9562 279.97 61.621 281.337 61.621C282.125 61.621 282.904 61.7525 283.673 62.0154C284.442 62.2782 285.142 62.7054 285.773 63.2969C286.404 63.8818 286.907 64.6573 287.281 65.6234C287.656 66.5895 287.843 67.779 287.843 69.192V70.1777H276.171V68.1667H285.477C285.477 67.3124 285.306 66.55 284.965 65.8797C284.629 65.2093 284.15 64.6803 283.525 64.2926C282.908 63.9048 282.178 63.7109 281.337 63.7109C280.41 63.7109 279.608 63.9409 278.931 64.401C278.261 64.8545 277.745 65.4459 277.384 66.1754C277.022 66.9049 276.842 67.687 276.842 68.5216V69.8623C276.842 71.0058 277.039 71.9752 277.433 72.7704C277.834 73.559 278.389 74.1604 279.099 74.5744C279.809 74.9819 280.634 75.1856 281.573 75.1856C282.185 75.1856 282.737 75.1002 283.23 74.9293C283.729 74.7518 284.159 74.489 284.521 74.1406C284.882 73.7858 285.162 73.3454 285.359 72.8197L287.606 73.4506C287.37 74.2129 286.972 74.8833 286.414 75.4616C285.855 76.0334 285.165 76.4803 284.343 76.8023C283.522 77.1177 282.599 77.2755 281.573 77.2755Z" fill="white"/>
</svg>
