<svg width="348" height="302" viewBox="0 0 348 302" fill="none" xmlns="http://www.w3.org/2000/svg">
<g clip-path="url(#clip0_687_3)">
<path d="M276.83 266.94H71.11C63.9 266.94 58 261.04 58 253.82V48.11C58 40.9 63.9 35 71.11 35H276.83C284.04 35 289.95 40.9 289.95 48.11V253.83C289.95 261.04 284.05 266.95 276.83 266.95" fill="#4B4A55"/>
<path d="M183.31 171.18H115.58V238.91H183.31V171.18Z" stroke="#77B7B7" stroke-width="3.08"/>
<path d="M233.041 259.69H165.301V191.95H233.041" fill="#77B7B7"/>
<path d="M58 250.76V257.2L179.29 136.42L345.9 302L348.47 299.43L179.03 129.99L58 250.76Z" fill="#77B7B7"/>
<path d="M74.1 66.27V51.1282H76.4265V66.27H74.1ZM75.283 48.6046C74.8295 48.6046 74.4385 48.4501 74.1099 48.1412C73.7879 47.8324 73.6268 47.461 73.6268 47.0273C73.6268 46.5935 73.7879 46.2222 74.1099 45.9133C74.4385 45.6045 74.8295 45.45 75.283 45.45C75.7364 45.45 76.1242 45.6045 76.4462 45.9133C76.7748 46.2222 76.9391 46.5935 76.9391 47.0273C76.9391 47.461 76.7748 47.8324 76.4462 48.1412C76.1242 48.4501 75.7364 48.6046 75.283 48.6046ZM80.6876 66.27V51.1282H82.9352V53.4941H83.1324C83.4478 52.6858 83.9572 52.0581 84.6604 51.6112C85.3636 51.1578 86.2081 50.931 87.1939 50.931C88.1928 50.931 89.0241 51.1578 89.6879 51.6112C90.3583 52.0581 90.8807 52.6858 91.2553 53.4941H91.4131C91.8008 52.712 92.3824 52.091 93.1579 51.631C93.9334 51.1643 94.8633 50.931 95.9477 50.931C97.3015 50.931 98.4089 51.3549 99.2698 52.2027C100.131 53.0439 100.561 54.355 100.561 56.136V66.27H98.2348V56.136C98.2348 55.0188 97.9292 54.2203 97.318 53.7406C96.7068 53.2608 95.9871 53.0209 95.1591 53.0209C94.0944 53.0209 93.2696 53.343 92.6847 53.987C92.0998 54.6245 91.8074 55.4328 91.8074 56.4121V66.27H89.4415V55.8995C89.4415 55.0385 89.1622 54.3452 88.6035 53.8194C88.0449 53.2871 87.3253 53.0209 86.4446 53.0209C85.84 53.0209 85.2748 53.1819 84.7491 53.504C84.2299 53.826 83.8093 54.2729 83.4873 54.8446C83.1718 55.4098 83.0141 56.0638 83.0141 56.8064V66.27H80.6876ZM104.815 66.27V51.1282H107.063V53.4941H107.26C107.575 52.6858 108.084 52.0581 108.788 51.6112C109.491 51.1578 110.335 50.931 111.321 50.931C112.32 50.931 113.151 51.1578 113.815 51.6112C114.486 52.0581 115.008 52.6858 115.383 53.4941H115.54C115.928 52.712 116.51 52.091 117.285 51.631C118.061 51.1643 118.991 50.931 120.075 50.931C121.429 50.931 122.536 51.3549 123.397 52.2027C124.258 53.0439 124.689 54.355 124.689 56.136V66.27H122.362V56.136C122.362 55.0188 122.057 54.2203 121.445 53.7406C120.834 53.2608 120.114 53.0209 119.286 53.0209C118.222 53.0209 117.397 53.343 116.812 53.987C116.227 54.6245 115.935 55.4328 115.935 56.4121V66.27H113.569V55.8995C113.569 55.0385 113.289 54.3452 112.731 53.8194C112.172 53.2871 111.453 53.0209 110.572 53.0209C109.967 53.0209 109.402 53.1819 108.876 53.504C108.357 53.826 107.937 54.2729 107.615 54.8446C107.299 55.4098 107.141 56.0638 107.141 56.8064V66.27H104.815ZM135.094 66.5855C133.727 66.5855 132.527 66.2602 131.495 65.6095C130.47 64.9589 129.668 64.0487 129.09 62.8789C128.518 61.7091 128.233 60.3421 128.233 58.778C128.233 57.2007 128.518 55.8239 129.09 54.6475C129.668 53.4711 130.47 52.5576 131.495 51.907C132.527 51.2564 133.727 50.931 135.094 50.931C136.461 50.931 137.657 51.2564 138.682 51.907C139.714 52.5576 140.516 53.4711 141.087 54.6475C141.666 55.8239 141.955 57.2007 141.955 58.778C141.955 60.3421 141.666 61.7091 141.087 62.8789C140.516 64.0487 139.714 64.9589 138.682 65.6095C137.657 66.2602 136.461 66.5855 135.094 66.5855ZM135.094 64.4956C136.132 64.4956 136.986 64.2294 137.657 63.6971C138.327 63.1648 138.823 62.4648 139.145 61.5973C139.467 60.7298 139.628 59.7901 139.628 58.778C139.628 57.7659 139.467 56.8228 139.145 55.9487C138.823 55.0747 138.327 54.3682 137.657 53.8293C136.986 53.2904 136.132 53.0209 135.094 53.0209C134.055 53.0209 133.201 53.2904 132.531 53.8293C131.86 54.3682 131.364 55.0747 131.042 55.9487C130.72 56.8228 130.559 57.7659 130.559 58.778C130.559 59.7901 130.72 60.7298 131.042 61.5973C131.364 62.4648 131.86 63.1648 132.531 63.6971C133.201 64.2294 134.055 64.4956 135.094 64.4956ZM145.822 66.27V46.0809H148.148V53.5335H148.345C148.516 53.2707 148.753 52.9355 149.055 52.528C149.364 52.114 149.804 51.746 150.376 51.4239C150.954 51.0953 151.736 50.931 152.722 50.931C153.997 50.931 155.121 51.2498 156.094 51.8873C157.066 52.5247 157.825 53.4284 158.371 54.5982C158.916 55.768 159.189 57.1481 159.189 58.7385C159.189 60.3421 158.916 61.7321 158.371 62.9085C157.825 64.0783 157.07 64.9852 156.103 65.6293C155.137 66.2667 154.023 66.5855 152.762 66.5855C151.789 66.5855 151.01 66.4245 150.425 66.1024C149.84 65.7738 149.39 65.4025 149.075 64.9885C148.759 64.5679 148.516 64.2196 148.345 63.9435H148.069V66.27H145.822ZM148.109 58.6991C148.109 59.8426 148.276 60.8514 148.611 61.7255C148.947 62.593 149.436 63.2732 150.08 63.7661C150.724 64.2524 151.513 64.4956 152.446 64.4956C153.419 64.4956 154.23 64.2393 154.881 63.7267C155.538 63.2075 156.031 62.5109 156.36 61.6368C156.695 60.7561 156.862 59.7769 156.862 58.6991C156.862 57.6345 156.698 56.6749 156.37 55.8206C156.048 54.9597 155.558 54.2795 154.901 53.78C154.25 53.2739 153.432 53.0209 152.446 53.0209C151.5 53.0209 150.705 53.2608 150.06 53.7406C149.416 54.2137 148.93 54.8775 148.602 55.7319C148.273 56.5796 148.109 57.5687 148.109 58.6991ZM162.748 66.27V51.1282H165.074V66.27H162.748ZM163.931 48.6046C163.477 48.6046 163.086 48.4501 162.758 48.1412C162.436 47.8324 162.274 47.461 162.274 47.0273C162.274 46.5935 162.436 46.2222 162.758 45.9133C163.086 45.6045 163.477 45.45 163.931 45.45C164.384 45.45 164.772 45.6045 165.094 45.9133C165.422 46.2222 165.587 46.5935 165.587 47.0273C165.587 47.461 165.422 47.8324 165.094 48.1412C164.772 48.4501 164.384 48.6046 163.931 48.6046ZM171.662 46.0809V66.27H169.335V46.0809H171.662ZM175.923 66.27V51.1282H178.249V66.27H175.923ZM177.106 48.6046C176.652 48.6046 176.261 48.4501 175.933 48.1412C175.611 47.8324 175.45 47.461 175.45 47.0273C175.45 46.5935 175.611 46.2222 175.933 45.9133C176.261 45.6045 176.652 45.45 177.106 45.45C177.559 45.45 177.947 45.6045 178.269 45.9133C178.598 46.2222 178.762 46.5935 178.762 47.0273C178.762 47.461 178.598 47.8324 178.269 48.1412C177.947 48.4501 177.559 48.6046 177.106 48.6046ZM188.859 66.5855C187.4 66.5855 186.141 66.2634 185.083 65.6194C184.032 64.9688 183.22 64.0618 182.648 62.8986C182.083 61.7288 181.801 60.3684 181.801 58.8174C181.801 57.2664 182.083 55.8995 182.648 54.7165C183.22 53.527 184.015 52.6003 185.034 51.9366C186.059 51.2662 187.255 50.931 188.622 50.931C189.411 50.931 190.19 51.0625 190.959 51.3254C191.728 51.5882 192.428 52.0154 193.058 52.6069C193.689 53.1918 194.192 53.9673 194.567 54.9334C194.941 55.8995 195.129 57.089 195.129 58.502V59.4877H183.457V57.4767H192.763C192.763 56.6224 192.592 55.86 192.25 55.1897C191.915 54.5193 191.435 53.9903 190.811 53.6025C190.193 53.2148 189.464 53.0209 188.622 53.0209C187.696 53.0209 186.894 53.2509 186.217 53.711C185.547 54.1645 185.031 54.7559 184.669 55.4854C184.308 56.2149 184.127 56.997 184.127 57.8316V59.1723C184.127 60.3158 184.324 61.2852 184.719 62.0804C185.119 62.869 185.675 63.4704 186.385 63.8844C187.094 64.2919 187.919 64.4956 188.859 64.4956C189.47 64.4956 190.022 64.4102 190.515 64.2393C191.015 64.0618 191.445 63.799 191.806 63.4506C192.168 63.0958 192.447 62.6554 192.644 62.1297L194.892 62.7606C194.655 63.5229 194.258 64.1933 193.699 64.7716C193.141 65.3434 192.451 65.7903 191.629 66.1123C190.808 66.4277 189.884 66.5855 188.859 66.5855ZM187.518 49.0777L184.443 44.5037H187.163L189.569 49.0777H187.518ZM198.668 66.27V51.1282H200.915V53.4152H201.073C201.349 52.666 201.848 52.0581 202.571 51.5915C203.294 51.1249 204.109 50.8916 205.016 50.8916C205.187 50.8916 205.401 50.8949 205.657 50.9015C205.913 50.908 206.107 50.9179 206.239 50.931V53.297C206.16 53.2772 205.979 53.2477 205.696 53.2082C205.42 53.1622 205.128 53.1392 204.819 53.1392C204.083 53.1392 203.426 53.2937 202.847 53.6025C202.276 53.9049 201.822 54.3255 201.487 54.8644C201.158 55.3967 200.994 56.0046 200.994 56.6881V66.27H198.668ZM214.884 66.5855C213.425 66.5855 212.166 66.2634 211.108 65.6194C210.057 64.9688 209.245 64.0618 208.673 62.8986C208.108 61.7288 207.826 60.3684 207.826 58.8174C207.826 57.2664 208.108 55.8995 208.673 54.7165C209.245 53.527 210.04 52.6003 211.059 51.9366C212.084 51.2662 213.28 50.931 214.647 50.931C215.436 50.931 216.215 51.0625 216.984 51.3254C217.753 51.5882 218.453 52.0154 219.083 52.6069C219.714 53.1918 220.217 53.9673 220.592 54.9334C220.966 55.8995 221.154 57.089 221.154 58.502V59.4877H209.482V57.4767H218.788C218.788 56.6224 218.617 55.86 218.275 55.1897C217.94 54.5193 217.46 53.9903 216.836 53.6025C216.218 53.2148 215.489 53.0209 214.647 53.0209C213.721 53.0209 212.919 53.2509 212.242 53.711C211.572 54.1645 211.056 54.7559 210.694 55.4854C210.333 56.2149 210.152 56.997 210.152 57.8316V59.1723C210.152 60.3158 210.349 61.2852 210.744 62.0804C211.144 62.869 211.7 63.4704 212.41 63.8844C213.119 64.2919 213.944 64.4956 214.884 64.4956C215.495 64.4956 216.047 64.4102 216.54 64.2393C217.04 64.0618 217.47 63.799 217.831 63.4506C218.193 63.0958 218.472 62.6554 218.669 62.1297L220.917 62.7606C220.68 63.5229 220.283 64.1933 219.724 64.7716C219.166 65.3434 218.476 65.7903 217.654 66.1123C216.833 66.4277 215.909 66.5855 214.884 66.5855Z" fill="white"/>
</g>
<defs>
<clipPath id="clip0_687_3">
<rect width="348" height="302" fill="white"/>
</clipPath>
</defs>
</svg>
