<svg width="139" height="65" viewBox="0 0 139 65" fill="none" xmlns="http://www.w3.org/2000/svg">
<g filter="url(#filter0_d_687_36)">
<rect x="49.0664" y="14.3999" width="20" height="20" rx="1.5" stroke="#77B7B7" shape-rendering="crispEdges"/>
</g>
<g filter="url(#filter1_d_687_36)">
<rect x="62.5664" y="20.8999" width="19" height="19" rx="2" fill="#77B7B7"/>
</g>
<path d="M33 39.5L66.5 1L109 53.5" stroke="#77B7B7" stroke-linecap="round"/>
<path d="M1.74426 61.5C1.55759 61.5 1.40426 61.4433 1.28426 61.33C1.17092 61.21 1.11426 61.0633 1.11426 60.89V55.11C1.11426 54.9367 1.17092 54.7933 1.28426 54.68C1.40426 54.56 1.55092 54.5 1.72426 54.5H4.97426C5.14759 54.5 5.29092 54.5567 5.40426 54.67C5.52426 54.7767 5.58426 54.9167 5.58426 55.09C5.58426 55.2367 5.52426 55.3667 5.40426 55.48C5.29092 55.5933 5.14759 55.65 4.97426 55.65H2.27426L2.36426 55.53V57.54L2.29426 57.41H4.52426C4.69759 57.41 4.84092 57.4667 4.95426 57.58C5.07426 57.6867 5.13426 57.8267 5.13426 58C5.13426 58.1467 5.07426 58.2767 4.95426 58.39C4.84092 58.5033 4.69759 58.56 4.52426 58.56H2.27426L2.36426 58.47V60.89C2.36426 61.0633 2.30092 61.21 2.17426 61.33C2.05426 61.4433 1.91092 61.5 1.74426 61.5ZM7.1416 61.5C6.96827 61.5 6.82493 61.4433 6.7116 61.33C6.59827 61.21 6.5416 61.0633 6.5416 60.89V56.76C6.5416 56.5867 6.59827 56.4433 6.7116 56.33C6.82493 56.21 6.96827 56.15 7.1416 56.15C7.31493 56.15 7.45827 56.21 7.5716 56.33C7.68493 56.4433 7.7416 56.5867 7.7416 56.76V57.7L7.6716 57.03C7.74493 56.87 7.83827 56.73 7.9516 56.61C8.0716 56.4833 8.20493 56.38 8.3516 56.3C8.49827 56.2133 8.65493 56.15 8.8216 56.11C8.98827 56.07 9.15494 56.05 9.3216 56.05C9.5216 56.05 9.68827 56.1067 9.8216 56.22C9.9616 56.3333 10.0316 56.4667 10.0316 56.62C10.0316 56.84 9.97494 57 9.8616 57.1C9.74827 57.1933 9.62494 57.24 9.4916 57.24C9.36494 57.24 9.24827 57.2167 9.1416 57.17C9.0416 57.1233 8.92493 57.1 8.7916 57.1C8.6716 57.1 8.54827 57.13 8.4216 57.19C8.3016 57.2433 8.18827 57.33 8.0816 57.45C7.9816 57.57 7.89827 57.72 7.8316 57.9C7.7716 58.0733 7.7416 58.28 7.7416 58.52V60.89C7.7416 61.0633 7.68493 61.21 7.5716 61.33C7.45827 61.4433 7.31493 61.5 7.1416 61.5ZM15.1404 56.05C15.3137 56.05 15.457 56.1067 15.5704 56.22C15.6837 56.3333 15.7404 56.48 15.7404 56.66V60.89C15.7404 61.0633 15.6837 61.21 15.5704 61.33C15.457 61.4433 15.3137 61.5 15.1404 61.5C14.967 61.5 14.8237 61.4433 14.7104 61.33C14.597 61.21 14.5404 61.0633 14.5404 60.89V60.4L14.7604 60.49C14.7604 60.5767 14.7137 60.6833 14.6204 60.81C14.527 60.93 14.4004 61.05 14.2404 61.17C14.0804 61.29 13.8904 61.3933 13.6704 61.48C13.457 61.56 13.2237 61.6 12.9704 61.6C12.5104 61.6 12.0937 61.4833 11.7204 61.25C11.347 61.01 11.0504 60.6833 10.8304 60.27C10.617 59.85 10.5104 59.37 10.5104 58.83C10.5104 58.2833 10.617 57.8033 10.8304 57.39C11.0504 56.97 11.3437 56.6433 11.7104 56.41C12.077 56.17 12.4837 56.05 12.9304 56.05C13.217 56.05 13.4804 56.0933 13.7204 56.18C13.9604 56.2667 14.167 56.3767 14.3404 56.51C14.5204 56.6433 14.657 56.78 14.7504 56.92C14.8504 57.0533 14.9004 57.1667 14.9004 57.26L14.5404 57.39V56.66C14.5404 56.4867 14.597 56.3433 14.7104 56.23C14.8237 56.11 14.967 56.05 15.1404 56.05ZM13.1204 60.5C13.4137 60.5 13.6704 60.4267 13.8904 60.28C14.1104 60.1333 14.2804 59.9333 14.4004 59.68C14.527 59.4267 14.5904 59.1433 14.5904 58.83C14.5904 58.51 14.527 58.2233 14.4004 57.97C14.2804 57.7167 14.1104 57.5167 13.8904 57.37C13.6704 57.2233 13.4137 57.15 13.1204 57.15C12.8337 57.15 12.5804 57.2233 12.3604 57.37C12.1404 57.5167 11.967 57.7167 11.8404 57.97C11.7204 58.2233 11.6604 58.51 11.6604 58.83C11.6604 59.1433 11.7204 59.4267 11.8404 59.68C11.967 59.9333 12.1404 60.1333 12.3604 60.28C12.5804 60.4267 12.8337 60.5 13.1204 60.5ZM19.8996 56.05C20.393 56.05 20.7663 56.1533 21.0196 56.36C21.2796 56.5667 21.4563 56.8433 21.5496 57.19C21.6496 57.53 21.6996 57.91 21.6996 58.33V60.89C21.6996 61.0633 21.643 61.21 21.5296 61.33C21.4163 61.4433 21.273 61.5 21.0996 61.5C20.9263 61.5 20.783 61.4433 20.6696 61.33C20.5563 61.21 20.4996 61.0633 20.4996 60.89V58.33C20.4996 58.11 20.4696 57.9133 20.4096 57.74C20.3563 57.56 20.2563 57.4167 20.1096 57.31C19.963 57.2033 19.753 57.15 19.4796 57.15C19.213 57.15 18.9863 57.2033 18.7996 57.31C18.6196 57.4167 18.4796 57.56 18.3796 57.74C18.2863 57.9133 18.2396 58.11 18.2396 58.33V60.89C18.2396 61.0633 18.183 61.21 18.0696 61.33C17.9563 61.4433 17.813 61.5 17.6396 61.5C17.4663 61.5 17.323 61.4433 17.2096 61.33C17.0963 61.21 17.0396 61.0633 17.0396 60.89V56.76C17.0396 56.5867 17.0963 56.4433 17.2096 56.33C17.323 56.21 17.4663 56.15 17.6396 56.15C17.813 56.15 17.9563 56.21 18.0696 56.33C18.183 56.4433 18.2396 56.5867 18.2396 56.76V57.19L18.0896 57.16C18.1496 57.0467 18.2363 56.9267 18.3496 56.8C18.463 56.6667 18.5963 56.5433 18.7496 56.43C18.903 56.3167 19.0763 56.2267 19.2696 56.16C19.463 56.0867 19.673 56.05 19.8996 56.05ZM25.3767 56.05C25.7567 56.05 26.0867 56.09 26.3667 56.17C26.6533 56.25 26.8733 56.3633 27.0267 56.51C27.1867 56.65 27.2667 56.82 27.2667 57.02C27.2667 57.1533 27.2267 57.28 27.1467 57.4C27.0667 57.5133 26.95 57.57 26.7967 57.57C26.69 57.57 26.6 57.5567 26.5267 57.53C26.46 57.4967 26.4 57.4567 26.3467 57.41C26.2933 57.3633 26.23 57.32 26.1567 57.28C26.09 57.24 25.9867 57.21 25.8467 57.19C25.7133 57.1633 25.6133 57.15 25.5467 57.15C25.2067 57.15 24.9167 57.2233 24.6767 57.37C24.4433 57.5167 24.2633 57.7167 24.1367 57.97C24.01 58.2167 23.9467 58.5033 23.9467 58.83C23.9467 59.15 24.01 59.4367 24.1367 59.69C24.27 59.9367 24.45 60.1333 24.6767 60.28C24.91 60.4267 25.1767 60.5 25.4767 60.5C25.6433 60.5 25.7867 60.49 25.9067 60.47C26.0267 60.45 26.1267 60.42 26.2067 60.38C26.3 60.3267 26.3833 60.27 26.4567 60.21C26.53 60.15 26.64 60.12 26.7867 60.12C26.96 60.12 27.0933 60.1767 27.1867 60.29C27.28 60.3967 27.3267 60.53 27.3267 60.69C27.3267 60.8567 27.2333 61.01 27.0467 61.15C26.86 61.2833 26.6133 61.3933 26.3067 61.48C26.0067 61.56 25.68 61.6 25.3267 61.6C24.8 61.6 24.3433 61.48 23.9567 61.24C23.57 60.9933 23.27 60.66 23.0567 60.24C22.85 59.82 22.7467 59.35 22.7467 58.83C22.7467 58.2833 22.8567 57.8033 23.0767 57.39C23.3033 56.97 23.6133 56.6433 24.0067 56.41C24.4067 56.17 24.8633 56.05 25.3767 56.05ZM24.8167 63.01C24.75 63.01 24.6633 62.99 24.5567 62.95C24.4567 62.9167 24.3667 62.8633 24.2867 62.79C24.2067 62.7233 24.1667 62.6433 24.1667 62.55C24.1667 62.45 24.2067 62.35 24.2867 62.25L25.0667 61.2H25.7767L25.2267 62.69C25.1467 62.9033 25.01 63.01 24.8167 63.01ZM33.382 58.83C33.382 59.3767 33.2587 59.86 33.012 60.28C32.772 60.6933 32.4453 61.0167 32.032 61.25C31.6253 61.4833 31.1687 61.6 30.662 61.6C30.1553 61.6 29.6953 61.4833 29.282 61.25C28.8753 61.0167 28.5487 60.6933 28.302 60.28C28.062 59.86 27.942 59.3767 27.942 58.83C27.942 58.2833 28.062 57.8033 28.302 57.39C28.5487 56.97 28.8753 56.6433 29.282 56.41C29.6953 56.17 30.1553 56.05 30.662 56.05C31.1687 56.05 31.6253 56.17 32.032 56.41C32.4453 56.6433 32.772 56.97 33.012 57.39C33.2587 57.8033 33.382 58.2833 33.382 58.83ZM32.182 58.83C32.182 58.49 32.112 58.1967 31.972 57.95C31.8387 57.6967 31.6553 57.5 31.422 57.36C31.1953 57.22 30.942 57.15 30.662 57.15C30.382 57.15 30.1253 57.22 29.892 57.36C29.6653 57.5 29.482 57.6967 29.342 57.95C29.2087 58.1967 29.142 58.49 29.142 58.83C29.142 59.1633 29.2087 59.4567 29.342 59.71C29.482 59.9567 29.6653 60.15 29.892 60.29C30.1253 60.43 30.382 60.5 30.662 60.5C30.942 60.5 31.1953 60.43 31.422 60.29C31.6553 60.15 31.8387 59.9567 31.972 59.71C32.112 59.4567 32.182 59.1633 32.182 58.83ZM35.5622 60.89C35.5622 61.0633 35.5056 61.21 35.3922 61.33C35.2789 61.4433 35.1356 61.5 34.9622 61.5C34.7889 61.5 34.6456 61.4433 34.5322 61.33C34.4189 61.21 34.3622 61.0633 34.3622 60.89V56.76C34.3622 56.5867 34.4189 56.4433 34.5322 56.33C34.6456 56.21 34.7889 56.15 34.9622 56.15C35.1356 56.15 35.2789 56.21 35.3922 56.33C35.5056 56.4433 35.5622 56.5867 35.5622 56.76V60.89ZM34.9522 55.5C34.7256 55.5 34.5656 55.4633 34.4722 55.39C34.3789 55.3167 34.3322 55.1867 34.3322 55V54.81C34.3322 54.6167 34.3822 54.4867 34.4822 54.42C34.5889 54.3467 34.7489 54.31 34.9622 54.31C35.1956 54.31 35.3589 54.3467 35.4522 54.42C35.5456 54.4933 35.5922 54.6233 35.5922 54.81V55C35.5922 55.1933 35.5422 55.3267 35.4422 55.4C35.3422 55.4667 35.1789 55.5 34.9522 55.5ZM36.4855 60.67C36.4188 60.5767 36.3888 60.4567 36.3955 60.31C36.4022 60.1633 36.4888 60.0367 36.6555 59.93C36.7622 59.8633 36.8755 59.8367 36.9955 59.85C37.1155 59.8567 37.2322 59.9167 37.3455 60.03C37.5388 60.2233 37.7422 60.3733 37.9555 60.48C38.1688 60.5867 38.4355 60.64 38.7555 60.64C38.8555 60.6333 38.9655 60.62 39.0855 60.6C39.2055 60.5733 39.3088 60.52 39.3955 60.44C39.4888 60.3533 39.5355 60.2233 39.5355 60.05C39.5355 59.9033 39.4855 59.7867 39.3855 59.7C39.2855 59.6133 39.1522 59.54 38.9855 59.48C38.8255 59.42 38.6455 59.3633 38.4455 59.31C38.2388 59.25 38.0255 59.1833 37.8055 59.11C37.5922 59.0367 37.3955 58.9433 37.2155 58.83C37.0355 58.71 36.8888 58.5533 36.7755 58.36C36.6622 58.1667 36.6055 57.9233 36.6055 57.63C36.6055 57.2967 36.6988 57.0133 36.8855 56.78C37.0722 56.5467 37.3122 56.3667 37.6055 56.24C37.9055 56.1133 38.2188 56.05 38.5455 56.05C38.7522 56.05 38.9688 56.0767 39.1955 56.13C39.4222 56.1767 39.6388 56.2567 39.8455 56.37C40.0522 56.4767 40.2255 56.62 40.3655 56.8C40.4388 56.9 40.4822 57.02 40.4955 57.16C40.5088 57.3 40.4455 57.4267 40.3055 57.54C40.2055 57.62 40.0888 57.6567 39.9555 57.65C39.8222 57.6367 39.7122 57.59 39.6255 57.51C39.5122 57.3633 39.3588 57.2467 39.1655 57.16C38.9788 57.0733 38.7622 57.03 38.5155 57.03C38.4155 57.03 38.3055 57.0433 38.1855 57.07C38.0722 57.09 37.9722 57.14 37.8855 57.22C37.7988 57.2933 37.7555 57.4133 37.7555 57.58C37.7555 57.7333 37.8055 57.8567 37.9055 57.95C38.0055 58.0367 38.1388 58.11 38.3055 58.17C38.4788 58.2233 38.6622 58.2767 38.8555 58.33C39.0555 58.3833 39.2588 58.4467 39.4655 58.52C39.6722 58.5933 39.8622 58.69 40.0355 58.81C40.2088 58.93 40.3488 59.0867 40.4555 59.28C40.5622 59.4667 40.6155 59.7067 40.6155 60C40.6155 60.34 40.5155 60.63 40.3155 60.87C40.1155 61.11 39.8655 61.2933 39.5655 61.42C39.2655 61.54 38.9588 61.6 38.6455 61.6C38.2522 61.6 37.8588 61.5333 37.4655 61.4C37.0722 61.26 36.7455 61.0167 36.4855 60.67ZM47.6525 54.5C48.2925 54.5 48.7691 54.65 49.0825 54.95C49.3958 55.25 49.5525 55.6933 49.5525 56.28C49.5525 56.5933 49.4758 56.87 49.3225 57.11C49.1691 57.3433 48.9425 57.5267 48.6425 57.66C48.3425 57.7867 47.9725 57.85 47.5325 57.85L47.5725 57.4C47.7791 57.4 48.0158 57.43 48.2825 57.49C48.5491 57.5433 48.8058 57.6433 49.0525 57.79C49.3058 57.93 49.5125 58.13 49.6725 58.39C49.8391 58.6433 49.9225 58.97 49.9225 59.37C49.9225 59.81 49.8491 60.17 49.7025 60.45C49.5625 60.73 49.3758 60.9467 49.1425 61.1C48.9091 61.2533 48.6591 61.36 48.3925 61.42C48.1258 61.4733 47.8691 61.5 47.6225 61.5H45.1325C44.9591 61.5 44.8125 61.4433 44.6925 61.33C44.5791 61.21 44.5225 61.0633 44.5225 60.89V55.11C44.5225 54.9367 44.5791 54.7933 44.6925 54.68C44.8125 54.56 44.9591 54.5 45.1325 54.5H47.6525ZM47.4725 55.68H45.6925L45.8225 55.52V57.33L45.7025 57.24H47.5025C47.6958 57.24 47.8691 57.1767 48.0225 57.05C48.1758 56.9233 48.2525 56.74 48.2525 56.5C48.2525 56.2133 48.1791 56.0067 48.0325 55.88C47.8925 55.7467 47.7058 55.68 47.4725 55.68ZM47.5525 58.42H45.7325L45.8225 58.34V60.45L45.7225 60.35H47.6225C47.9291 60.35 48.1725 60.27 48.3525 60.11C48.5325 59.9433 48.6225 59.6967 48.6225 59.37C48.6225 59.07 48.5625 58.8533 48.4425 58.72C48.3225 58.5867 48.1791 58.5033 48.0125 58.47C47.8458 58.4367 47.6925 58.42 47.5525 58.42ZM55.3552 56.05C55.5285 56.05 55.6719 56.1067 55.7852 56.22C55.8985 56.3333 55.9552 56.48 55.9552 56.66V60.89C55.9552 61.0633 55.8985 61.21 55.7852 61.33C55.6719 61.4433 55.5285 61.5 55.3552 61.5C55.1819 61.5 55.0385 61.4433 54.9252 61.33C54.8119 61.21 54.7552 61.0633 54.7552 60.89V60.4L54.9752 60.49C54.9752 60.5767 54.9285 60.6833 54.8352 60.81C54.7419 60.93 54.6152 61.05 54.4552 61.17C54.2952 61.29 54.1052 61.3933 53.8852 61.48C53.6719 61.56 53.4385 61.6 53.1852 61.6C52.7252 61.6 52.3085 61.4833 51.9352 61.25C51.5619 61.01 51.2652 60.6833 51.0452 60.27C50.8319 59.85 50.7252 59.37 50.7252 58.83C50.7252 58.2833 50.8319 57.8033 51.0452 57.39C51.2652 56.97 51.5585 56.6433 51.9252 56.41C52.2919 56.17 52.6985 56.05 53.1452 56.05C53.4319 56.05 53.6952 56.0933 53.9352 56.18C54.1752 56.2667 54.3819 56.3767 54.5552 56.51C54.7352 56.6433 54.8719 56.78 54.9652 56.92C55.0652 57.0533 55.1152 57.1667 55.1152 57.26L54.7552 57.39V56.66C54.7552 56.4867 54.8119 56.3433 54.9252 56.23C55.0385 56.11 55.1819 56.05 55.3552 56.05ZM53.3352 60.5C53.6285 60.5 53.8852 60.4267 54.1052 60.28C54.3252 60.1333 54.4952 59.9333 54.6152 59.68C54.7419 59.4267 54.8052 59.1433 54.8052 58.83C54.8052 58.51 54.7419 58.2233 54.6152 57.97C54.4952 57.7167 54.3252 57.5167 54.1052 57.37C53.8852 57.2233 53.6285 57.15 53.3352 57.15C53.0485 57.15 52.7952 57.2233 52.5752 57.37C52.3552 57.5167 52.1819 57.7167 52.0552 57.97C51.9352 58.2233 51.8752 58.51 51.8752 58.83C51.8752 59.1433 51.9352 59.4267 52.0552 59.68C52.1819 59.9333 52.3552 60.1333 52.5752 60.28C52.7952 60.4267 53.0485 60.5 53.3352 60.5ZM57.8545 61.5C57.6812 61.5 57.5378 61.4433 57.4245 61.33C57.3112 61.21 57.2545 61.0633 57.2545 60.89V56.76C57.2545 56.5867 57.3112 56.4433 57.4245 56.33C57.5378 56.21 57.6812 56.15 57.8545 56.15C58.0278 56.15 58.1712 56.21 58.2845 56.33C58.3978 56.4433 58.4545 56.5867 58.4545 56.76V57.7L58.3845 57.03C58.4578 56.87 58.5512 56.73 58.6645 56.61C58.7845 56.4833 58.9178 56.38 59.0645 56.3C59.2112 56.2133 59.3678 56.15 59.5345 56.11C59.7012 56.07 59.8678 56.05 60.0345 56.05C60.2345 56.05 60.4012 56.1067 60.5345 56.22C60.6745 56.3333 60.7445 56.4667 60.7445 56.62C60.7445 56.84 60.6878 57 60.5745 57.1C60.4612 57.1933 60.3378 57.24 60.2045 57.24C60.0778 57.24 59.9612 57.2167 59.8545 57.17C59.7545 57.1233 59.6378 57.1 59.5045 57.1C59.3845 57.1 59.2612 57.13 59.1345 57.19C59.0145 57.2433 58.9012 57.33 58.7945 57.45C58.6945 57.57 58.6112 57.72 58.5445 57.9C58.4845 58.0733 58.4545 58.28 58.4545 58.52V60.89C58.4545 61.0633 58.3978 61.21 58.2845 61.33C58.1712 61.4433 58.0278 61.5 57.8545 61.5ZM64.3604 56.05C64.8271 56.05 65.2438 56.17 65.6104 56.41C65.9838 56.6433 66.2771 56.9667 66.4904 57.38C66.7104 57.7933 66.8204 58.2733 66.8204 58.82C66.8204 59.3667 66.7104 59.85 66.4904 60.27C66.2771 60.6833 65.9871 61.01 65.6204 61.25C65.2604 61.4833 64.8538 61.6 64.4004 61.6C64.1338 61.6 63.8838 61.5567 63.6504 61.47C63.4171 61.3833 63.2104 61.2733 63.0304 61.14C62.8571 61.0067 62.7204 60.8733 62.6204 60.74C62.5271 60.6 62.4804 60.4833 62.4804 60.39L62.7904 60.26V60.99C62.7904 61.1633 62.7338 61.31 62.6204 61.43C62.5071 61.5433 62.3638 61.6 62.1904 61.6C62.0171 61.6 61.8738 61.5433 61.7604 61.43C61.6471 61.3167 61.5904 61.17 61.5904 60.99V54.71C61.5904 54.5367 61.6471 54.3933 61.7604 54.28C61.8738 54.16 62.0171 54.1 62.1904 54.1C62.3638 54.1 62.5071 54.16 62.6204 54.28C62.7338 54.3933 62.7904 54.5367 62.7904 54.71V57.25L62.6204 57.16C62.6204 57.0733 62.6671 56.97 62.7604 56.85C62.8538 56.7233 62.9804 56.6 63.1404 56.48C63.3004 56.3533 63.4838 56.25 63.6904 56.17C63.9038 56.09 64.1271 56.05 64.3604 56.05ZM64.2104 57.15C63.9171 57.15 63.6604 57.2233 63.4404 57.37C63.2204 57.5167 63.0471 57.7167 62.9204 57.97C62.8004 58.2167 62.7404 58.5 62.7404 58.82C62.7404 59.1333 62.8004 59.42 62.9204 59.68C63.0471 59.9333 63.2204 60.1333 63.4404 60.28C63.6604 60.4267 63.9171 60.5 64.2104 60.5C64.5038 60.5 64.7571 60.4267 64.9704 60.28C65.1904 60.1333 65.3604 59.9333 65.4804 59.68C65.6071 59.42 65.6704 59.1333 65.6704 58.82C65.6704 58.5 65.6071 58.2167 65.4804 57.97C65.3604 57.7167 65.1904 57.5167 64.9704 57.37C64.7571 57.2233 64.5038 57.15 64.2104 57.15ZM68.9997 60.89C68.9997 61.0633 68.9431 61.21 68.8297 61.33C68.7164 61.4433 68.5731 61.5 68.3997 61.5C68.2264 61.5 68.0831 61.4433 67.9697 61.33C67.8564 61.21 67.7997 61.0633 67.7997 60.89V56.76C67.7997 56.5867 67.8564 56.4433 67.9697 56.33C68.0831 56.21 68.2264 56.15 68.3997 56.15C68.5731 56.15 68.7164 56.21 68.8297 56.33C68.9431 56.4433 68.9997 56.5867 68.9997 56.76V60.89ZM68.3897 55.5C68.1631 55.5 68.0031 55.4633 67.9097 55.39C67.8164 55.3167 67.7697 55.1867 67.7697 55V54.81C67.7697 54.6167 67.8197 54.4867 67.9197 54.42C68.0264 54.3467 68.1864 54.31 68.3997 54.31C68.6331 54.31 68.7964 54.3467 68.8897 54.42C68.9831 54.4933 69.0297 54.6233 69.0297 54.81V55C69.0297 55.1933 68.9797 55.3267 68.8797 55.4C68.7797 55.4667 68.6164 55.5 68.3897 55.5ZM72.753 61.6C72.1863 61.6 71.693 61.4833 71.273 61.25C70.8597 61.01 70.5397 60.6867 70.313 60.28C70.093 59.8733 69.983 59.4133 69.983 58.9C69.983 58.3 70.103 57.79 70.343 57.37C70.5897 56.9433 70.9097 56.6167 71.303 56.39C71.6963 56.1633 72.113 56.05 72.553 56.05C72.893 56.05 73.213 56.12 73.513 56.26C73.8197 56.4 74.0897 56.5933 74.323 56.84C74.5563 57.08 74.7397 57.36 74.873 57.68C75.013 58 75.083 58.34 75.083 58.7C75.0763 58.86 75.013 58.99 74.893 59.09C74.773 59.19 74.633 59.24 74.473 59.24H70.653L70.353 58.24H74.023L73.803 58.44V58.17C73.7897 57.9767 73.7197 57.8033 73.593 57.65C73.473 57.4967 73.3197 57.3767 73.133 57.29C72.953 57.1967 72.7597 57.15 72.553 57.15C72.353 57.15 72.1663 57.1767 71.993 57.23C71.8197 57.2833 71.6697 57.3733 71.543 57.5C71.4163 57.6267 71.3163 57.7967 71.243 58.01C71.1697 58.2233 71.133 58.4933 71.133 58.82C71.133 59.18 71.2063 59.4867 71.353 59.74C71.5063 59.9867 71.6997 60.1767 71.933 60.31C72.173 60.4367 72.4263 60.5 72.693 60.5C72.9397 60.5 73.1363 60.48 73.283 60.44C73.4297 60.4 73.5463 60.3533 73.633 60.3C73.7263 60.24 73.8097 60.19 73.883 60.15C74.003 60.09 74.1163 60.06 74.223 60.06C74.3697 60.06 74.4897 60.11 74.583 60.21C74.683 60.31 74.733 60.4267 74.733 60.56C74.733 60.74 74.6397 60.9033 74.453 61.05C74.2797 61.1967 74.0363 61.3267 73.723 61.44C73.4097 61.5467 73.0863 61.6 72.753 61.6ZM72.543 55.8C72.5097 55.8 72.473 55.7967 72.433 55.79C72.393 55.7767 72.353 55.76 72.313 55.74L71.313 55.21C71.193 55.1433 71.0997 55.0633 71.033 54.97C70.973 54.8767 70.943 54.78 70.943 54.68C70.943 54.5267 71.003 54.4067 71.123 54.32C71.243 54.2333 71.3597 54.19 71.473 54.19C71.5663 54.19 71.653 54.2133 71.733 54.26C71.8197 54.3 71.8963 54.35 71.963 54.41L72.823 55.17C72.9163 55.2567 72.963 55.3467 72.963 55.44C72.963 55.5467 72.923 55.6333 72.843 55.7C72.7697 55.7667 72.6697 55.8 72.543 55.8ZM76.7314 61.5C76.5581 61.5 76.4148 61.4433 76.3014 61.33C76.1881 61.21 76.1314 61.0633 76.1314 60.89V56.76C76.1314 56.5867 76.1881 56.4433 76.3014 56.33C76.4148 56.21 76.5581 56.15 76.7314 56.15C76.9048 56.15 77.0481 56.21 77.1614 56.33C77.2748 56.4433 77.3314 56.5867 77.3314 56.76V57.7L77.2614 57.03C77.3348 56.87 77.4281 56.73 77.5414 56.61C77.6614 56.4833 77.7948 56.38 77.9414 56.3C78.0881 56.2133 78.2448 56.15 78.4114 56.11C78.5781 56.07 78.7448 56.05 78.9114 56.05C79.1114 56.05 79.2781 56.1067 79.4114 56.22C79.5514 56.3333 79.6214 56.4667 79.6214 56.62C79.6214 56.84 79.5648 57 79.4514 57.1C79.3381 57.1933 79.2148 57.24 79.0814 57.24C78.9548 57.24 78.8381 57.2167 78.7314 57.17C78.6314 57.1233 78.5148 57.1 78.3814 57.1C78.2614 57.1 78.1381 57.13 78.0114 57.19C77.8914 57.2433 77.7781 57.33 77.6714 57.45C77.5714 57.57 77.4881 57.72 77.4214 57.9C77.3614 58.0733 77.3314 58.28 77.3314 58.52V60.89C77.3314 61.0633 77.2748 61.21 77.1614 61.33C77.0481 61.4433 76.9048 61.5 76.7314 61.5ZM82.7628 61.6C82.1961 61.6 81.7028 61.4833 81.2828 61.25C80.8694 61.01 80.5494 60.6867 80.3228 60.28C80.1028 59.8733 79.9928 59.4133 79.9928 58.9C79.9928 58.3 80.1128 57.79 80.3528 57.37C80.5994 56.9433 80.9194 56.6167 81.3128 56.39C81.7061 56.1633 82.1228 56.05 82.5628 56.05C82.9028 56.05 83.2228 56.12 83.5228 56.26C83.8294 56.4 84.0994 56.5933 84.3328 56.84C84.5661 57.08 84.7494 57.36 84.8828 57.68C85.0228 58 85.0928 58.34 85.0928 58.7C85.0861 58.86 85.0228 58.99 84.9028 59.09C84.7828 59.19 84.6428 59.24 84.4828 59.24H80.6628L80.3628 58.24H84.0328L83.8128 58.44V58.17C83.7994 57.9767 83.7294 57.8033 83.6028 57.65C83.4828 57.4967 83.3294 57.3767 83.1428 57.29C82.9628 57.1967 82.7694 57.15 82.5628 57.15C82.3628 57.15 82.1761 57.1767 82.0028 57.23C81.8294 57.2833 81.6794 57.3733 81.5528 57.5C81.4261 57.6267 81.3261 57.7967 81.2528 58.01C81.1794 58.2233 81.1428 58.4933 81.1428 58.82C81.1428 59.18 81.2161 59.4867 81.3628 59.74C81.5161 59.9867 81.7094 60.1767 81.9428 60.31C82.1828 60.4367 82.4361 60.5 82.7028 60.5C82.9494 60.5 83.1461 60.48 83.2928 60.44C83.4394 60.4 83.5561 60.3533 83.6428 60.3C83.7361 60.24 83.8194 60.19 83.8928 60.15C84.0128 60.09 84.1261 60.06 84.2328 60.06C84.3794 60.06 84.4994 60.11 84.5928 60.21C84.6928 60.31 84.7428 60.4267 84.7428 60.56C84.7428 60.74 84.6494 60.9033 84.4628 61.05C84.2894 61.1967 84.0461 61.3267 83.7328 61.44C83.4194 61.5467 83.0961 61.6 82.7628 61.6ZM91.0839 61.6C90.6106 61.6 90.1839 61.4967 89.8039 61.29C89.4306 61.0833 89.1339 60.8133 88.9139 60.48C88.7006 60.1467 88.5939 59.79 88.5939 59.41C88.5939 59.0767 88.6506 58.7733 88.7639 58.5C88.8839 58.22 89.0606 57.9733 89.2939 57.76C89.5339 57.5467 89.8373 57.3667 90.2039 57.22L90.9839 58.03C90.5173 58.13 90.2039 58.2833 90.0439 58.49C89.8906 58.69 89.8139 58.9367 89.8139 59.23C89.8139 59.43 89.8639 59.6267 89.9639 59.82C90.0639 60.0067 90.2273 60.1633 90.4539 60.29C90.6806 60.41 90.9839 60.47 91.3639 60.47C91.6773 60.47 91.9573 60.4 92.2039 60.26C92.4573 60.1133 92.6739 59.9233 92.8539 59.69C93.0406 59.45 93.1906 59.1867 93.3039 58.9C93.4239 58.6067 93.5039 58.31 93.5439 58.01C93.5573 57.9033 93.5973 57.82 93.6639 57.76C93.7373 57.7 93.8573 57.67 94.0239 57.67C94.1973 57.67 94.3339 57.74 94.4339 57.88C94.5339 58.02 94.5706 58.1833 94.5439 58.37C94.4839 58.77 94.3673 59.1633 94.1939 59.55C94.0273 59.93 93.8006 60.2767 93.5139 60.59C93.2339 60.8967 92.8906 61.1433 92.4839 61.33C92.0839 61.51 91.6173 61.6 91.0839 61.6ZM94.6439 61.52C94.5639 61.52 94.4939 61.51 94.4339 61.49C94.3806 61.47 94.3373 61.4467 94.3039 61.42C93.8239 61.0067 93.3839 60.6267 92.9839 60.28C92.5906 59.9267 92.2273 59.59 91.8939 59.27C91.5606 58.95 91.2473 58.6233 90.9539 58.29C90.7206 58.0233 90.5073 57.7833 90.3139 57.57C90.1206 57.3567 89.9639 57.15 89.8439 56.95C89.7306 56.7433 89.6739 56.5167 89.6739 56.27C89.6739 55.9433 89.7606 55.64 89.9339 55.36C90.1139 55.0733 90.3673 54.8433 90.6939 54.67C91.0206 54.49 91.4073 54.4 91.8539 54.4C92.3139 54.4 92.7273 54.4767 93.0939 54.63C93.4673 54.7833 93.7173 54.9867 93.8439 55.24C93.8506 55.2467 93.8673 55.29 93.8939 55.37C93.9206 55.4433 93.9339 55.53 93.9339 55.63C93.9339 55.7567 93.8873 55.8667 93.7939 55.96C93.7006 56.0533 93.5739 56.1 93.4139 56.1C93.3073 56.1 93.2239 56.08 93.1639 56.04C93.1039 56 93.0573 55.96 93.0239 55.92C92.8773 55.7267 92.7073 55.5933 92.5139 55.52C92.3273 55.44 92.1073 55.4 91.8539 55.4C91.5539 55.4 91.3239 55.48 91.1639 55.64C91.0106 55.8 90.9339 55.99 90.9339 56.21C90.9339 56.4167 91.0073 56.6233 91.1539 56.83C91.3006 57.03 91.4673 57.22 91.6539 57.4C91.8473 57.58 92.0073 57.74 92.1339 57.88C92.3406 58.1 92.5706 58.3367 92.8239 58.59C93.0839 58.8367 93.3439 59.08 93.6039 59.32C93.8639 59.5533 94.1039 59.7733 94.3239 59.98C94.5506 60.18 94.7339 60.3467 94.8739 60.48C94.9606 60.56 95.0239 60.64 95.0639 60.72C95.1106 60.8 95.1339 60.8967 95.1339 61.01C95.1339 61.0967 95.0939 61.2033 95.0139 61.33C94.9406 61.4567 94.8173 61.52 94.6439 61.52ZM103.217 56.05C103.39 56.05 103.533 56.1067 103.647 56.22C103.76 56.3333 103.817 56.48 103.817 56.66V60.89C103.817 61.0633 103.76 61.21 103.647 61.33C103.533 61.4433 103.39 61.5 103.217 61.5C103.043 61.5 102.9 61.4433 102.787 61.33C102.673 61.21 102.617 61.0633 102.617 60.89V60.4L102.837 60.49C102.837 60.5767 102.79 60.6833 102.697 60.81C102.603 60.93 102.477 61.05 102.317 61.17C102.157 61.29 101.967 61.3933 101.747 61.48C101.533 61.56 101.3 61.6 101.047 61.6C100.587 61.6 100.17 61.4833 99.7965 61.25C99.4232 61.01 99.1265 60.6833 98.9065 60.27C98.6932 59.85 98.5865 59.37 98.5865 58.83C98.5865 58.2833 98.6932 57.8033 98.9065 57.39C99.1265 56.97 99.4199 56.6433 99.7865 56.41C100.153 56.17 100.56 56.05 101.007 56.05C101.293 56.05 101.557 56.0933 101.797 56.18C102.037 56.2667 102.243 56.3767 102.417 56.51C102.597 56.6433 102.733 56.78 102.827 56.92C102.927 57.0533 102.977 57.1667 102.977 57.26L102.617 57.39V56.66C102.617 56.4867 102.673 56.3433 102.787 56.23C102.9 56.11 103.043 56.05 103.217 56.05ZM101.197 60.5C101.49 60.5 101.747 60.4267 101.967 60.28C102.187 60.1333 102.357 59.9333 102.477 59.68C102.603 59.4267 102.667 59.1433 102.667 58.83C102.667 58.51 102.603 58.2233 102.477 57.97C102.357 57.7167 102.187 57.5167 101.967 57.37C101.747 57.2233 101.49 57.15 101.197 57.15C100.91 57.15 100.657 57.2233 100.437 57.37C100.217 57.5167 100.043 57.7167 99.9165 57.97C99.7965 58.2233 99.7365 58.51 99.7365 58.83C99.7365 59.1433 99.7965 59.4267 99.9165 59.68C100.043 59.9333 100.217 60.1333 100.437 60.28C100.657 60.4267 100.91 60.5 101.197 60.5ZM104.806 60.67C104.739 60.5767 104.709 60.4567 104.716 60.31C104.722 60.1633 104.809 60.0367 104.976 59.93C105.082 59.8633 105.196 59.8367 105.316 59.85C105.436 59.8567 105.552 59.9167 105.666 60.03C105.859 60.2233 106.062 60.3733 106.276 60.48C106.489 60.5867 106.756 60.64 107.076 60.64C107.176 60.6333 107.286 60.62 107.406 60.6C107.526 60.5733 107.629 60.52 107.716 60.44C107.809 60.3533 107.856 60.2233 107.856 60.05C107.856 59.9033 107.806 59.7867 107.706 59.7C107.606 59.6133 107.472 59.54 107.306 59.48C107.146 59.42 106.966 59.3633 106.766 59.31C106.559 59.25 106.346 59.1833 106.126 59.11C105.912 59.0367 105.716 58.9433 105.536 58.83C105.356 58.71 105.209 58.5533 105.096 58.36C104.982 58.1667 104.926 57.9233 104.926 57.63C104.926 57.2967 105.019 57.0133 105.206 56.78C105.392 56.5467 105.632 56.3667 105.926 56.24C106.226 56.1133 106.539 56.05 106.866 56.05C107.072 56.05 107.289 56.0767 107.516 56.13C107.742 56.1767 107.959 56.2567 108.166 56.37C108.372 56.4767 108.546 56.62 108.686 56.8C108.759 56.9 108.802 57.02 108.816 57.16C108.829 57.3 108.766 57.4267 108.626 57.54C108.526 57.62 108.409 57.6567 108.276 57.65C108.142 57.6367 108.032 57.59 107.946 57.51C107.832 57.3633 107.679 57.2467 107.486 57.16C107.299 57.0733 107.082 57.03 106.836 57.03C106.736 57.03 106.626 57.0433 106.506 57.07C106.392 57.09 106.292 57.14 106.206 57.22C106.119 57.2933 106.076 57.4133 106.076 57.58C106.076 57.7333 106.126 57.8567 106.226 57.95C106.326 58.0367 106.459 58.11 106.626 58.17C106.799 58.2233 106.982 58.2767 107.176 58.33C107.376 58.3833 107.579 58.4467 107.786 58.52C107.992 58.5933 108.182 58.69 108.356 58.81C108.529 58.93 108.669 59.0867 108.776 59.28C108.882 59.4667 108.936 59.7067 108.936 60C108.936 60.34 108.836 60.63 108.636 60.87C108.436 61.11 108.186 61.2933 107.886 61.42C107.586 61.54 107.279 61.6 106.966 61.6C106.572 61.6 106.179 61.5333 105.786 61.4C105.392 61.26 105.066 61.0167 104.806 60.67ZM109.63 60.67C109.563 60.5767 109.533 60.4567 109.54 60.31C109.547 60.1633 109.633 60.0367 109.8 59.93C109.907 59.8633 110.02 59.8367 110.14 59.85C110.26 59.8567 110.377 59.9167 110.49 60.03C110.683 60.2233 110.887 60.3733 111.1 60.48C111.313 60.5867 111.58 60.64 111.9 60.64C112 60.6333 112.11 60.62 112.23 60.6C112.35 60.5733 112.453 60.52 112.54 60.44C112.633 60.3533 112.68 60.2233 112.68 60.05C112.68 59.9033 112.63 59.7867 112.53 59.7C112.43 59.6133 112.297 59.54 112.13 59.48C111.97 59.42 111.79 59.3633 111.59 59.31C111.383 59.25 111.17 59.1833 110.95 59.11C110.737 59.0367 110.54 58.9433 110.36 58.83C110.18 58.71 110.033 58.5533 109.92 58.36C109.807 58.1667 109.75 57.9233 109.75 57.63C109.75 57.2967 109.843 57.0133 110.03 56.78C110.217 56.5467 110.457 56.3667 110.75 56.24C111.05 56.1133 111.363 56.05 111.69 56.05C111.897 56.05 112.113 56.0767 112.34 56.13C112.567 56.1767 112.783 56.2567 112.99 56.37C113.197 56.4767 113.37 56.62 113.51 56.8C113.583 56.9 113.627 57.02 113.64 57.16C113.653 57.3 113.59 57.4267 113.45 57.54C113.35 57.62 113.233 57.6567 113.1 57.65C112.967 57.6367 112.857 57.59 112.77 57.51C112.657 57.3633 112.503 57.2467 112.31 57.16C112.123 57.0733 111.907 57.03 111.66 57.03C111.56 57.03 111.45 57.0433 111.33 57.07C111.217 57.09 111.117 57.14 111.03 57.22C110.943 57.2933 110.9 57.4133 110.9 57.58C110.9 57.7333 110.95 57.8567 111.05 57.95C111.15 58.0367 111.283 58.11 111.45 58.17C111.623 58.2233 111.807 58.2767 112 58.33C112.2 58.3833 112.403 58.4467 112.61 58.52C112.817 58.5933 113.007 58.69 113.18 58.81C113.353 58.93 113.493 59.0867 113.6 59.28C113.707 59.4667 113.76 59.7067 113.76 60C113.76 60.34 113.66 60.63 113.46 60.87C113.26 61.11 113.01 61.2933 112.71 61.42C112.41 61.54 112.103 61.6 111.79 61.6C111.397 61.6 111.003 61.5333 110.61 61.4C110.217 61.26 109.89 61.0167 109.63 60.67ZM119.954 58.83C119.954 59.3767 119.831 59.86 119.584 60.28C119.344 60.6933 119.018 61.0167 118.604 61.25C118.198 61.4833 117.741 61.6 117.234 61.6C116.728 61.6 116.268 61.4833 115.854 61.25C115.448 61.0167 115.121 60.6933 114.874 60.28C114.634 59.86 114.514 59.3767 114.514 58.83C114.514 58.2833 114.634 57.8033 114.874 57.39C115.121 56.97 115.448 56.6433 115.854 56.41C116.268 56.17 116.728 56.05 117.234 56.05C117.741 56.05 118.198 56.17 118.604 56.41C119.018 56.6433 119.344 56.97 119.584 57.39C119.831 57.8033 119.954 58.2833 119.954 58.83ZM118.754 58.83C118.754 58.49 118.684 58.1967 118.544 57.95C118.411 57.6967 118.228 57.5 117.994 57.36C117.768 57.22 117.514 57.15 117.234 57.15C116.954 57.15 116.698 57.22 116.464 57.36C116.238 57.5 116.054 57.6967 115.914 57.95C115.781 58.1967 115.714 58.49 115.714 58.83C115.714 59.1633 115.781 59.4567 115.914 59.71C116.054 59.9567 116.238 60.15 116.464 60.29C116.698 60.43 116.954 60.5 117.234 60.5C117.514 60.5 117.768 60.43 117.994 60.29C118.228 60.15 118.411 59.9567 118.544 59.71C118.684 59.4567 118.754 59.1633 118.754 58.83ZM123.384 56.05C123.764 56.05 124.094 56.09 124.374 56.17C124.661 56.25 124.881 56.3633 125.034 56.51C125.194 56.65 125.274 56.82 125.274 57.02C125.274 57.1533 125.234 57.28 125.154 57.4C125.074 57.5133 124.958 57.57 124.804 57.57C124.698 57.57 124.608 57.5567 124.534 57.53C124.468 57.4967 124.408 57.4567 124.354 57.41C124.301 57.3633 124.238 57.32 124.164 57.28C124.098 57.24 123.994 57.21 123.854 57.19C123.721 57.1633 123.621 57.15 123.554 57.15C123.214 57.15 122.924 57.2233 122.684 57.37C122.451 57.5167 122.271 57.7167 122.144 57.97C122.018 58.2167 121.954 58.5033 121.954 58.83C121.954 59.15 122.018 59.4367 122.144 59.69C122.278 59.9367 122.458 60.1333 122.684 60.28C122.918 60.4267 123.184 60.5 123.484 60.5C123.651 60.5 123.794 60.49 123.914 60.47C124.034 60.45 124.134 60.42 124.214 60.38C124.308 60.3267 124.391 60.27 124.464 60.21C124.538 60.15 124.648 60.12 124.794 60.12C124.968 60.12 125.101 60.1767 125.194 60.29C125.288 60.3967 125.334 60.53 125.334 60.69C125.334 60.8567 125.241 61.01 125.054 61.15C124.868 61.2833 124.621 61.3933 124.314 61.48C124.014 61.56 123.688 61.6 123.334 61.6C122.808 61.6 122.351 61.48 121.964 61.24C121.578 60.9933 121.278 60.66 121.064 60.24C120.858 59.82 120.754 59.35 120.754 58.83C120.754 58.2833 120.864 57.8033 121.084 57.39C121.311 56.97 121.621 56.6433 122.014 56.41C122.414 56.17 122.871 56.05 123.384 56.05ZM127.33 60.89C127.33 61.0633 127.273 61.21 127.16 61.33C127.046 61.4433 126.903 61.5 126.73 61.5C126.556 61.5 126.413 61.4433 126.3 61.33C126.186 61.21 126.13 61.0633 126.13 60.89V56.76C126.13 56.5867 126.186 56.4433 126.3 56.33C126.413 56.21 126.556 56.15 126.73 56.15C126.903 56.15 127.046 56.21 127.16 56.33C127.273 56.4433 127.33 56.5867 127.33 56.76V60.89ZM126.72 55.5C126.493 55.5 126.333 55.4633 126.24 55.39C126.146 55.3167 126.1 55.1867 126.1 55V54.81C126.1 54.6167 126.15 54.4867 126.25 54.42C126.356 54.3467 126.516 54.31 126.73 54.31C126.963 54.31 127.126 54.3467 127.22 54.42C127.313 54.4933 127.36 54.6233 127.36 54.81V55C127.36 55.1933 127.31 55.3267 127.21 55.4C127.11 55.4667 126.946 55.5 126.72 55.5ZM131.083 61.6C130.516 61.6 130.023 61.4833 129.603 61.25C129.19 61.01 128.87 60.6867 128.643 60.28C128.423 59.8733 128.313 59.4133 128.313 58.9C128.313 58.3 128.433 57.79 128.673 57.37C128.92 56.9433 129.24 56.6167 129.633 56.39C130.026 56.1633 130.443 56.05 130.883 56.05C131.223 56.05 131.543 56.12 131.843 56.26C132.15 56.4 132.42 56.5933 132.653 56.84C132.886 57.08 133.07 57.36 133.203 57.68C133.343 58 133.413 58.34 133.413 58.7C133.406 58.86 133.343 58.99 133.223 59.09C133.103 59.19 132.963 59.24 132.803 59.24H128.983L128.683 58.24H132.353L132.133 58.44V58.17C132.12 57.9767 132.05 57.8033 131.923 57.65C131.803 57.4967 131.65 57.3767 131.463 57.29C131.283 57.1967 131.09 57.15 130.883 57.15C130.683 57.15 130.496 57.1767 130.323 57.23C130.15 57.2833 130 57.3733 129.873 57.5C129.746 57.6267 129.646 57.7967 129.573 58.01C129.5 58.2233 129.463 58.4933 129.463 58.82C129.463 59.18 129.536 59.4867 129.683 59.74C129.836 59.9867 130.03 60.1767 130.263 60.31C130.503 60.4367 130.756 60.5 131.023 60.5C131.27 60.5 131.466 60.48 131.613 60.44C131.76 60.4 131.876 60.3533 131.963 60.3C132.056 60.24 132.14 60.19 132.213 60.15C132.333 60.09 132.446 60.06 132.553 60.06C132.7 60.06 132.82 60.11 132.913 60.21C133.013 60.31 133.063 60.4267 133.063 60.56C133.063 60.74 132.97 60.9033 132.783 61.05C132.61 61.1967 132.366 61.3267 132.053 61.44C131.74 61.5467 131.416 61.6 131.083 61.6ZM130.893 55.81C130.84 55.81 130.77 55.7833 130.683 55.73C130.603 55.67 130.566 55.5867 130.573 55.48C130.573 55.42 130.593 55.3567 130.633 55.29L131.213 54.27C131.273 54.1633 131.35 54.07 131.443 53.99C131.536 53.91 131.643 53.87 131.763 53.87C131.95 53.87 132.086 53.92 132.173 54.02C132.26 54.1133 132.3 54.23 132.293 54.37C132.286 54.4367 132.266 54.5067 132.233 54.58C132.206 54.6533 132.163 54.7267 132.103 54.8L131.343 55.64C131.276 55.7133 131.203 55.76 131.123 55.78C131.043 55.8 130.966 55.81 130.893 55.81ZM134.152 60.67C134.085 60.5767 134.055 60.4567 134.062 60.31C134.068 60.1633 134.155 60.0367 134.322 59.93C134.428 59.8633 134.542 59.8367 134.662 59.85C134.782 59.8567 134.898 59.9167 135.012 60.03C135.205 60.2233 135.408 60.3733 135.622 60.48C135.835 60.5867 136.102 60.64 136.422 60.64C136.522 60.6333 136.632 60.62 136.752 60.6C136.872 60.5733 136.975 60.52 137.062 60.44C137.155 60.3533 137.202 60.2233 137.202 60.05C137.202 59.9033 137.152 59.7867 137.052 59.7C136.952 59.6133 136.818 59.54 136.652 59.48C136.492 59.42 136.312 59.3633 136.112 59.31C135.905 59.25 135.692 59.1833 135.472 59.11C135.258 59.0367 135.062 58.9433 134.882 58.83C134.702 58.71 134.555 58.5533 134.442 58.36C134.328 58.1667 134.272 57.9233 134.272 57.63C134.272 57.2967 134.365 57.0133 134.552 56.78C134.738 56.5467 134.978 56.3667 135.272 56.24C135.572 56.1133 135.885 56.05 136.212 56.05C136.418 56.05 136.635 56.0767 136.862 56.13C137.088 56.1767 137.305 56.2567 137.512 56.37C137.718 56.4767 137.892 56.62 138.032 56.8C138.105 56.9 138.148 57.02 138.162 57.16C138.175 57.3 138.112 57.4267 137.972 57.54C137.872 57.62 137.755 57.6567 137.622 57.65C137.488 57.6367 137.378 57.59 137.292 57.51C137.178 57.3633 137.025 57.2467 136.832 57.16C136.645 57.0733 136.428 57.03 136.182 57.03C136.082 57.03 135.972 57.0433 135.852 57.07C135.738 57.09 135.638 57.14 135.552 57.22C135.465 57.2933 135.422 57.4133 135.422 57.58C135.422 57.7333 135.472 57.8567 135.572 57.95C135.672 58.0367 135.805 58.11 135.972 58.17C136.145 58.2233 136.328 58.2767 136.522 58.33C136.722 58.3833 136.925 58.4467 137.132 58.52C137.338 58.5933 137.528 58.69 137.702 58.81C137.875 58.93 138.015 59.0867 138.122 59.28C138.228 59.4667 138.282 59.7067 138.282 60C138.282 60.34 138.182 60.63 137.982 60.87C137.782 61.11 137.532 61.2933 137.232 61.42C136.932 61.54 136.625 61.6 136.312 61.6C135.918 61.6 135.525 61.5333 135.132 61.4C134.738 61.26 134.412 61.0167 134.152 60.67Z" fill="#646464"/>
<defs>
<filter id="filter0_d_687_36" x="44.5664" y="13.8999" width="29" height="29" filterUnits="userSpaceOnUse" color-interpolation-filters="sRGB">
<feFlood flood-opacity="0" result="BackgroundImageFix"/>
<feColorMatrix in="SourceAlpha" type="matrix" values="0 0 0 0 0 0 0 0 0 0 0 0 0 0 0 0 0 0 127 0" result="hardAlpha"/>
<feOffset dy="4"/>
<feGaussianBlur stdDeviation="2"/>
<feComposite in2="hardAlpha" operator="out"/>
<feColorMatrix type="matrix" values="0 0 0 0 0 0 0 0 0 0 0 0 0 0 0 0 0 0 0.2 0"/>
<feBlend mode="normal" in2="BackgroundImageFix" result="effect1_dropShadow_687_36"/>
<feBlend mode="normal" in="SourceGraphic" in2="effect1_dropShadow_687_36" result="shape"/>
</filter>
<filter id="filter1_d_687_36" x="58.5664" y="20.8999" width="27" height="27" filterUnits="userSpaceOnUse" color-interpolation-filters="sRGB">
<feFlood flood-opacity="0" result="BackgroundImageFix"/>
<feColorMatrix in="SourceAlpha" type="matrix" values="0 0 0 0 0 0 0 0 0 0 0 0 0 0 0 0 0 0 127 0" result="hardAlpha"/>
<feOffset dy="4"/>
<feGaussianBlur stdDeviation="2"/>
<feComposite in2="hardAlpha" operator="out"/>
<feColorMatrix type="matrix" values="0 0 0 0 0 0 0 0 0 0 0 0 0 0 0 0 0 0 0.2 0"/>
<feBlend mode="normal" in2="BackgroundImageFix" result="effect1_dropShadow_687_36"/>
<feBlend mode="normal" in="SourceGraphic" in2="effect1_dropShadow_687_36" result="shape"/>
</filter>
</defs>
</svg>
