<?xml version="1.0" encoding="UTF-8"?>
<svg xmlns="http://www.w3.org/2000/svg" xmlns:xlink="http://www.w3.org/1999/xlink" width="464.82pt" height="395.87pt" viewBox="0 0 464.82 395.87" version="1.1">
<defs>
<clipPath id="clip1">
  <path d="M 406 305 L 464.820313 305 L 464.820313 358 L 406 358 Z M 406 305 "/>
</clipPath>
<clipPath id="clip2">
  <path d="M 119 371 L 147 371 L 147 395.871094 L 119 395.871094 Z M 119 371 "/>
</clipPath>
<clipPath id="clip3">
  <path d="M 162 377 L 185 377 L 185 395.871094 L 162 395.871094 Z M 162 377 "/>
</clipPath>
<clipPath id="clip4">
  <path d="M 189 377 L 210 377 L 210 395.871094 L 189 395.871094 Z M 189 377 "/>
</clipPath>
<clipPath id="clip5">
  <path d="M 212 377 L 233 377 L 233 395.871094 L 212 395.871094 Z M 212 377 "/>
</clipPath>
<clipPath id="clip6">
  <path d="M 236 377 L 258 377 L 258 395.871094 L 236 395.871094 Z M 236 377 "/>
</clipPath>
<clipPath id="clip7">
  <path d="M 263 377 L 283 377 L 283 395.871094 L 263 395.871094 Z M 263 377 "/>
</clipPath>
<clipPath id="clip8">
  <path d="M 286 372 L 291 372 L 291 395.871094 L 286 395.871094 Z M 286 372 "/>
</clipPath>
<clipPath id="clip9">
  <path d="M 295 367 L 317 367 L 317 395.871094 L 295 395.871094 Z M 295 367 "/>
</clipPath>
<clipPath id="clip10">
  <path d="M 321 377 L 342 377 L 342 395.871094 L 321 395.871094 Z M 321 377 "/>
</clipPath>
</defs>
<g id="surface1">
<path style=" stroke:none;fill-rule:nonzero;fill:rgb(28.599548%,28.199768%,32.899475%);fill-opacity:1;" d="M 332.347656 231.953125 L 126.625 231.953125 C 119.410156 231.953125 113.511719 226.050781 113.511719 218.839844 L 113.511719 13.117188 C 113.511719 5.902344 119.410156 0.00390625 126.625 0.00390625 L 332.347656 0.00390625 C 339.558594 0.00390625 345.460938 5.902344 345.460938 13.117188 L 345.460938 218.839844 C 345.460938 226.050781 339.558594 231.953125 332.347656 231.953125 "/>
<path style="fill:none;stroke-width:30.84;stroke-linecap:butt;stroke-linejoin:miter;stroke:rgb(28.999329%,72.198486%,72.198486%);stroke-opacity:1;stroke-miterlimit:4;" d="M 1710.9375 1919.442187 L 2388.28125 1919.442187 L 2388.28125 2596.785937 L 1710.9375 2596.785937 Z M 1710.9375 1919.442187 " transform="matrix(0.1,0,0,-0.1,0,395.87)"/>
<path style=" stroke:none;fill-rule:nonzero;fill:rgb(28.999329%,72.198486%,72.198486%);fill-opacity:1;" d="M 220.8125 224.699219 L 288.550781 224.699219 L 288.550781 156.960938 L 220.8125 156.960938 Z M 220.8125 224.699219 "/>
<path style=" stroke:none;fill-rule:nonzero;fill:rgb(28.999329%,72.198486%,72.198486%);fill-opacity:1;" d="M 113.511719 215.769531 L 113.511719 222.203125 L 234.800781 101.433594 L 401.410156 267.011719 L 403.984375 264.4375 L 234.539063 94.996094 "/>
<path style=" stroke:none;fill-rule:nonzero;fill:rgb(28.999329%,72.198486%,72.198486%);fill-opacity:1;" d="M 279.296875 224.699219 L 230.066406 224.699219 C 224.976563 224.699219 220.8125 220.535156 220.8125 215.445313 L 220.8125 166.214844 C 220.8125 161.128906 224.976563 156.964844 230.066406 156.964844 L 279.296875 156.964844 C 284.386719 156.964844 288.550781 161.128906 288.550781 166.214844 L 288.550781 215.445313 C 288.550781 220.535156 284.386719 224.699219 279.296875 224.699219 "/>
<path style=" stroke:none;fill-rule:nonzero;fill:rgb(100%,100%,100%);fill-opacity:1;" d="M 130.148438 19.582031 C 130.148438 18.832031 130.648438 18.414063 131.617188 18.414063 C 132.589844 18.414063 133.089844 18.832031 133.089844 19.582031 L 133.089844 31.019531 C 133.089844 31.792969 132.589844 32.183594 131.617188 32.183594 C 130.648438 32.183594 130.148438 31.792969 130.148438 31.019531 Z M 131.617188 16.445313 C 130.535156 16.445313 130.007813 16 130.007813 15.113281 C 130.007813 14.226563 130.535156 13.78125 131.617188 13.78125 C 132.675781 13.78125 133.230469 14.226563 133.230469 15.113281 C 133.230469 16 132.675781 16.445313 131.617188 16.445313 "/>
<path style=" stroke:none;fill-rule:nonzero;fill:rgb(100%,100%,100%);fill-opacity:1;" d="M 161.707031 22.855469 C 161.707031 21.496094 160.597656 20.832031 158.375 20.832031 L 156.378906 20.832031 C 154.074219 20.832031 152.933594 21.496094 152.933594 22.855469 L 152.933594 31.015625 C 152.933594 31.792969 152.464844 32.183594 151.492188 32.183594 C 150.519531 32.183594 150.019531 31.792969 150.019531 31.015625 L 150.019531 22.855469 C 150.019531 21.496094 148.910156 20.832031 146.605469 20.832031 L 144.609375 20.832031 C 142.414063 20.832031 141.304688 21.496094 141.304688 22.855469 L 141.304688 31.015625 C 141.304688 31.792969 140.808594 32.183594 139.835938 32.183594 C 138.863281 32.183594 138.363281 31.792969 138.363281 31.015625 L 138.363281 22.855469 C 138.363281 19.996094 140.472656 18.554688 144.691406 18.554688 L 146.71875 18.554688 C 148.800781 18.554688 150.410156 19.109375 151.492188 20.164063 C 152.601563 19.109375 154.183594 18.554688 156.265625 18.554688 L 158.292969 18.554688 C 162.539063 18.554688 164.648438 19.996094 164.648438 22.855469 L 164.648438 31.015625 C 164.648438 31.792969 164.148438 32.183594 163.179688 32.183594 C 162.207031 32.183594 161.707031 31.792969 161.707031 31.015625 "/>
<path style=" stroke:none;fill-rule:nonzero;fill:rgb(100%,100%,100%);fill-opacity:1;" d="M 193.1875 22.855469 C 193.1875 21.496094 192.078125 20.832031 189.855469 20.832031 L 187.855469 20.832031 C 185.554688 20.832031 184.414063 21.496094 184.414063 22.855469 L 184.414063 31.015625 C 184.414063 31.792969 183.945313 32.183594 182.972656 32.183594 C 182 32.183594 181.5 31.792969 181.5 31.015625 L 181.5 22.855469 C 181.5 21.496094 180.390625 20.832031 178.085938 20.832031 L 176.089844 20.832031 C 173.894531 20.832031 172.785156 21.496094 172.785156 22.855469 L 172.785156 31.015625 C 172.785156 31.792969 172.285156 32.183594 171.316406 32.183594 C 170.34375 32.183594 169.84375 31.792969 169.84375 31.015625 L 169.84375 22.855469 C 169.84375 19.996094 171.953125 18.554688 176.171875 18.554688 L 178.199219 18.554688 C 180.28125 18.554688 181.890625 19.109375 182.972656 20.164063 C 184.082031 19.109375 185.664063 18.554688 187.746094 18.554688 L 189.773438 18.554688 C 194.019531 18.554688 196.128906 19.996094 196.128906 22.855469 L 196.128906 31.015625 C 196.128906 31.792969 195.628906 32.183594 194.65625 32.183594 C 193.6875 32.183594 193.1875 31.792969 193.1875 31.015625 "/>
<path style=" stroke:none;fill-rule:nonzero;fill:rgb(100%,100%,100%);fill-opacity:1;" d="M 218.003906 22.941406 C 218.003906 21.523438 216.617188 20.832031 213.867188 20.832031 L 208.316406 20.832031 C 205.597656 20.832031 204.210938 21.523438 204.210938 22.941406 L 204.210938 27.6875 C 204.210938 29.074219 205.597656 29.796875 208.316406 29.796875 L 213.867188 29.796875 C 216.617188 29.796875 218.003906 29.074219 218.003906 27.6875 Z M 208.429688 32.042969 C 203.628906 32.042969 201.238281 30.574219 201.238281 27.660156 L 201.238281 22.96875 C 201.238281 20.027344 203.628906 18.554688 208.429688 18.554688 L 213.785156 18.554688 C 218.585938 18.554688 220.972656 20.027344 220.972656 22.96875 L 220.972656 27.660156 C 220.972656 30.574219 218.585938 32.042969 213.785156 32.042969 "/>
<path style=" stroke:none;fill-rule:nonzero;fill:rgb(100%,100%,100%);fill-opacity:1;" d="M 229.054688 20.832031 L 229.054688 27.6875 C 229.054688 29.074219 230.441406 29.796875 233.160156 29.796875 L 238.9375 29.796875 C 241.683594 29.796875 243.042969 29.074219 243.042969 27.6875 L 243.042969 22.941406 C 243.042969 21.523438 241.683594 20.832031 238.9375 20.832031 Z M 233.273438 32.042969 C 228.5 32.042969 226.113281 30.574219 226.113281 27.660156 L 226.113281 13.476563 C 226.113281 12.726563 226.613281 12.308594 227.582031 12.308594 C 228.554688 12.308594 229.054688 12.726563 229.054688 13.476563 L 229.054688 18.554688 L 238.851563 18.554688 C 243.625 18.554688 246.011719 20.027344 246.011719 22.96875 L 246.011719 27.660156 C 246.011719 30.574219 243.625 32.042969 238.851563 32.042969 "/>
<path style=" stroke:none;fill-rule:nonzero;fill:rgb(100%,100%,100%);fill-opacity:1;" d="M 251.234375 19.582031 C 251.234375 18.832031 251.734375 18.414063 252.707031 18.414063 C 253.679688 18.414063 254.175781 18.832031 254.175781 19.582031 L 254.175781 31.019531 C 254.175781 31.792969 253.679688 32.183594 252.707031 32.183594 C 251.734375 32.183594 251.234375 31.792969 251.234375 31.019531 Z M 252.707031 16.445313 C 251.621094 16.445313 251.097656 16 251.097656 15.113281 C 251.097656 14.226563 251.621094 13.78125 252.707031 13.78125 C 253.761719 13.78125 254.316406 14.226563 254.316406 15.113281 C 254.316406 16 253.761719 16.445313 252.707031 16.445313 "/>
<path style=" stroke:none;fill-rule:nonzero;fill:rgb(100%,100%,100%);fill-opacity:1;" d="M 259.507813 13.476563 C 259.507813 12.726563 260.007813 12.308594 260.980469 12.308594 C 261.949219 12.308594 262.449219 12.726563 262.449219 13.476563 L 262.449219 31.019531 C 262.449219 31.792969 261.949219 32.183594 260.980469 32.183594 C 260.007813 32.183594 259.507813 31.792969 259.507813 31.019531 "/>
<path style=" stroke:none;fill-rule:nonzero;fill:rgb(100%,100%,100%);fill-opacity:1;" d="M 267.78125 19.582031 C 267.78125 18.832031 268.28125 18.414063 269.253906 18.414063 C 270.222656 18.414063 270.722656 18.832031 270.722656 19.582031 L 270.722656 31.019531 C 270.722656 31.792969 270.222656 32.183594 269.253906 32.183594 C 268.28125 32.183594 267.78125 31.792969 267.78125 31.019531 Z M 269.253906 16.445313 C 268.167969 16.445313 267.640625 16 267.640625 15.113281 C 267.640625 14.226563 268.167969 13.78125 269.253906 13.78125 C 270.304688 13.78125 270.859375 14.226563 270.859375 15.113281 C 270.859375 16 270.304688 16.445313 269.253906 16.445313 "/>
<path style=" stroke:none;fill-rule:nonzero;fill:rgb(100%,100%,100%);fill-opacity:1;" d="M 281.269531 12.503906 C 280.992188 12.253906 280.800781 12.058594 280.828125 11.671875 C 280.828125 10.949219 281.355469 10.617188 282.382813 10.617188 C 282.910156 10.617188 283.296875 10.699219 283.601563 11.0625 L 288.320313 15.890625 C 288.570313 16.195313 288.652344 16.390625 288.652344 16.613281 C 288.652344 17.25 288.210938 17.582031 287.40625 17.582031 C 287.015625 17.582031 286.683594 17.472656 286.324219 17.140625 Z M 278.828125 24.300781 L 292.761719 24.300781 C 292.929688 24.300781 292.984375 24.21875 292.984375 24.105469 L 292.984375 22.664063 C 292.984375 21.386719 291.929688 20.746094 289.765625 20.746094 L 282.132813 20.746094 C 279.910156 20.746094 278.828125 21.386719 278.828125 22.664063 Z M 278.828125 26.214844 L 278.828125 27.90625 C 278.828125 29.214844 280.105469 29.878906 282.6875 29.878906 L 286.792969 29.878906 C 287.710938 29.878906 288.183594 30.238281 288.183594 30.960938 C 288.183594 31.683594 287.710938 32.042969 286.792969 32.042969 L 282.6875 32.042969 C 278.191406 32.042969 275.914063 30.683594 275.914063 27.9375 L 275.914063 22.496094 C 275.914063 19.886719 277.941406 18.554688 281.964844 18.554688 L 289.984375 18.554688 C 293.925781 18.554688 295.898438 19.746094 295.898438 22.109375 L 295.898438 25.214844 C 295.898438 25.882813 295.453125 26.214844 294.621094 26.214844 "/>
<path style=" stroke:none;fill-rule:nonzero;fill:rgb(100%,100%,100%);fill-opacity:1;" d="M 300.480469 22.96875 C 300.480469 20.027344 302.867188 18.554688 307.644531 18.554688 L 309.78125 18.554688 C 310.722656 18.554688 311.195313 18.945313 311.195313 19.691406 C 311.195313 20.441406 310.722656 20.832031 309.78125 20.832031 L 307.53125 20.832031 C 304.8125 20.832031 303.421875 21.523438 303.421875 22.910156 L 303.421875 31.015625 C 303.421875 31.792969 302.925781 32.183594 301.953125 32.183594 C 300.980469 32.183594 300.480469 31.765625 300.480469 31.015625 "/>
<path style=" stroke:none;fill-rule:nonzero;fill:rgb(100%,100%,100%);fill-opacity:1;" d="M 318.027344 24.300781 L 331.960938 24.300781 C 332.125 24.300781 332.179688 24.21875 332.179688 24.105469 L 332.179688 22.664063 C 332.179688 21.386719 331.128906 20.746094 328.960938 20.746094 L 321.328125 20.746094 C 319.105469 20.746094 318.027344 21.386719 318.027344 22.664063 Z M 318.027344 26.214844 L 318.027344 27.910156 C 318.027344 29.214844 319.300781 29.878906 321.882813 29.878906 L 325.992188 29.878906 C 326.90625 29.878906 327.378906 30.238281 327.378906 30.960938 C 327.378906 31.683594 326.90625 32.046875 325.992188 32.046875 L 321.882813 32.046875 C 317.386719 32.046875 315.109375 30.683594 315.109375 27.9375 L 315.109375 22.496094 C 315.109375 19.886719 317.136719 18.554688 321.160156 18.554688 L 329.183594 18.554688 C 333.125 18.554688 335.09375 19.75 335.09375 22.105469 L 335.09375 25.21875 C 335.09375 25.882813 334.652344 26.214844 333.820313 26.214844 "/>
<path style=" stroke:none;fill-rule:nonzero;fill:rgb(30.599976%,28.999329%,34.498596%);fill-opacity:1;" d="M 8.84375 297.949219 L 8.84375 319.730469 L 45.171875 319.730469 C 53.242188 319.730469 57.28125 317.300781 57.28125 312.441406 L 57.28125 305.628906 C 57.28125 300.507813 53.515625 297.949219 45.988281 297.949219 Z M 8.425781 349.007813 L 47.773438 349.007813 C 55.410156 349.007813 59.226563 346.734375 59.226563 342.191406 L 59.226563 335.753906 C 59.226563 330.503906 54.589844 327.878906 45.320313 327.878906 L 8.425781 327.878906 Z M 66.03125 310.703125 C 66.03125 316.847656 63.277344 321.101563 57.773438 323.472656 C 64.480469 325.902344 67.839844 330.570313 67.839844 337.476563 L 67.839844 340.738281 C 67.839844 351.609375 61.15625 357.046875 47.789063 357.046875 L 2.699219 357.046875 C 0.902344 357.046875 0 355.929688 0 353.6875 L 0 293.230469 C 0 291.054688 0.902344 289.964844 2.699219 289.964844 L 45.820313 289.964844 C 52.53125 289.964844 57.578125 291.390625 60.960938 294.238281 C 64.339844 297.085938 66.03125 301.421875 66.03125 307.246094 "/>
<path style=" stroke:none;fill-rule:nonzero;fill:rgb(30.599976%,28.999329%,34.498596%);fill-opacity:1;" d="M 134.839844 328.800781 L 98.3125 328.800781 C 92.101563 328.800781 88.996094 331.109375 88.996094 335.726563 L 88.996094 342.742188 C 88.996094 347.101563 92.320313 349.28125 98.96875 349.28125 L 125.199219 349.28125 C 131.625 349.28125 134.839844 345.980469 134.839844 339.378906 Z M 142.390625 342.085938 C 142.390625 352.058594 136.199219 357.046875 123.824219 357.046875 L 100.519531 357.046875 C 87.433594 357.046875 80.894531 352.246094 80.894531 342.640625 L 80.894531 336.015625 C 80.894531 326.027344 87.292969 321.035156 100.097656 321.035156 L 134.746094 321.035156 C 134.203125 316.003906 130.957031 313.484375 125.011719 313.484375 L 115.355469 313.484375 C 113.445313 313.484375 112.492188 312.175781 112.492188 309.558594 C 112.492188 307.070313 113.445313 305.828125 115.355469 305.828125 L 123.785156 305.828125 C 136.1875 305.828125 142.390625 310.941406 142.390625 321.171875 "/>
<path style=" stroke:none;fill-rule:nonzero;fill:rgb(30.599976%,28.999329%,34.498596%);fill-opacity:1;" d="M 178.261719 313.484375 C 170.679688 313.484375 166.890625 316.105469 166.890625 321.355469 L 166.890625 353.410156 C 166.890625 356.160156 165.554688 357.535156 162.882813 357.535156 C 160.214844 357.535156 158.878906 356.160156 158.878906 353.410156 L 158.878906 321.367188 C 158.878906 311.007813 165.613281 305.828125 179.082031 305.828125 L 182.683594 305.828125 C 184.699219 305.828125 185.710938 307.101563 185.710938 309.65625 C 185.710938 312.210938 184.863281 313.484375 183.171875 313.484375 "/>
<path style=" stroke:none;fill-rule:nonzero;fill:rgb(30.599976%,28.999329%,34.498596%);fill-opacity:1;" d="M 248.488281 322.023438 C 248.488281 316.332031 244.320313 313.484375 235.980469 313.484375 L 205.332031 313.484375 L 205.332031 341.601563 C 205.332031 346.722656 209.691406 349.28125 218.40625 349.28125 L 237.453125 349.28125 C 241.160156 349.28125 243.925781 348.59375 245.75 347.21875 C 247.574219 345.84375 248.488281 343.777344 248.488281 341.027344 Z M 256.359375 341.222656 C 256.359375 351.773438 249.085938 357.046875 234.53125 357.046875 L 219.894531 357.046875 C 204.90625 357.046875 197.410156 351.894531 197.410156 341.59375 L 197.410156 293.605469 C 197.410156 290.855469 198.746094 289.476563 201.410156 289.476563 C 204.023438 289.476563 205.332031 290.855469 205.332031 293.613281 L 205.332031 305.828125 L 234.523438 305.828125 C 249.082031 305.828125 256.359375 311.101563 256.359375 321.652344 "/>
<path style=" stroke:none;fill-rule:nonzero;fill:rgb(30.599976%,28.999329%,34.498596%);fill-opacity:1;" d="M 279.195313 353.410156 C 279.195313 356.160156 277.914063 357.535156 275.351563 357.535156 C 272.789063 357.535156 271.507813 356.160156 271.507813 353.410156 L 271.507813 312.714844 C 271.507813 310.089844 272.734375 308.78125 275.1875 308.78125 C 277.859375 308.78125 279.195313 310.089844 279.195313 312.714844 Z M 280.585938 298.386719 C 280.585938 301.644531 278.730469 303.273438 275.023438 303.273438 C 271.539063 303.273438 269.796875 301.644531 269.796875 298.386719 C 269.796875 295.128906 271.539063 293.496094 275.023438 293.496094 C 278.730469 293.496094 280.585938 295.128906 280.585938 298.386719 "/>
<path style=" stroke:none;fill-rule:nonzero;fill:rgb(30.599976%,28.999329%,34.498596%);fill-opacity:1;" d="M 331.179688 296.109375 C 331.726563 296.816406 331.996094 297.453125 331.996094 298.03125 C 331.996094 298.863281 331.671875 299.582031 331.015625 300.191406 C 330.363281 300.796875 329.679688 301.101563 328.96875 301.101563 C 328.261719 301.101563 327.6875 300.816406 327.253906 300.238281 L 315.0625 285.265625 C 314.734375 284.945313 314.5 284.59375 314.363281 284.210938 C 314.230469 283.828125 314.160156 283.414063 314.160156 282.964844 C 314.160156 282.132813 314.433594 281.382813 314.980469 280.710938 C 315.523438 280.035156 316.121094 279.699219 316.78125 279.699219 C 317.160156 279.699219 317.515625 279.796875 317.84375 279.988281 C 318.167969 280.179688 318.523438 280.46875 318.90625 280.851563 Z M 301.949219 327.988281 L 344.644531 327.988281 L 344.644531 320.402344 C 344.644531 315.789063 341.589844 313.484375 335.484375 313.484375 L 314.136719 313.484375 C 306.011719 313.484375 301.949219 315.917969 301.949219 320.785156 Z M 352.332031 331.714844 C 352.332031 334.589844 351.15625 336.027344 348.8125 336.027344 L 301.949219 336.027344 L 301.949219 342.367188 C 301.949219 346.976563 306.015625 349.28125 314.140625 349.28125 L 322.894531 349.28125 C 325.132813 349.28125 326.25 350.558594 326.25 353.117188 C 326.25 355.738281 325.132813 357.046875 322.894531 357.046875 L 316.1875 357.046875 C 301.417969 357.046875 294.03125 351.773438 294.03125 341.222656 L 294.03125 321.558594 C 294.03125 311.070313 301.335938 305.828125 315.945313 305.828125 L 333.933594 305.828125 C 346.199219 305.828125 352.332031 310.363281 352.332031 319.441406 "/>
<path style=" stroke:none;fill-rule:nonzero;fill:rgb(30.599976%,28.999329%,34.498596%);fill-opacity:1;" d="M 387.375 313.484375 C 379.789063 313.484375 376 316.105469 376 321.355469 L 376 353.410156 C 376 356.160156 374.664063 357.535156 371.996094 357.535156 C 369.324219 357.535156 367.988281 356.160156 367.988281 353.410156 L 367.988281 321.367188 C 367.988281 311.007813 374.722656 305.828125 388.191406 305.828125 L 391.792969 305.828125 C 393.808594 305.828125 394.820313 307.101563 394.820313 309.65625 C 394.820313 312.210938 393.972656 313.484375 392.28125 313.484375 "/>
<g clip-path="url(#clip1)" clip-rule="nonzero">
<path style=" stroke:none;fill-rule:nonzero;fill:rgb(30.599976%,28.999329%,34.498596%);fill-opacity:1;" d="M 414.441406 327.988281 L 457.136719 327.988281 L 457.136719 320.402344 C 457.136719 315.789063 454.078125 313.484375 447.976563 313.484375 L 426.628906 313.484375 C 418.503906 313.484375 414.441406 315.917969 414.441406 320.785156 Z M 464.824219 331.714844 C 464.824219 334.589844 463.648438 336.027344 461.304688 336.027344 L 414.441406 336.027344 L 414.441406 342.367188 C 414.441406 346.976563 418.503906 349.28125 426.632813 349.28125 L 435.386719 349.28125 C 437.625 349.28125 438.742188 350.558594 438.742188 353.117188 C 438.742188 355.738281 437.625 357.046875 435.386719 357.046875 L 428.679688 357.046875 C 413.90625 357.046875 406.523438 351.773438 406.523438 341.222656 L 406.523438 321.558594 C 406.523438 311.070313 413.828125 305.828125 428.4375 305.828125 L 446.425781 305.828125 C 458.6875 305.828125 464.824219 310.363281 464.824219 319.441406 "/>
</g>
<g clip-path="url(#clip2)" clip-rule="nonzero">
<path style=" stroke:none;fill-rule:nonzero;fill:rgb(30.599976%,28.999329%,34.498596%);fill-opacity:1;" d="M 128.605469 374.148438 C 126.339844 374.148438 125.203125 374.765625 125.203125 376 L 125.203125 377.644531 C 125.203125 378.230469 125.613281 378.820313 126.429688 379.429688 L 126.398438 379.394531 L 129.265625 381.492188 L 135.445313 379.113281 C 135.84375 378.953125 136.140625 378.757813 136.339844 378.535156 C 136.539063 378.316406 136.636719 378.03125 136.636719 377.679688 L 136.636719 376.175781 C 136.636719 374.824219 135.574219 374.148438 133.445313 374.148438 Z M 136.007813 392.761719 C 137.324219 392.761719 138.367188 392.53125 139.144531 392.0625 L 128.992188 384.785156 L 128.246094 385.101563 C 126.414063 385.753906 125.09375 386.371094 124.277344 386.953125 C 123.460938 387.539063 123.050781 388.132813 123.050781 388.738281 L 123.050781 390.699219 C 123.050781 392.074219 124.65625 392.761719 127.859375 392.761719 Z M 141.671875 393.914063 C 140.238281 395.101563 138.160156 395.695313 135.4375 395.695313 L 128.335938 395.695313 C 122.746094 395.695313 119.953125 393.890625 119.953125 390.273438 L 119.953125 389.226563 C 119.953125 388.363281 120.070313 387.625 120.308594 387.007813 C 120.546875 386.386719 120.910156 385.839844 121.398438 385.359375 C 121.886719 384.886719 122.511719 384.441406 123.277344 384.035156 C 124.042969 383.625 124.964844 383.1875 126.035156 382.722656 L 123.828125 381.148438 C 122.730469 380.308594 122.183594 378.992188 122.183594 377.195313 L 122.183594 376.464844 C 122.183594 372.992188 124.523438 371.253906 129.203125 371.253906 L 132.992188 371.253906 C 137.488281 371.253906 139.738281 372.976563 139.738281 376.425781 L 139.738281 377.128906 C 139.738281 378.292969 139.511719 379.28125 139.050781 380.082031 C 138.59375 380.886719 137.808594 381.484375 136.691406 381.882813 L 132.214844 383.597656 L 141.015625 389.890625 C 141.429688 388.839844 141.640625 387.664063 141.640625 386.359375 L 141.640625 384.363281 C 141.640625 383.386719 142.128906 382.898438 143.101563 382.898438 C 144.117188 382.898438 144.621094 383.375 144.621094 384.332031 L 144.621094 386.289063 C 144.621094 388.503906 144.257813 390.296875 143.519531 391.675781 L 145.578125 393.109375 C 145.796875 393.246094 145.953125 393.425781 146.039063 393.632813 C 146.128906 393.84375 146.175781 394.039063 146.175781 394.230469 C 146.175781 394.625 146.039063 394.996094 145.773438 395.347656 C 145.503906 395.695313 145.179688 395.871094 144.804688 395.871094 C 144.5625 395.871094 144.324219 395.765625 144.085938 395.558594 "/>
</g>
<g clip-path="url(#clip3)" clip-rule="nonzero">
<path style=" stroke:none;fill-rule:nonzero;fill:rgb(30.599976%,28.999329%,34.498596%);fill-opacity:1;" d="M 181.785156 385.410156 L 168.449219 385.410156 C 166.183594 385.410156 165.050781 386.25 165.050781 387.925781 L 165.050781 390.480469 C 165.050781 392.066406 166.265625 392.859375 168.691406 392.859375 L 178.265625 392.859375 C 180.613281 392.859375 181.785156 391.660156 181.785156 389.257813 Z M 184.539063 390.238281 C 184.539063 393.875 182.28125 395.695313 177.765625 395.695313 L 169.261719 395.695313 C 164.484375 395.695313 162.101563 393.945313 162.101563 390.445313 L 162.101563 388.03125 C 162.101563 384.390625 164.433594 382.574219 169.109375 382.574219 L 181.753906 382.574219 C 181.554688 380.734375 180.371094 379.816406 178.207031 379.816406 L 174.683594 379.816406 C 173.988281 379.816406 173.640625 379.339844 173.640625 378.386719 C 173.640625 377.476563 173.988281 377.019531 174.683594 377.019531 L 177.757813 377.019531 C 182.277344 377.019531 184.539063 378.886719 184.539063 382.613281 "/>
</g>
<g clip-path="url(#clip4)" clip-rule="nonzero">
<path style=" stroke:none;fill-rule:nonzero;fill:rgb(30.599976%,28.999329%,34.498596%);fill-opacity:1;" d="M 209.1875 390.730469 C 209.1875 394.039063 207.148438 395.695313 203.074219 395.695313 L 190.847656 395.695313 C 189.992188 395.695313 189.566406 395.242188 189.566406 394.332031 C 189.566406 393.347656 189.992188 392.859375 190.847656 392.859375 L 203.578125 392.859375 C 205.328125 392.859375 206.203125 392.148438 206.203125 390.726563 L 206.203125 389.605469 C 206.203125 388.230469 205.21875 387.539063 203.25 387.539063 L 196.515625 387.539063 C 192.027344 387.539063 189.78125 385.96875 189.78125 382.824219 L 189.78125 381.566406 C 189.78125 378.535156 191.921875 377.019531 196.199219 377.019531 L 199.597656 377.019531 C 200.433594 377.019531 200.851563 377.488281 200.851563 378.417969 C 200.851563 379.351563 200.433594 379.816406 199.597656 379.816406 L 195.511719 379.816406 C 193.605469 379.816406 192.648438 380.398438 192.648438 381.566406 L 192.648438 382.753906 C 192.648438 384.109375 193.769531 384.785156 196.015625 384.785156 L 202.898438 384.785156 C 207.09375 384.785156 209.1875 386.390625 209.1875 389.609375 "/>
</g>
<g clip-path="url(#clip5)" clip-rule="nonzero">
<path style=" stroke:none;fill-rule:nonzero;fill:rgb(30.599976%,28.999329%,34.498596%);fill-opacity:1;" d="M 232.300781 390.730469 C 232.300781 394.039063 230.261719 395.695313 226.1875 395.695313 L 213.964844 395.695313 C 213.105469 395.695313 212.679688 395.242188 212.679688 394.332031 C 212.679688 393.347656 213.105469 392.859375 213.960938 392.859375 L 226.691406 392.859375 C 228.441406 392.859375 229.316406 392.148438 229.316406 390.726563 L 229.316406 389.605469 C 229.316406 388.230469 228.332031 387.539063 226.367188 387.539063 L 219.632813 387.539063 C 215.140625 387.539063 212.894531 385.96875 212.894531 382.824219 L 212.894531 381.566406 C 212.894531 378.535156 215.035156 377.019531 219.3125 377.019531 L 222.714844 377.019531 C 223.546875 377.019531 223.964844 377.488281 223.964844 378.417969 C 223.964844 379.351563 223.546875 379.816406 222.714844 379.816406 L 218.628906 379.816406 C 216.71875 379.816406 215.765625 380.398438 215.765625 381.566406 L 215.765625 382.753906 C 215.765625 384.109375 216.886719 384.785156 219.132813 384.785156 L 226.011719 384.785156 C 230.203125 384.785156 232.300781 386.390625 232.300781 389.609375 "/>
</g>
<g clip-path="url(#clip6)" clip-rule="nonzero">
<path style=" stroke:none;fill-rule:nonzero;fill:rgb(30.599976%,28.999329%,34.498596%);fill-opacity:1;" d="M 254.796875 382.511719 C 254.796875 380.714844 253.4375 379.816406 250.714844 379.816406 L 244.089844 379.816406 C 241.128906 379.816406 239.644531 380.820313 239.644531 382.824219 L 239.644531 390.027344 C 239.644531 391.917969 241.128906 392.859375 244.089844 392.859375 L 250.714844 392.859375 C 253.4375 392.859375 254.796875 391.917969 254.796875 390.027344 Z M 257.78125 390.03125 C 257.78125 393.808594 255.273438 395.695313 250.261719 395.695313 L 244.414063 395.695313 C 239.300781 395.695313 236.746094 393.808594 236.746094 390.03125 L 236.746094 382.824219 C 236.746094 378.957031 239.328125 377.019531 244.503906 377.019531 L 250.261719 377.019531 C 255.273438 377.019531 257.78125 378.945313 257.78125 382.792969 "/>
</g>
<g clip-path="url(#clip7)" clip-rule="nonzero">
<path style=" stroke:none;fill-rule:nonzero;fill:rgb(30.599976%,28.999329%,34.498596%);fill-opacity:1;" d="M 271.496094 395.695313 C 266.242188 395.695313 263.613281 393.851563 263.613281 390.171875 L 263.613281 382.511719 C 263.613281 378.851563 266.003906 377.019531 270.78125 377.019531 L 281.425781 377.019531 C 282.34375 377.019531 282.796875 377.476563 282.796875 378.386719 C 282.796875 379.339844 282.34375 379.816406 281.425781 379.816406 L 270.394531 379.816406 C 267.808594 379.816406 266.515625 380.679688 266.515625 382.40625 L 266.515625 390.027344 C 266.515625 391.917969 267.996094 392.859375 270.960938 392.859375 L 281.425781 392.859375 C 282.265625 392.859375 282.679688 393.359375 282.679688 394.363281 C 282.679688 395.253906 282.265625 395.695313 281.425781 395.695313 "/>
</g>
<g clip-path="url(#clip8)" clip-rule="nonzero">
<path style=" stroke:none;fill-rule:nonzero;fill:rgb(30.599976%,28.999329%,34.498596%);fill-opacity:1;" d="M 290.019531 394.367188 C 290.019531 395.367188 289.550781 395.871094 288.617188 395.871094 C 287.683594 395.871094 287.21875 395.367188 287.21875 394.367188 L 287.21875 379.53125 C 287.21875 378.578125 287.664063 378.101563 288.558594 378.101563 C 289.53125 378.101563 290.019531 378.578125 290.019531 379.53125 Z M 290.519531 374.320313 C 290.519531 375.507813 289.839844 376.101563 288.492188 376.101563 C 287.21875 376.101563 286.585938 375.507813 286.585938 374.320313 C 286.585938 373.136719 287.21875 372.542969 288.492188 372.542969 C 289.839844 372.542969 290.519531 373.136719 290.519531 374.320313 "/>
</g>
<g clip-path="url(#clip9)" clip-rule="nonzero">
<path style=" stroke:none;fill-rule:nonzero;fill:rgb(30.599976%,28.999329%,34.498596%);fill-opacity:1;" d="M 304.417969 375.015625 C 304.238281 375.269531 303.992188 375.398438 303.671875 375.398438 C 303.039063 375.398438 302.71875 375.015625 302.71875 374.242188 C 302.71875 373.917969 302.820313 373.648438 303.019531 373.441406 L 307.433594 367.917969 C 307.667969 367.636719 307.949219 367.5 308.265625 367.5 C 308.902344 367.5 309.21875 367.882813 309.21875 368.652344 C 309.21875 368.929688 309.121094 369.210938 308.925781 369.492188 Z M 298.308594 385.097656 L 313.878906 385.097656 L 313.878906 382.335938 C 313.878906 380.652344 312.765625 379.816406 310.535156 379.816406 L 302.75 379.816406 C 299.789063 379.816406 298.308594 380.703125 298.308594 382.472656 Z M 316.679688 386.457031 C 316.679688 387.507813 316.25 388.03125 315.394531 388.03125 L 298.308594 388.03125 L 298.308594 390.339844 C 298.308594 392.019531 299.789063 392.859375 302.75 392.859375 L 305.945313 392.859375 C 306.757813 392.859375 307.164063 393.328125 307.164063 394.257813 C 307.164063 395.214844 306.757813 395.695313 305.945313 395.695313 L 303.496094 395.695313 C 298.105469 395.695313 295.410156 393.769531 295.410156 389.925781 L 295.410156 382.753906 C 295.410156 378.933594 298.070313 377.019531 303.402344 377.019531 L 309.964844 377.019531 C 314.441406 377.019531 316.679688 378.675781 316.679688 381.980469 "/>
</g>
<g clip-path="url(#clip10)" clip-rule="nonzero">
<path style=" stroke:none;fill-rule:nonzero;fill:rgb(30.599976%,28.999329%,34.498596%);fill-opacity:1;" d="M 341.039063 390.730469 C 341.039063 394.039063 339.003906 395.695313 334.925781 395.695313 L 322.703125 395.695313 C 321.84375 395.695313 321.417969 395.242188 321.417969 394.332031 C 321.417969 393.347656 321.84375 392.859375 322.703125 392.859375 L 335.433594 392.859375 C 337.179688 392.859375 338.054688 392.148438 338.054688 390.726563 L 338.054688 389.605469 C 338.054688 388.230469 337.070313 387.539063 335.105469 387.539063 L 328.371094 387.539063 C 323.882813 387.539063 321.636719 385.96875 321.636719 382.824219 L 321.636719 381.566406 C 321.636719 378.535156 323.773438 377.019531 328.050781 377.019531 L 331.449219 377.019531 C 332.285156 377.019531 332.703125 377.488281 332.703125 378.417969 C 332.703125 379.351563 332.285156 379.816406 331.449219 379.816406 L 327.367188 379.816406 C 325.457031 379.816406 324.503906 380.398438 324.503906 381.566406 L 324.503906 382.753906 C 324.503906 384.109375 325.621094 384.785156 327.867188 384.785156 L 334.753906 384.785156 C 338.941406 384.785156 341.039063 386.390625 341.039063 389.609375 "/>
</g>
<path style=" stroke:none;fill-rule:nonzero;fill:rgb(30.599976%,28.999329%,34.498596%);fill-opacity:1;" d="M 6.328125 269.074219 L 6.328125 280.90625 C 6.328125 282.214844 5.679688 282.871094 4.382813 282.871094 C 3.007813 282.871094 2.324219 282.21875 2.324219 280.90625 L 2.324219 259.261719 C 2.324219 254.050781 5.800781 251.449219 12.761719 251.449219 L 16.300781 251.449219 C 17.339844 251.449219 17.859375 252.042969 17.859375 253.230469 C 17.859375 254.503906 17.339844 255.144531 16.300781 255.144531 L 13.140625 255.144531 C 8.597656 255.144531 6.328125 256.496094 6.328125 259.203125 L 6.328125 265.273438 L 29.585938 265.273438 C 30.601563 265.273438 31.105469 265.882813 31.105469 267.105469 C 31.105469 268.417969 30.601563 269.074219 29.585938 269.074219 "/>
<path style=" stroke:none;fill-rule:nonzero;fill:rgb(30.599976%,28.999329%,34.498596%);fill-opacity:1;" d="M 44.136719 262.394531 C 40.609375 262.394531 38.847656 263.613281 38.847656 266.050781 L 38.847656 280.953125 C 38.847656 282.230469 38.226563 282.871094 36.984375 282.871094 C 35.742188 282.871094 35.121094 282.230469 35.121094 280.953125 L 35.121094 266.039063 C 35.121094 261.21875 38.253906 258.808594 44.519531 258.808594 L 46.195313 258.808594 C 47.132813 258.808594 47.601563 259.40625 47.601563 260.601563 C 47.601563 261.796875 47.207031 262.394531 46.421875 262.394531 "/>
<path style=" stroke:none;fill-rule:nonzero;fill:rgb(30.599976%,28.999329%,34.498596%);fill-opacity:1;" d="M 76.804688 269.535156 L 59.773438 269.535156 C 56.878906 269.535156 55.433594 270.605469 55.433594 272.75 L 55.433594 276.007813 C 55.433594 278.03125 56.980469 279.042969 60.082031 279.042969 L 72.308594 279.042969 C 75.304688 279.042969 76.804688 277.507813 76.804688 274.445313 Z M 80.296875 275.6875 C 80.296875 280.332031 77.417969 282.652344 71.652344 282.652344 L 60.796875 282.652344 C 54.707031 282.652344 51.660156 280.421875 51.660156 275.960938 L 51.660156 272.882813 C 51.660156 268.242188 54.640625 265.925781 60.609375 265.925781 L 76.757813 265.925781 C 76.503906 263.570313 74.992188 262.394531 72.226563 262.394531 L 67.734375 262.394531 C 66.847656 262.394531 66.402344 261.78125 66.402344 260.554688 C 66.402344 259.390625 66.847656 258.808594 67.734375 258.808594 L 71.65625 258.808594 C 77.417969 258.808594 80.296875 261.191406 80.296875 265.953125 "/>
<path style=" stroke:none;fill-rule:nonzero;fill:rgb(30.599976%,28.999329%,34.498596%);fill-opacity:1;" d="M 114.765625 280.949219 C 114.765625 282.230469 114.144531 282.871094 112.894531 282.871094 C 111.625 282.871094 110.992188 282.230469 110.992188 280.953125 L 110.992188 265.292969 C 110.992188 263.359375 109.328125 262.394531 106.003906 262.394531 L 96.714844 262.394531 C 93.3125 262.394531 91.609375 263.359375 91.609375 265.292969 L 91.609375 280.953125 C 91.609375 282.230469 91.003906 282.871094 89.789063 282.871094 C 88.550781 282.871094 87.929688 282.230469 87.929688 280.949219 L 87.929688 265.28125 C 87.929688 260.964844 91.203125 258.808594 97.75 258.808594 L 104.90625 258.808594 C 111.480469 258.808594 114.765625 260.964844 114.765625 265.28125 "/>
<path style=" stroke:none;fill-rule:nonzero;fill:rgb(30.599976%,28.999329%,34.498596%);fill-opacity:1;" d="M 138.269531 284.605469 C 138.269531 288.355469 136.519531 290.230469 133.015625 290.230469 L 130.730469 290.230469 C 129.714844 290.230469 129.207031 289.617188 129.207031 288.398438 C 129.207031 287.175781 129.714844 286.5625 130.730469 286.5625 L 133.089844 286.5625 C 134.105469 286.5625 134.613281 285.894531 134.613281 284.558594 L 134.613281 283.089844 C 134.613281 281.929688 135.234375 281.351563 136.480469 281.351563 C 137.675781 281.351563 138.269531 281.929688 138.269531 283.089844 Z M 132.289063 282.652344 C 125.59375 282.652344 122.25 280.304688 122.25 275.597656 L 122.25 265.820313 C 122.25 261.144531 125.289063 258.808594 131.375 258.808594 L 144.964844 258.808594 C 146.128906 258.808594 146.714844 259.390625 146.714844 260.554688 C 146.714844 261.78125 146.128906 262.394531 144.964844 262.394531 L 130.878906 262.394531 C 127.578125 262.394531 125.929688 263.496094 125.929688 265.695313 L 125.929688 275.425781 C 125.929688 277.835938 127.820313 279.039063 131.601563 279.039063 L 144.964844 279.039063 C 146.027344 279.039063 146.5625 279.679688 146.5625 280.960938 C 146.5625 282.089844 146.027344 282.652344 144.964844 282.652344 "/>
<path style=" stroke:none;fill-rule:nonzero;fill:rgb(30.599976%,28.999329%,34.498596%);fill-opacity:1;" d="M 175.789063 265.832031 C 175.789063 263.539063 174.050781 262.394531 170.570313 262.394531 L 162.113281 262.394531 C 158.328125 262.394531 156.433594 263.675781 156.433594 266.230469 L 156.433594 275.425781 C 156.433594 277.835938 158.328125 279.042969 162.113281 279.042969 L 170.570313 279.042969 C 174.050781 279.042969 175.789063 277.835938 175.789063 275.425781 Z M 179.589844 275.421875 C 179.589844 280.242188 176.390625 282.652344 169.996094 282.652344 L 162.535156 282.652344 C 156.015625 282.652344 152.753906 280.242188 152.753906 275.421875 L 152.753906 266.222656 C 152.753906 261.28125 156.050781 258.808594 162.648438 258.808594 L 169.996094 258.808594 C 176.390625 258.808594 179.589844 261.265625 179.589844 266.175781 "/>
<path style=" stroke:none;fill-rule:nonzero;fill:rgb(30.599976%,28.999329%,34.498596%);fill-opacity:1;" d="M 190.246094 280.949219 C 190.246094 282.230469 189.648438 282.871094 188.449219 282.871094 C 187.253906 282.871094 186.65625 282.230469 186.65625 280.949219 L 186.65625 262.019531 C 186.65625 260.800781 187.230469 260.1875 188.375 260.1875 C 189.621094 260.1875 190.246094 260.800781 190.246094 262.019531 Z M 190.871094 255.386719 C 190.871094 256.90625 190.007813 257.667969 188.28125 257.667969 C 186.65625 257.667969 185.847656 256.90625 185.847656 255.386719 C 185.847656 253.867188 186.65625 253.105469 188.28125 253.105469 C 190.007813 253.105469 190.871094 253.867188 190.871094 255.386719 "/>
<path style=" stroke:none;fill-rule:nonzero;fill:rgb(30.599976%,28.999329%,34.498596%);fill-opacity:1;" d="M 220.921875 276.3125 C 220.921875 280.539063 218.320313 282.652344 213.117188 282.652344 L 197.507813 282.652344 C 196.417969 282.652344 195.871094 282.074219 195.871094 280.914063 C 195.871094 279.664063 196.417969 279.039063 197.507813 279.039063 L 213.773438 279.039063 C 216.007813 279.039063 217.128906 278.132813 217.128906 276.316406 L 217.128906 274.886719 C 217.128906 273.132813 215.871094 272.253906 213.355469 272.253906 L 204.753906 272.253906 C 199.019531 272.253906 196.148438 270.242188 196.148438 266.222656 L 196.148438 264.613281 C 196.148438 260.742188 198.878906 258.808594 204.339844 258.808594 L 208.675781 258.808594 C 209.742188 258.808594 210.273438 259.40625 210.273438 260.601563 C 210.273438 261.796875 209.742188 262.394531 208.675781 262.394531 L 203.464844 262.394531 C 201.023438 262.394531 199.808594 263.136719 199.808594 264.621094 L 199.808594 266.136719 C 199.808594 267.859375 201.242188 268.722656 204.105469 268.722656 L 212.894531 268.722656 C 218.246094 268.722656 220.921875 270.773438 220.921875 274.882813 "/>
</g>
</svg>
