<svg width="32" height="32" viewBox="0 0 32 32" fill="none" xmlns="http://www.w3.org/2000/svg">
<path d="M27 26H5C4.20435 26 3.44129 25.6839 2.87868 25.1213C2.31607 24.5587 2 23.7956 2 23V9C2 8.20435 2.31607 7.44129 2.87868 6.87868C3.44129 6.31607 4.20435 6 5 6H27C27.7956 6 28.5587 6.31607 29.1213 6.87868C29.6839 7.44129 30 8.20435 30 9V23C30 23.7956 29.6839 24.5587 29.1213 25.1213C28.5587 25.6839 27.7956 26 27 26ZM5 8C4.73478 8 4.48043 8.10536 4.29289 8.29289C4.10536 8.48043 4 8.73478 4 9V23C4 23.2652 4.10536 23.5196 4.29289 23.7071C4.48043 23.8946 4.73478 24 5 24H27C27.2652 24 27.5196 23.8946 27.7071 23.7071C27.8946 23.5196 28 23.2652 28 23V9C28 8.73478 27.8946 8.48043 27.7071 8.29289C27.5196 8.10536 27.2652 8 27 8H5Z" fill="url(#paint0_linear_222_347)"/>
<path d="M15.9998 17C15.8038 16.9985 15.6126 16.9394 15.4498 16.83L3.44985 8.83005C3.25581 8.67375 3.1271 8.45064 3.08895 8.20441C3.05079 7.95819 3.10593 7.70659 3.24356 7.49889C3.38119 7.29119 3.5914 7.14235 3.83303 7.08153C4.07465 7.0207 4.33028 7.05227 4.54985 7.17005L16.5498 15.17C16.7272 15.2892 16.8617 15.462 16.9337 15.6632C17.0057 15.8644 17.0113 16.0833 16.9498 16.2879C16.8883 16.4925 16.7629 16.6721 16.592 16.8002C16.421 16.9284 16.2135 16.9984 15.9998 17Z" fill="url(#paint1_linear_222_347)"/>
<path d="M15.9998 16.9999C15.7853 17.0004 15.5763 16.9319 15.4037 16.8045C15.2312 16.6772 15.1041 16.4977 15.0413 16.2926C14.9786 16.0874 14.9834 15.8676 15.0552 15.6654C15.1269 15.4633 15.2618 15.2896 15.4398 15.1699L27.4398 7.16994C27.6598 7.03986 27.9213 6.99897 28.1706 7.05569C28.4198 7.11241 28.6379 7.26242 28.78 7.47491C28.9221 7.6874 28.9774 7.94623 28.9346 8.19824C28.8918 8.45024 28.7541 8.67629 28.5498 8.82994L16.5498 16.8299C16.3871 16.9393 16.1958 16.9984 15.9998 16.9999Z" fill="url(#paint2_linear_222_347)"/>
<defs>
<linearGradient id="paint0_linear_222_347" x1="16" y1="6" x2="16" y2="26" gradientUnits="userSpaceOnUse">
<stop stop-color="#41B8B8"/>
<stop offset="1" stop-color="#1AD9D9"/>
</linearGradient>
<linearGradient id="paint1_linear_222_347" x1="10.0346" y1="7.05127" x2="10.0346" y2="17" gradientUnits="userSpaceOnUse">
<stop stop-color="#41B8B8"/>
<stop offset="1" stop-color="#1AD9D9"/>
</linearGradient>
<linearGradient id="paint2_linear_222_347" x1="21.9731" y1="7.03076" x2="21.9731" y2="16.9999" gradientUnits="userSpaceOnUse">
<stop stop-color="#41B8B8"/>
<stop offset="1" stop-color="#1AD9D9"/>
</linearGradient>
</defs>
</svg>
