<svg width="82" height="78" viewBox="0 0 82 78" fill="none" xmlns="http://www.w3.org/2000/svg">
<path d="M48 0H81.5L0 78V46.4963L48 0Z" fill="#E88DB1"/>
<path d="M16.0076 47.9273C16.7 48.6488 17.2259 49.4377 17.5854 50.2938C17.945 51.1499 18.1343 52.0308 18.1533 52.9365C18.1727 53.8233 18.0086 54.6922 17.661 55.5432C17.323 56.3849 16.798 57.1474 16.0861 57.8305C15.3742 58.5136 14.5907 59.0067 13.7358 59.3097C12.8808 59.6126 12.0059 59.7408 11.111 59.694C10.2165 59.6284 9.34896 59.3983 8.50839 59.0037C7.66783 58.6092 6.90136 58.0511 6.20899 57.3296C5.51663 56.6081 4.99068 55.8192 4.63114 54.9631C4.27161 54.107 4.08213 53.2355 4.06271 52.3486C4.04369 51.443 4.20317 50.5693 4.54116 49.7275C4.87916 48.8858 5.40412 48.1234 6.11605 47.4402C6.82797 46.7571 7.61142 46.264 8.46638 45.9611C9.33096 45.6488 10.2105 45.5255 11.105 45.5912C11.9999 45.6379 12.8676 45.8586 13.7082 46.2531C14.5488 46.6477 15.3152 47.2057 16.0076 47.9273ZM14.1316 49.7274C13.5131 49.0828 12.8247 48.6254 12.0664 48.3552C11.2989 48.0753 10.5414 47.9983 9.79381 48.1244C9.04623 48.2504 8.3742 48.5996 7.77772 49.1719C7.18125 49.7443 6.80463 50.4013 6.64787 51.1431C6.49111 51.8848 6.5321 52.6401 6.77085 53.4088C7.01921 54.1684 7.45727 54.8752 8.08502 55.5294C8.70353 56.174 9.39172 56.6409 10.1496 56.93C10.9079 57.2003 11.6608 57.2724 12.4084 57.1464C13.1559 57.0203 13.828 56.6711 14.4244 56.0988C15.0209 55.5264 15.3975 54.8694 15.5543 54.1276C15.7111 53.3859 15.6701 52.6306 15.4313 51.8619C15.1833 51.0835 14.7501 50.372 14.1316 49.7274ZM16.9881 37.285C17.4884 36.805 18.0934 36.5016 18.8033 36.3748C19.5228 36.2388 20.2526 36.2868 20.9928 36.519C21.733 36.7512 22.3939 37.1703 22.9755 37.7764C23.5478 38.3729 23.9347 39.0457 24.1362 39.7948C24.3376 40.5439 24.3601 41.28 24.2038 42.0029C24.0478 42.7069 23.7197 43.2989 23.2194 43.779L20.5641 46.3269L20.4591 45.9286L23.3255 48.9158C23.5656 49.166 23.6917 49.4515 23.7039 49.7724C23.7069 50.0836 23.5834 50.3593 23.3332 50.5993C23.0927 50.8301 22.817 50.9375 22.5062 50.9217C22.1861 50.8962 21.906 50.7584 21.666 50.5083L13.6622 42.1672C13.4222 41.9171 13.3055 41.6318 13.3121 41.3113C13.3191 40.9719 13.4477 40.6823 13.6978 40.4422L16.9881 37.285ZM21.6408 42.1338C21.8236 41.9584 21.9277 41.7107 21.9532 41.3906C21.9786 41.0705 21.9337 40.7348 21.8184 40.3835C21.6938 40.0226 21.5023 39.7074 21.2438 39.4381C20.9761 39.1591 20.6691 38.9547 20.3229 38.825C19.9766 38.6952 19.6477 38.6413 19.336 38.6632C19.0152 38.6754 18.7633 38.7692 18.5805 38.9446L15.8964 41.5202L15.8203 41.0943L19.3514 44.7742L18.9711 44.6956L21.6408 42.1338ZM34.626 39.7632C34.3566 40.0217 34.0569 40.1522 33.7268 40.1549C33.3874 40.1479 33.0978 40.0193 32.8577 39.7692L24.8263 31.3992L26.7023 29.5991L34.7338 37.969C34.9738 38.2191 35.0855 38.5185 35.0689 38.8671C35.0526 39.1968 34.905 39.4955 34.626 39.7632ZM23.3361 34.3814C23.086 34.6214 22.8004 34.7475 22.4796 34.7598C22.1683 34.7628 21.8927 34.6392 21.6527 34.3891C21.4126 34.1389 21.3052 33.8632 21.3302 33.562C21.3557 33.2419 21.4935 32.9618 21.7436 32.7218L28.151 26.5736C28.4011 26.3336 28.6818 26.2121 28.9931 26.2091C29.3139 26.1968 29.5944 26.3158 29.8344 26.5659C30.0744 26.8161 30.1817 27.1012 30.1562 27.4213C30.1312 27.7225 29.9936 27.9931 29.7434 28.2332L23.3361 34.3814ZM41.1985 31.7657C41.4385 32.0159 41.5502 32.3152 41.5336 32.6638C41.5077 33.0027 41.3745 33.2876 41.134 33.5184C40.8646 33.7769 40.5697 33.9028 40.2492 33.8962C39.9195 33.88 39.6346 33.7468 39.3946 33.4966L31.3909 25.1556C31.1508 24.9054 31.039 24.6155 31.0552 24.2858C31.0622 23.9464 31.2004 23.6475 31.4698 23.3891C31.7007 23.1675 31.9858 23.0602 32.3251 23.0672C32.6648 23.0554 32.9547 23.1745 33.1947 23.4247L41.1985 31.7657ZM48.6604 16.595C49.3528 17.3166 49.8787 18.1054 50.2383 18.9615C50.5978 19.8177 50.7871 20.6986 50.8061 21.6042C50.8255 22.4911 50.6614 23.36 50.3138 24.2109C49.9758 25.0527 49.4508 25.8151 48.7389 26.4982C48.027 27.1814 47.2435 27.6744 46.3886 27.9774C45.5336 28.2804 44.6587 28.4085 43.7638 28.3617C42.8693 28.2961 42.0018 28.066 41.1612 27.6715C40.3206 27.2769 39.5542 26.7189 38.8618 25.9973C38.1694 25.2758 37.6435 24.487 37.2839 23.6308C36.9244 22.7747 36.7349 21.9032 36.7155 21.0164C36.6965 20.1107 36.856 19.237 37.194 18.3953C37.532 17.5535 38.0569 16.7911 38.7689 16.108C39.4808 15.4248 40.2642 14.9318 41.1192 14.6288C41.9838 14.3166 42.8633 14.1933 43.7578 14.2589C44.6527 14.3057 45.5204 14.5263 46.361 14.9209C47.2016 15.3154 47.968 15.8735 48.6604 16.595ZM46.7844 18.3952C46.1659 17.7506 45.4775 17.2932 44.7192 17.0229C43.9517 16.743 43.1942 16.6661 42.4466 16.7921C41.699 16.9181 41.027 17.2673 40.4305 17.8397C39.834 18.412 39.4574 19.0691 39.3007 19.8108C39.1439 20.5526 39.1849 21.3078 39.4237 22.0766C39.672 22.8361 40.1101 23.543 40.7378 24.1972C41.3563 24.8418 42.0445 25.3086 42.8024 25.5977C43.5607 25.868 44.3136 25.9401 45.0612 25.8141C45.8087 25.6881 46.4808 25.3389 47.0772 24.7665C47.6737 24.1942 48.0503 23.5371 48.2071 22.7954C48.3639 22.0536 48.3229 21.2984 48.0841 20.5296C47.8361 19.7512 47.4029 19.0397 46.7844 18.3952ZM53.1332 2.60174C53.3641 2.38018 53.6255 2.27713 53.9175 2.29259C54.2096 2.30805 54.4663 2.43122 54.6879 2.66212L62.7609 11.0754C63.0009 11.3255 63.1174 11.6202 63.1104 11.9596C63.1038 12.2801 62.9754 12.5603 62.7253 12.8003C62.6002 12.9203 62.4519 13.0257 62.2803 13.1165C62.109 13.1884 61.9528 13.2182 61.8116 13.2058L49.2305 11.4468L49.3841 10.8559L55.9754 17.725C56.197 17.9559 56.3047 18.2221 56.2984 18.5238C56.3018 18.8162 56.1833 19.0778 55.9427 19.3086C55.7119 19.5301 55.4504 19.6332 55.1584 19.6177C54.8664 19.6023 54.6096 19.4791 54.388 19.2482L46.315 10.835C46.075 10.5848 45.9583 10.2995 45.9649 9.97902C45.9719 9.63968 46.1005 9.35 46.3506 9.10998C46.4853 8.98074 46.6525 8.87574 46.8522 8.79499C47.0427 8.70462 47.2224 8.68004 47.3913 8.72125L59.6192 10.4589L59.5401 10.8674L53.1149 4.17148C52.8934 3.94058 52.7809 3.67893 52.7775 3.38653C52.7741 3.09413 52.8927 2.83253 53.1332 2.60174Z" fill="white"/>
</svg>
