<svg width="63" height="51" viewBox="0 0 63 51" fill="none" xmlns="http://www.w3.org/2000/svg">
<path d="M13.5204 29.8151L16.5499 29.3209L13.8106 27.9357C11.9146 26.977 10.3213 25.5118 9.20734 23.7026C8.09348 21.8935 7.50251 19.8112 7.5 17.6868C7.5 17.6866 7.5 17.6865 7.5 17.6864L7.5 13C7.5 9.95001 8.7116 7.02494 10.8683 4.86827C13.0249 2.7116 15.95 1.5 19 1.5C22.05 1.5 24.9751 2.7116 27.1317 4.86827C29.2884 7.02494 30.5 9.95001 30.5 13V17.6864C30.4976 19.811 29.9066 21.8934 28.7927 23.7026C27.6787 25.5118 26.0854 26.977 24.1894 27.9357L21.4501 29.3209L24.4796 29.8151C27.9051 30.3739 31.0202 32.1327 33.2681 34.7771C35.516 37.4215 36.7502 40.7792 36.75 44.25V48.9375C36.75 49.0867 36.6907 49.2298 36.5852 49.3352C36.4798 49.4407 36.3367 49.5 36.1875 49.5H1.8125C1.66331 49.5 1.52024 49.4407 1.41475 49.3352C1.30926 49.2298 1.25 49.0867 1.25 48.9375V44.25C1.24984 40.7792 2.48402 37.4215 4.73192 34.7771C6.97982 32.1327 10.0949 30.3739 13.5204 29.8151Z" stroke="#41B8B8" stroke-width="2"/>
<path d="M47.1242 1.5H47.125H50.25C53.2999 1.5 56.225 2.71161 58.3817 4.86827C60.5383 7.02494 61.75 9.95001 61.75 13C61.75 16.05 60.5384 18.9751 58.3817 21.1317C56.225 23.2884 53.2999 24.5 50.25 24.5H37.0392L38.9883 22.5509L39.6958 21.8434L38.9879 21.1363C37.3778 19.5279 36.2811 17.478 35.8366 15.246C35.3921 13.0141 35.6199 10.7004 36.491 8.59792C37.3622 6.49545 38.8375 4.69873 40.7304 3.43522C42.6232 2.1717 44.8484 1.49821 47.1242 1.5Z" stroke="#41B8B8" stroke-width="2"/>
</svg>
