<svg width="46" height="50" viewBox="0 0 46 50" fill="none" xmlns="http://www.w3.org/2000/svg">
<path d="M45.6481 26.2459C34.3447 12.7737 35.1476 13.5557 34.5324 13.4723C33.9172 13.3889 34.1779 13.3785 29.3917 17.393C29.1967 17.5593 29.0699 17.7916 29.0352 18.0454C29.0006 18.2993 29.0607 18.557 29.204 18.7694L28.1612 19.7288C25.2624 19.8852 24.2509 19.8018 22.9475 20.4587C21.7692 19.833 21.1227 19.906 17.8276 19.7496C16.0237 18.2272 16.9622 19.1136 16.8683 18.0917C16.8162 17.5077 16.8683 17.7267 12.1238 13.7121C12.0184 13.6243 11.8968 13.5582 11.7658 13.5175C11.6348 13.4768 11.4971 13.4623 11.3606 13.4749C11.224 13.4875 11.0912 13.5269 10.9699 13.5909C10.8486 13.6548 10.7411 13.7421 10.6535 13.8477C-0.649806 27.32 0.00712343 26.3919 0.00712343 27.0071C0.00712343 27.6223 0.00712366 27.3721 4.75161 31.3867C4.95661 31.5489 5.21507 31.6282 5.47579 31.6089C5.73651 31.5896 5.98047 31.4731 6.15932 31.2824L7.27505 32.2209C7.95284 35.0884 8.02583 35.9747 8.8496 37.0905C8.40137 37.4407 8.06433 37.9133 7.87931 38.4512C7.69429 38.9891 7.66924 39.569 7.8072 40.1209C7.94515 40.6727 8.24019 41.1726 8.65655 41.5602C9.07292 41.9477 9.59274 42.2061 10.153 42.3042C10.1443 42.7181 10.2244 43.1292 10.3878 43.5096C10.5513 43.89 10.7943 44.231 11.1006 44.5096C11.4068 44.7882 11.7692 44.998 12.1634 45.1248C12.5575 45.2516 12.9743 45.2925 13.3855 45.2447C13.5292 45.948 13.9286 46.5729 14.5064 46.9986C15.0843 47.4243 15.7996 47.6205 16.5138 47.5492C16.6185 48.0459 16.8501 48.5071 17.1859 48.8877C17.5217 49.2684 17.9504 49.5557 18.4302 49.7216C18.91 49.8874 19.4245 49.9263 19.9238 49.8343C20.423 49.7423 20.8899 49.5227 21.2791 49.1967L22.1446 48.4668C23.3646 49.5096 23.8338 49.9996 25.033 49.9996C25.6418 50.0096 26.2385 49.8291 26.7396 49.4832C27.2406 49.1373 27.621 48.6434 27.8276 48.0706C28.4085 48.3392 29.0615 48.4103 29.6867 48.2728C30.3118 48.1354 30.8748 47.797 31.2895 47.3094C31.8525 46.642 31.6336 46.4752 31.7796 46.5899C32.3206 47.0201 32.9959 47.2459 33.6868 47.2278C34.3778 47.2097 35.0403 46.9487 35.558 46.4907C36.0758 46.0328 36.4156 45.407 36.5179 44.7234C36.6202 44.0398 36.4784 43.342 36.1174 42.7526C36.5388 42.5068 36.893 42.1606 37.1484 41.7449C37.4038 41.3293 37.5526 40.8569 37.5815 40.3699C37.6104 39.8829 37.5185 39.3962 37.314 38.9533C37.1095 38.5103 36.7988 38.1247 36.4093 37.8308C37.8796 36.4961 37.9422 35.1301 38.5887 32.3251L39.7461 31.2824C39.9285 31.4656 40.1725 31.5745 40.4307 31.588C40.6889 31.6015 40.9429 31.5186 41.1434 31.3554C45.8879 27.4242 45.8879 27.5911 45.8879 27.0071C45.8999 26.8707 45.8848 26.7333 45.8437 26.6027C45.8025 26.4721 45.7361 26.3508 45.6481 26.2459ZM2.52014 26.7882L11.5816 15.9853L14.3553 18.3106L5.29384 29.1135L2.52014 26.7882ZM9.81935 39.3845C9.81935 38.9257 10.0279 38.884 11.5816 37.5806C11.7558 37.434 11.9811 37.3626 12.208 37.3822C12.4348 37.4017 12.6446 37.5106 12.7912 37.6848C12.9377 37.8591 13.0091 38.0844 12.9895 38.3112C12.97 38.5381 12.8611 38.7478 12.6869 38.8944C11.1228 40.2187 11.0602 40.3647 10.6014 40.323C10.4849 40.3178 10.3706 40.2891 10.2655 40.2386C10.1603 40.1882 10.0665 40.117 9.98952 40.0293C9.91258 39.9416 9.85415 39.8393 9.81774 39.7285C9.78133 39.6177 9.76769 39.5007 9.77764 39.3845H9.81935ZM13.0519 43.2427C12.9385 43.2335 12.828 43.2019 12.727 43.1495C12.626 43.0971 12.5365 43.0252 12.4636 42.9378C12.3908 42.8504 12.3361 42.7493 12.3029 42.6405C12.2696 42.5317 12.2583 42.4174 12.2698 42.3042C12.2698 41.8454 12.4783 41.8037 14.032 40.5002C14.2063 40.3537 14.4316 40.2823 14.6584 40.3019C14.8853 40.3214 15.095 40.4303 15.2416 40.6045C15.3882 40.7787 15.4596 41.0041 15.44 41.2309C15.4204 41.4577 15.3116 41.6675 15.1373 41.8141C14.9497 41.8141 13.6775 43.2948 13.0101 43.2427H13.0519ZM15.7421 44.0247C16.0654 43.7536 15.8047 44.0247 17.202 42.8047C17.3786 42.6807 17.5952 42.6271 17.8093 42.6544C18.0233 42.6818 18.2194 42.7882 18.3591 42.9527C18.4988 43.1172 18.572 43.328 18.5644 43.5437C18.5567 43.7594 18.4687 43.9644 18.3177 44.1186C17.9528 44.4314 16.8683 45.3282 16.8579 45.349C16.7709 45.425 16.6698 45.4831 16.5604 45.5201C16.451 45.557 16.3354 45.572 16.2202 45.5643C16.1049 45.5565 15.9924 45.5262 15.8889 45.4749C15.7854 45.4237 15.693 45.3525 15.617 45.2656C15.541 45.1786 15.4829 45.0776 15.4459 44.9681C15.409 44.8587 15.394 44.7431 15.4017 44.6279C15.4095 44.5127 15.4398 44.4001 15.4911 44.2966C15.5423 44.1931 15.6135 44.1007 15.7004 44.0247H15.7421ZM18.9225 46.3292C20.1008 45.2864 20.4971 44.9111 20.935 44.9111C21.0542 44.909 21.1724 44.9322 21.282 44.9791C21.3916 45.026 21.49 45.0956 21.5707 45.1832C21.6515 45.2709 21.7128 45.3747 21.7506 45.4877C21.7884 45.6007 21.8018 45.7205 21.7901 45.8391C21.7901 46.2979 21.5815 46.35 20.0278 47.6535C19.9409 47.7288 19.8399 47.7862 19.7308 47.8225C19.6216 47.8588 19.5064 47.8733 19.3916 47.8651C19.2769 47.8568 19.1649 47.8261 19.062 47.7746C18.9592 47.7231 18.8675 47.6518 18.7922 47.5648C18.7169 47.4779 18.6594 47.3769 18.6231 47.2678C18.5868 47.1586 18.5723 47.0434 18.5806 46.9287C18.5888 46.8139 18.6196 46.7019 18.6711 46.5991C18.7226 46.4962 18.7938 46.4045 18.8808 46.3292H18.9225ZM34.1257 40.8443L29.3082 36.7985C29.0953 36.6215 28.8208 36.5364 28.545 36.5618C28.2693 36.5872 28.015 36.7211 27.838 36.9341C27.661 37.147 27.5758 37.4215 27.6013 37.6973C27.6267 37.973 27.7606 38.2273 27.9735 38.4043L34.1779 43.6181C34.3241 43.7186 34.4359 43.8618 34.4981 44.0281C34.5603 44.1943 34.5698 44.3757 34.5254 44.5476C34.481 44.7195 34.3849 44.8736 34.2499 44.9889C34.115 45.1043 33.9479 45.1754 33.7712 45.1926C33.2498 45.2552 33.4479 45.1926 27.7337 40.4481C27.5221 40.2697 27.2484 40.1827 26.9727 40.2062C26.6969 40.2296 26.4418 40.3617 26.2634 40.5732C26.0851 40.7848 25.998 41.0586 26.0215 41.3343C26.045 41.61 26.177 41.8651 26.3886 42.0435C30.2259 45.2656 29.4542 44.6191 29.6419 44.7651C30.4553 45.4116 29.423 46.8506 28.5158 46.0789L26.0757 44.0769C25.8642 43.8985 25.5904 43.8115 25.3147 43.8349C25.039 43.8584 24.7838 43.9904 24.6055 44.202C24.4271 44.4135 24.3401 44.6873 24.3635 44.963C24.387 45.2388 24.519 45.4939 24.7306 45.6723L25.6586 46.4439C25.7888 46.5541 25.8835 46.7002 25.9309 46.864C25.9782 47.0278 25.9762 47.2019 25.9249 47.3646C25.8737 47.5272 25.7756 47.6711 25.6429 47.7781C25.5101 47.8852 25.3488 47.9506 25.179 47.9663C24.7306 47.9663 24.6159 47.8203 23.5836 46.9235C23.8065 46.4491 23.8985 45.9238 23.8501 45.4018C23.8017 44.8799 23.6147 44.3804 23.3085 43.955C23.0022 43.5297 22.5878 43.1939 22.1082 42.9825C21.6285 42.771 21.1011 42.6917 20.5805 42.7526C20.4347 42.0504 20.0348 41.4269 19.4574 41.0016C18.8801 40.5763 18.166 40.3792 17.4522 40.4481C17.3169 39.8809 17.0118 39.3684 16.5777 38.9791C16.1437 38.5897 15.6012 38.3419 15.0226 38.2688C15.0367 37.7289 14.9007 37.1958 14.6299 36.7285C14.3591 36.2613 13.964 35.8784 13.4885 35.6223C13.0131 35.3662 12.4759 35.247 11.9368 35.2779C11.3976 35.3089 10.8776 35.4887 10.4346 35.7975C10.0175 35.1927 10.0488 35.0467 9.27712 31.7725C9.11028 31.0008 8.76618 30.8131 7.47318 29.687L15.3146 20.3023C17.2958 21.9707 16.4408 21.6683 20.789 21.8977C20.9767 21.8977 21.3521 21.5431 16.0862 25.954C15.4813 26.5636 15.127 27.378 15.0934 28.2363C15.0598 29.0945 15.3494 29.9342 15.9049 30.5892C16.4604 31.2443 17.2414 31.6672 18.0936 31.7743C18.9458 31.8814 19.8072 31.6649 20.5075 31.1677L22.9475 29.249C35.8045 40.031 30.2989 35.4534 35.1268 39.4784C35.2165 39.5468 35.2918 39.6323 35.3484 39.7299C35.4051 39.8274 35.442 39.9352 35.457 40.0471C35.472 40.1589 35.4649 40.2726 35.4359 40.3817C35.407 40.4907 35.3569 40.593 35.2884 40.6827C35.2199 40.7724 35.1345 40.8477 35.0369 40.9044C34.9393 40.9611 34.8315 40.998 34.7197 41.013C34.6078 41.028 34.4941 41.0208 34.3851 40.9919C34.276 40.9629 34.1737 40.9128 34.084 40.8443H34.1257ZM35.8984 34.8486C35.7582 35.4959 35.3877 36.0703 34.8556 36.4648L24.6263 27.8935L25.3354 27.2887C25.547 27.1103 25.679 26.8552 25.7025 26.5795C25.7259 26.3037 25.6389 26.03 25.4605 25.8184C25.2821 25.6068 25.027 25.4748 24.7513 25.4513C24.4756 25.4279 24.2018 25.5149 23.9903 25.6933C18.7765 30.0519 19.0059 30.0519 18.2656 29.979C17.9354 29.9458 17.6288 29.7927 17.4039 29.5486C17.1791 29.3046 17.0516 28.9865 17.0456 28.6547C17.0456 27.7996 16.9726 28.0812 23.5419 22.5859C23.971 22.2461 24.4884 22.0363 25.033 21.9811C29.3917 21.7517 28.5366 22.0541 30.5178 20.3857L38.3593 29.7704C36.4302 31.3867 36.8577 30.5525 35.8567 34.8486H35.8984ZM40.6429 29.1135L31.5397 18.3106L34.3134 15.9853L43.3749 26.7882L40.6429 29.1135Z" fill="#41B8B8"/>
<path d="M23.9901 12.5129H21.9046C21.628 12.5129 21.3628 12.4031 21.1673 12.2075C20.9717 12.012 20.8619 11.7467 20.8619 11.4702C20.8619 11.1936 20.752 10.9284 20.5564 10.7329C20.3609 10.5373 20.0957 10.4274 19.8191 10.4274C19.5426 10.4274 19.2773 10.5373 19.0818 10.7329C18.8862 10.9284 18.7764 11.1936 18.7764 11.4702C18.7764 12.2999 19.1059 13.0955 19.6926 13.6822C20.2793 14.2688 21.0749 14.5984 21.9046 14.5984V15.6412C21.9046 15.9177 22.0145 16.1829 22.21 16.3785C22.4056 16.5741 22.6708 16.6839 22.9473 16.6839C23.2239 16.6839 23.4891 16.5741 23.6847 16.3785C23.8802 16.1829 23.9901 15.9177 23.9901 15.6412V14.5984C24.8197 14.5984 25.6154 14.2688 26.2021 13.6822C26.7887 13.0955 27.1183 12.2999 27.1183 11.4702V10.4274C27.1183 9.59779 26.7887 8.80211 26.2021 8.21545C25.6154 7.62879 24.8197 7.29921 23.9901 7.29921H21.9046C21.628 7.29921 21.3628 7.18935 21.1673 6.9938C20.9717 6.79825 20.8619 6.53302 20.8619 6.25647V5.21372C20.8619 4.93717 20.9717 4.67194 21.1673 4.47639C21.3628 4.28084 21.628 4.17098 21.9046 4.17098H23.9901C24.2666 4.17098 24.5319 4.28084 24.7274 4.47639C24.923 4.67194 25.0328 4.93717 25.0328 5.21372C25.0328 5.49028 25.1427 5.7555 25.3382 5.95105C25.5338 6.14661 25.799 6.25647 26.0756 6.25647C26.3521 6.25647 26.6174 6.14661 26.8129 5.95105C27.0085 5.7555 27.1183 5.49028 27.1183 5.21372C27.1183 4.38406 26.7887 3.58839 26.2021 3.00173C25.6154 2.41507 24.8197 2.08549 23.9901 2.08549V1.04274C23.9901 0.766192 23.8802 0.500965 23.6847 0.305413C23.4891 0.10986 23.2239 0 22.9473 0C22.6708 0 22.4056 0.10986 22.21 0.305413C22.0145 0.500965 21.9046 0.766192 21.9046 1.04274V2.08549C21.0749 2.08549 20.2793 2.41507 19.6926 3.00173C19.1059 3.58839 18.7764 4.38406 18.7764 5.21372V6.25647C18.7764 7.08613 19.1059 7.88181 19.6926 8.46846C20.2793 9.05512 21.0749 9.3847 21.9046 9.3847H23.9901C24.2666 9.3847 24.5319 9.49456 24.7274 9.69011C24.923 9.88567 25.0328 10.1509 25.0328 10.4274V11.4702C25.0328 11.7467 24.923 12.012 24.7274 12.2075C24.5319 12.4031 24.2666 12.5129 23.9901 12.5129Z" fill="#41B8B8"/>
</svg>
