<svg width="20" height="20" viewBox="0 0 20 20" fill="none" xmlns="http://www.w3.org/2000/svg">
<g clip-path="url(#clip0_77_1158)">
<path d="M0.400024 17.5999C0.400024 18.0399 0.760024 18.3999 1.20002 18.3999H3.32002C3.76002 18.3999 4.12002 18.0399 4.12002 17.5999V16.9199H5.00002C5.18002 16.9199 5.38002 16.9599 5.54002 17.0199L10.68 18.8399C10.84 18.8999 11 18.9199 11.16 18.9199C11.4 18.9199 11.64 18.8599 11.86 18.7399L18.98 14.6799C19.22 14.5599 19.4 14.3799 19.52 14.1199C19.54 14.0999 19.54 14.0799 19.54 14.0799C19.64 13.8199 19.62 13.5199 19.5 13.2599C19.26 12.7399 18.62 12.4999 18.1 12.7399L13.76 14.0999C13.8 13.9999 13.82 13.8999 13.82 13.7799C13.84 13.4999 13.74 13.2199 13.54 12.9999C13.32 12.7599 13.02 12.6399 12.7 12.6399H9.92002L7.52002 11.7599C6.94002 11.5399 6.32002 11.4399 5.68002 11.4399H4.14002V10.6799C4.14002 10.2399 3.78002 9.87988 3.34002 9.87988H1.20002C0.760024 9.87988 0.400024 10.2399 0.400024 10.6799V17.5999ZM5.68002 11.8199C6.26002 11.8199 6.84002 11.9199 7.38002 12.1199L9.82002 12.9999C9.84002 12.9999 9.86002 13.0199 9.88002 13.0199H12.7C12.9 13.0199 13.1 13.0999 13.24 13.2599C13.36 13.3999 13.42 13.5599 13.42 13.7399C13.4 13.8999 13.34 14.0599 13.22 14.1799C13.16 14.2399 13.1 14.2799 13.02 14.3199L12.86 14.3799C12.82 14.3799 12.78 14.3799 12.74 14.3799H9.72002C9.60002 14.3799 9.52002 14.4599 9.52002 14.5799C9.52002 14.6999 9.60002 14.7799 9.72002 14.7799H12.74C12.88 14.7799 13.04 14.7399 13.16 14.6999L18.22 13.1199H18.24C18.58 12.9599 18.98 13.0999 19.12 13.4399C19.2 13.5999 19.2 13.7799 19.14 13.9599V13.9799C19.08 14.1399 18.96 14.2599 18.78 14.3399L11.66 18.3799C11.4 18.5199 11.1 18.5599 10.82 18.4599L5.92002 16.7199L5.68002 16.6399C5.46002 16.5599 5.24002 16.5199 5.00002 16.5199H4.12002V11.8199H5.68002ZM0.800024 10.6599C0.800024 10.4399 0.980024 10.2599 1.20002 10.2599H3.32002C3.54002 10.2599 3.72002 10.4399 3.72002 10.6599V11.6199V16.7199V17.5999C3.72002 17.8199 3.54002 17.9999 3.32002 17.9999H1.20002C0.980024 17.9999 0.800024 17.8199 0.800024 17.5999V10.6599Z" stroke="#646464" stroke-width="0.8"/>
<path d="M8.98001 1.10008C8.32001 1.10008 7.76001 1.64008 7.76001 2.32008V10.4001C7.76001 11.0601 8.30001 11.6201 8.98001 11.6201H17.08C17.12 11.6201 17.16 11.6201 17.2 11.6201C17.82 11.5601 18.3 11.0401 18.3 10.4201V2.30008C18.3 1.62008 17.76 1.08008 17.08 1.08008H8.98001V1.10008ZM14.06 1.50008V4.42008L13.16 3.60008C13.12 3.56008 13.08 3.54008 13.02 3.54008C12.96 3.54008 12.92 3.56008 12.88 3.60008L11.98 4.42008V1.50008H14.06ZM17.88 2.30008V10.4001C17.88 10.8201 17.56 11.1601 17.14 11.2001C17.12 11.2001 17.08 11.2001 17.06 11.2001H8.98001C8.54001 11.2001 8.16001 10.8401 8.16001 10.3801V2.30008C8.16001 1.86008 8.52001 1.48008 8.98001 1.48008H11.58V4.86008C11.58 4.94008 11.62 5.02008 11.7 5.04008C11.78 5.08008 11.86 5.06008 11.92 5.00008L13.02 4.00008L14.12 5.00008C14.16 5.04008 14.2 5.06008 14.26 5.06008C14.28 5.06008 14.32 5.06008 14.34 5.04008C14.42 5.00008 14.46 4.94008 14.46 4.86008V1.50008H17.06C17.52 1.50008 17.88 1.86008 17.88 2.30008Z" stroke="#646464" stroke-width="0.8"/>
<path d="M12.22 7.36011H9.40001C9.28001 7.36011 9.20001 7.44011 9.20001 7.56011C9.20001 7.68011 9.28001 7.76011 9.40001 7.76011H12.22C12.34 7.76011 12.42 7.68011 12.42 7.56011C12.42 7.44011 12.32 7.36011 12.22 7.36011ZM12.22 8.98011H9.40001C9.28001 8.98011 9.20001 9.06011 9.20001 9.18011C9.20001 9.30011 9.28001 9.38011 9.40001 9.38011H12.22C12.34 9.38011 12.42 9.30011 12.42 9.18011C12.42 9.06011 12.32 8.98011 12.22 8.98011Z" stroke="#646464" stroke-width="0.8"/>
</g>
<defs>
<clipPath id="clip0_77_1158">
<rect width="20" height="20" fill="white"/>
</clipPath>
</defs>
</svg>
