<svg width="55" height="52" viewBox="0 0 55 52" fill="none" xmlns="http://www.w3.org/2000/svg">
<path d="M51.8567 18.9619L51.8568 18.962C52.1317 19.0021 52.3906 19.1189 52.604 19.2997C52.8173 19.4806 52.9768 19.7185 53.0634 19.9869L54.015 19.6795L53.0634 19.9869C53.1501 20.2553 53.1604 20.5429 53.093 20.8169C53.0257 21.091 52.8835 21.3399 52.6834 21.5359L52.6832 21.5361L42.2751 31.7344C41.4509 32.542 41.0793 33.7017 41.2706 34.8344L41.2709 34.8361L43.7276 49.2369C43.7276 49.237 43.7276 49.237 43.7276 49.2371C43.775 49.5153 43.744 49.8012 43.6383 50.0624C43.5326 50.3235 43.3567 50.5489 43.1311 50.7137C42.9056 50.8784 42.6392 50.976 42.3623 50.9961C42.0853 51.0162 41.808 50.9581 41.5617 50.8278L28.6969 44.0273L28.6961 44.0269C28.1943 43.7622 27.6357 43.6238 27.0685 43.6238C26.5013 43.6238 25.9427 43.7622 25.4409 44.0269L25.4401 44.0273L12.5753 50.8279C12.329 50.9581 12.0517 51.0162 11.7747 50.9961C11.4978 50.976 11.2314 50.8784 11.0059 50.7137C10.7803 50.5489 10.6044 50.3235 10.4987 50.0624C10.393 49.8012 10.362 49.5153 10.4094 49.2371C10.4094 49.237 10.4094 49.237 10.4094 49.2369L12.8661 34.8361C12.9617 34.2763 12.9202 33.7014 12.7454 33.1611C12.5705 32.6209 12.2673 32.131 11.8615 31.734C11.8614 31.734 11.8614 31.7339 11.8613 31.7338L1.45383 21.5361L1.45359 21.5359C1.25346 21.3399 1.11131 21.091 1.04395 20.8169C0.976571 20.5429 0.986846 20.2553 1.07354 19.9869C1.16022 19.7185 1.31964 19.4806 1.53304 19.2997C1.74639 19.1189 2.00525 19.0021 2.28018 18.962L2.2803 18.9619L16.6615 16.8606C16.6615 16.8606 16.6615 16.8606 16.6616 16.8606C17.2231 16.7786 17.7559 16.5606 18.2142 16.2259C18.6726 15.8911 19.0425 15.4498 19.2927 14.9402L19.2927 14.9402L25.7236 1.8412C25.7238 1.84074 25.7241 1.84027 25.7243 1.83981C26.2819 0.716665 27.8643 0.724052 28.4118 1.83805C28.4119 1.83813 28.4119 1.83822 28.412 1.8383L34.8442 14.9402L35.7419 14.4995L34.8443 14.9402C35.0945 15.4498 35.4644 15.8911 35.9228 16.2259C36.3811 16.5606 36.914 16.7786 37.4755 16.8606L51.8567 18.9619Z" stroke="#41B8B8" stroke-width="2"/>
</svg>
