<svg width="20" height="20" viewBox="0 0 20 20" fill="none" xmlns="http://www.w3.org/2000/svg">
<path d="M6.64286 6.64286H0.5V2.14286C0.5 1.70714 0.673086 1.28928 0.981182 0.981182C1.28928 0.673086 1.70714 0.5 2.14286 0.5H11.6429V9.28571C11.6429 9.60776 11.7708 9.91662 11.9985 10.1443C12.2262 10.3721 12.5351 10.5 12.8571 10.5H15.7143C16.0363 10.5 16.3452 10.3721 16.5729 10.1443C16.8006 9.91662 16.9286 9.60776 16.9286 9.28571C16.9286 8.96367 16.8006 8.65481 16.5729 8.42709C16.3452 8.19936 16.0363 8.07143 15.7143 8.07143H14.0714V0.5H17.8571C18.2929 0.5 18.7107 0.673086 19.0188 0.981182C19.3269 1.28928 19.5 1.70714 19.5 2.14286V17.8571C19.5 18.2929 19.3269 18.7107 19.0188 19.0188C18.7107 19.3269 18.2929 19.5 17.8571 19.5H9.07143V15.5H15.7143C16.0363 15.5 16.3452 15.3721 16.5729 15.1443C16.8006 14.9166 16.9286 14.6078 16.9286 14.2857C16.9286 13.9637 16.8006 13.6548 16.5729 13.4271C16.3452 13.1994 16.0363 13.0714 15.7143 13.0714H7.85714C7.5351 13.0714 7.22624 13.1994 6.99851 13.4271C6.77079 13.6548 6.64286 13.9637 6.64286 14.2857V19.5H2.14286C1.70714 19.5 1.28928 19.3269 0.981182 19.0188C0.673086 18.7107 0.5 18.2929 0.5 17.8571V9.07143H6.64286V10C6.64286 10.322 6.77079 10.6309 6.99851 10.8586C7.22624 11.0864 7.5351 11.2143 7.85714 11.2143C8.17919 11.2143 8.48805 11.0864 8.71577 10.8586C8.9435 10.6309 9.07143 10.322 9.07143 10V5.71429C9.07143 5.39224 8.9435 5.08338 8.71577 4.85566C8.48805 4.62793 8.17919 4.5 7.85714 4.5C7.53509 4.5 7.22624 4.62793 6.99851 4.85566C6.77079 5.08338 6.64286 5.39224 6.64286 5.71429V6.64286Z" stroke="#4C4955"/>
</svg>
