<svg width="30" height="20" viewBox="0 0 30 20" fill="none" xmlns="http://www.w3.org/2000/svg">
<path fill-rule="evenodd" clip-rule="evenodd" d="M9.515 10C12.3457 10 14.6385 7.7625 14.6385 5C14.6385 2.2375 12.3457 0 9.515 0C6.68429 0 4.39154 2.2375 4.39154 5C4.39154 7.7625 6.68429 10 9.515 10ZM13.1746 5C13.1746 6.9735 11.5372 8.57143 9.515 8.57143C7.49277 8.57143 5.85539 6.9735 5.85539 5C5.85539 3.0265 7.49277 1.42857 9.515 1.42857C11.5372 1.42857 13.1746 3.0265 13.1746 5ZM0 20V16C0 12.96 6.33933 11.4286 9.515 11.4286C11.6275 11.4286 15.1399 12.1062 17.255 13.4549C18.7626 13.057 20.416 12.8571 21.5917 12.8571C22.9516 12.8571 24.7763 13.1244 26.2828 13.6648C27.0346 13.9346 27.7537 14.2886 28.2978 14.7474C28.8457 15.2094 29.2769 15.834 29.2769 16.6191V20H0ZM1.46385 16C1.46385 15.7733 1.57039 15.4633 2.02463 15.0604C2.48787 14.6496 3.20086 14.2508 4.10376 13.9032C5.91101 13.2076 8.10722 12.8571 9.515 12.8571C10.9228 12.8571 13.119 13.2076 14.9263 13.9032C15.8292 14.2508 16.5421 14.6496 17.0054 15.0604C17.4596 15.4633 17.5662 15.7733 17.5662 16V18.5714H1.46385V16ZM18.5566 14.6209C19.6636 14.3975 20.7745 14.2857 21.5917 14.2857C22.7968 14.2857 24.4487 14.5289 25.7777 15.0056C26.4435 15.2445 26.9818 15.5257 27.3407 15.8284C27.6958 16.1278 27.8131 16.3907 27.8131 16.6191V18.5714H19.03V16C19.03 15.4994 18.8581 15.0396 18.5566 14.6209ZM25.6173 7.5C25.6173 9.6705 23.8158 11.4286 21.5917 11.4286C19.3676 11.4286 17.5662 9.6705 17.5662 7.5C17.5662 5.32943 19.3676 3.57143 21.5917 3.57143C23.8158 3.57143 25.6173 5.32943 25.6173 7.5ZM21.5917 10C23.0074 10 24.1535 8.88157 24.1535 7.5C24.1535 6.11843 23.0074 5 21.5917 5C20.176 5 19.03 6.11843 19.03 7.5C19.03 8.88157 20.176 10 21.5917 10Z" fill="#646464"/>
</svg>
