<svg width="82" height="79" viewBox="0 0 82 79" fill="none" xmlns="http://www.w3.org/2000/svg">
<path d="M48.5 0.00390625H82L0.5 78.0039V46.5002L48.5 0.00390625Z" fill="#E88DB1"/>
<path d="M11.8759 42.0288C12.1165 41.798 12.4018 41.6813 12.7319 41.6787C13.0624 41.6572 13.343 41.7667 13.5738 42.0073C13.6938 42.1323 13.7896 42.2899 13.8611 42.48L18.3004 54.2413C18.3985 54.5168 18.4119 54.7812 18.3406 55.0343C18.2698 55.2686 18.1526 55.4642 17.989 55.6211C17.8259 55.7592 17.6306 55.8542 17.4032 55.9061C17.1666 55.9484 16.9267 55.9198 16.6836 55.8205L5.08768 50.8709C5.00343 50.8408 4.9288 50.8016 4.86379 50.7531C4.78955 50.695 4.72473 50.6371 4.66934 50.5793C4.40163 50.3003 4.29955 49.9918 4.36311 49.6536C4.41744 49.3058 4.536 49.0442 4.71879 48.8688C5.08437 48.518 5.52896 48.4517 6.05254 48.67L16.3443 53.0694L15.853 53.5685L11.6084 43.3388C11.4212 42.8163 11.5104 42.3796 11.8759 42.0288ZM15.1901 38.9042L20.0244 34.2653C20.2746 34.0253 20.5599 33.9086 20.8804 33.9152C21.2012 33.903 21.4817 34.0219 21.7217 34.272C21.9525 34.5126 22.0552 34.7929 22.0297 35.113C22.0046 35.4142 21.867 35.6848 21.6169 35.9249L17.5762 39.8021L17.4707 39.4322L20.1709 42.2462L19.9447 42.2415L23.3215 39.0012C23.5717 38.7612 23.857 38.6445 24.1775 38.6511C24.4983 38.6389 24.7788 38.7579 25.0188 39.008C25.2496 39.2485 25.3522 39.5288 25.3268 39.8489C25.3017 40.1502 25.1641 40.4208 24.914 40.6608L21.5804 43.8595L21.5418 43.6749L24.3389 46.5899L24.0989 46.5708L28.1251 42.7074C28.3752 42.4674 28.6652 42.3555 28.9949 42.3717C29.325 42.3691 29.5962 42.4784 29.8085 42.6997C30.0393 42.9402 30.142 43.2205 30.1165 43.5406C30.1007 43.8515 29.9677 44.1269 29.7175 44.367L24.8832 49.0058C24.633 49.2458 24.3429 49.3671 24.0128 49.3698C23.6831 49.3535 23.3982 49.2203 23.1582 48.9702L15.1545 40.6291C14.9144 40.379 14.7977 40.0937 14.8044 39.7732C14.8114 39.4339 14.9399 39.1442 15.1901 38.9042ZM30.2309 24.4716C30.4618 24.25 30.7233 24.147 31.0153 24.1624C31.3073 24.1779 31.5641 24.3011 31.7856 24.5319L39.8586 32.9452C40.0987 33.1953 40.2152 33.4901 40.2082 33.8294C40.2015 34.1499 40.0732 34.4301 39.823 34.6702C39.698 34.7902 39.5496 34.8956 39.378 34.9863C39.2068 35.0582 39.0506 35.088 38.9094 35.0757L26.3282 33.3166L26.4819 32.7257L33.0732 39.5948C33.2947 39.8257 33.4024 40.092 33.3962 40.3936C33.3996 40.686 33.281 40.9476 33.0405 41.1784C32.8096 41.4 32.5481 41.503 32.2561 41.4875C31.9641 41.4721 31.7073 41.3489 31.4858 41.118L23.4128 32.7048C23.1728 32.4546 23.0561 32.1693 23.0627 31.8489C23.0697 31.5095 23.1983 31.2198 23.4484 30.9798C23.5831 30.8506 23.7503 30.7456 23.95 30.6648C24.1404 30.5745 24.3201 30.5499 24.489 30.5911L36.717 32.3287L36.6378 32.7373L30.2127 26.0413C29.9911 25.8104 29.8786 25.5488 29.8752 25.2564C29.8719 24.964 29.9904 24.7024 30.2309 24.4716ZM37.5092 17.4877C38.2019 16.823 38.9422 16.362 39.7302 16.1048C40.5182 15.8476 41.3212 15.7793 42.1391 15.8999C42.9575 16.0017 43.7534 16.2727 44.527 16.7131C45.301 17.1345 46.0204 17.6916 46.685 18.3843C47.5805 19.3175 48.2291 20.3305 48.6309 21.4232C49.0235 22.5064 49.1144 23.5833 48.9037 24.6539C48.7027 25.7154 48.1355 26.6939 47.2023 27.5893L43.7533 30.8988C43.5032 31.1388 43.2131 31.2602 42.883 31.2628C42.5532 31.2465 42.2684 31.1134 42.0283 30.8632L34.0246 22.5221C33.7846 22.272 33.6679 21.9867 33.6745 21.6662C33.6815 21.3269 33.8101 21.0372 34.0602 20.7972L37.5092 17.4877ZM45.4656 26.0682C46.0717 25.4866 46.4194 24.8573 46.5088 24.1802C46.589 23.4934 46.4711 22.812 46.155 22.136C45.8392 21.441 45.3906 20.7905 44.809 20.1844C44.3751 19.7323 43.9114 19.3549 43.4179 19.0524C42.9247 18.731 42.4246 18.518 41.9175 18.4132C41.4012 18.2988 40.8918 18.3072 40.3893 18.4382C39.8868 18.5693 39.4095 18.8518 38.9573 19.2857L36.4319 21.709L36.4516 21.4406L43.2368 28.5118L42.9979 28.4361L45.4656 26.0682ZM50.6541 4.84664C50.9042 4.60662 51.1894 4.49934 51.5095 4.52481C51.8203 4.54065 52.0958 4.67364 52.3358 4.92378L57.3485 10.1478C58.1147 10.9463 58.6201 11.8196 58.8646 12.7676C59.1186 13.7065 59.1136 14.6352 58.8495 15.5539C58.5853 16.4726 58.0588 17.3105 57.2699 18.0674C56.481 18.8244 55.6174 19.3205 54.6789 19.5558C53.7501 19.7818 52.8171 19.7531 51.88 19.4697C50.9524 19.1771 50.1056 18.6316 49.3393 17.833L44.3266 12.609C44.0866 12.3589 43.9747 12.069 43.9909 11.7393C43.9979 11.3999 44.1361 11.101 44.4055 10.8425C44.6268 10.6302 44.9071 10.5275 45.2464 10.5345C45.5862 10.5227 45.876 10.6418 46.116 10.892L51.1288 16.116C51.5904 16.597 52.0929 16.9186 52.6365 17.0807C53.1805 17.2239 53.7132 17.2302 54.2346 17.0995C54.7655 16.9596 55.2234 16.705 55.6083 16.3357C56.0219 15.9388 56.3145 15.4733 56.4858 14.9393C56.6571 14.4053 56.6873 13.859 56.5762 13.3004C56.4559 12.7321 56.165 12.2074 55.7034 11.7264L50.6907 6.50237C50.4506 6.25224 50.3243 5.97616 50.3117 5.67413C50.2898 5.36249 50.404 5.08666 50.6541 4.84664Z" fill="white"/>
</svg>
